  0
SECTION
  2
HEADER
  9
$ACADVER
  1
AC1009
  9
$FILLMODE
 70
0
  9
$EXTMIN
 10
0.000000
 20
0.000000
 30
0.000000
  9
$EXTMAX
 10
6.800000
 20
2.000000
 30
0.000000
  0
ENDSEC
  0
SECTION
  2
TABLES
  0
TABLE
  2
LTYPE
 70
1
  0
LTYPE
  2
CONTINUOUS
 70
64
  3
Solid line
 72
65
 73
0
 40
0
  0
ENDTAB
  0
TABLE
  2
LAYER
 70
255
  0
LAYER
  2
1
 70
64
 62
22
  6
CONTINUOUS
  0
LAYER
  2
16
 70
64
 62
175
  6
CONTINUOUS
  0
LAYER
  2
17
 70
64
 62
82
  6
CONTINUOUS
  0
LAYER
  2
18
 70
64
 62
82
  6
CONTINUOUS
  0
LAYER
  2
19
 70
64
 62
53
  6
CONTINUOUS
  0
LAYER
  2
20
 70
64
 62
7
  6
CONTINUOUS
  0
LAYER
  2
21
 70
64
 62
253
  6
CONTINUOUS
  0
LAYER
  2
22
 70
64
 62
253
  6
CONTINUOUS
  0
LAYER
  2
23
 70
64
 62
7
  6
CONTINUOUS
  0
LAYER
  2
24
 70
64
 62
7
  6
CONTINUOUS
  0
ENDTAB
  0
ENDSEC
  0
SECTION
  2
BLOCKS
  0
BLOCK
  8
0
  2
RECT
 70
64
 10
0.000000
 20
0.000000
 30
0.000000
  3
RECT
  0
SOLID
  8
0
 10
-0.500000
 20
-0.500000
 30
0.000000
 11
0.500000
 21
-0.500000
 31
0.000000
 12
-0.500000
 22
0.500000
 32
0.000000
 13
0.500000
 23
0.500000
 33
0.000000
  0
ENDBLK
  8
0
  0
BLOCK
  8
0
  2
PIE
 70
64
 10
0.000000
 20
0.000000
 30
0.000000
  3
PIE
  0
CIRCLE
  8
0
 10
0.000000
 20
0.000000
 30
0.000000
 40
0.500000
  0
ENDBLK
  8
0
  0
BLOCK
  8
0
  2
OCTAGONP
 70
64
 10
0.000000
 20
0.000000
 30
0.000000
  3
OCTAGONP
  0
POLYLINE
  8
0
 66
1
 10
0.000000
 20
0.000000
 30
0.000000
 40
0.000000
 41
0.000000
 70
1
  0
VERTEX
  8
0
 10
-0.500000
 20
-0.207107
 30
0.000000
  0
VERTEX
  8
0
 10
-0.500000
 20
0.207107
 30
0.000000
  0
VERTEX
  8
0
 10
-0.207107
 20
0.500000
 30
0.000000
  0
VERTEX
  8
0
 10
0.207107
 20
0.500000
 30
0.000000
  0
VERTEX
  8
0
 10
0.500000
 20
0.207107
 30
0.000000
  0
VERTEX
  8
0
 10
0.500000
 20
-0.207107
 30
0.000000
  0
VERTEX
  8
0
 10
0.207107
 20
-0.500000
 30
0.000000
  0
VERTEX
  8
0
 10
-0.207107
 20
-0.500000
 30
0.000000
  0
SEQEND
  8
0
  0
ENDBLK
  8
0
  0
BLOCK
  8
0
  2
SQUAREP
 70
64
 10
0.000000
 20
0.000000
 30
0.000000
  3
SQUAREP
  0
SOLID
  8
0
 10
-0.500000
 20
-0.500000
 30
0.000000
 11
0.500000
 21
-0.500000
 31
0.000000
 12
-0.500000
 22
0.500000
 32
0.000000
 13
0.500000
 23
0.500000
 33
0.000000
  0
ENDBLK
  8
0
  0
BLOCK
  8
0
  2
ROUNDP
 70
64
 10
0.000000
 20
0.000000
 30
0.000000
  3
ROUNDP
  0
CIRCLE
  8
0
 10
0.000000
 20
0.000000
 30
0.000000
 40
0.500000
  0
ENDBLK
  8
0
  0
BLOCK
  8
0
  2
ANNULUSP
 70
64
 10
0.000000
 20
0.000000
 30
0.000000
  3
ANNULUSP
  0
CIRCLE
  8
0
 10
0.000000
 20
0.000000
 30
0.000000
 40
0.500000
  0
ENDBLK
  8
0
  0
BLOCK
  8
0
  2
THERMALP
 70
64
 10
0.000000
 20
0.000000
 30
0.000000
  3
THERMALP
  0
LINE
  8
0
 10
-0.237868
 20
0.450000
 30
0.000000
 11
0.237868
 21
0.450000
 31
0.000000
  0
LINE
  8
0
 10
0.450000
 20
0.237868
 30
0.000000
 11
0.450000
 21
-0.237868
 31
0.000000
  0
LINE
  8
0
 10
0.237868
 20
-0.450000
 30
0.000000
 11
-0.237868
 21
-0.450000
 31
0.000000
  0
LINE
  8
0
 10
-0.450000
 20
-0.237868
 30
0.000000
 11
-0.450000
 21
0.237868
 31
0.000000
  0
ENDBLK
  8
0
  0
BLOCK
  8
0
  2
OCTAGONV
 70
64
 10
0.000000
 20
0.000000
 30
0.000000
  3
OCTAGONV
  0
POLYLINE
  8
0
 66
1
 10
0.000000
 20
0.000000
 30
0.000000
 40
0.000000
 41
0.000000
 70
1
  0
VERTEX
  8
0
 10
-0.500000
 20
-0.207107
 30
0.000000
  0
VERTEX
  8
0
 10
-0.500000
 20
0.207107
 30
0.000000
  0
VERTEX
  8
0
 10
-0.207107
 20
0.500000
 30
0.000000
  0
VERTEX
  8
0
 10
0.207107
 20
0.500000
 30
0.000000
  0
VERTEX
  8
0
 10
0.500000
 20
0.207107
 30
0.000000
  0
VERTEX
  8
0
 10
0.500000
 20
-0.207107
 30
0.000000
  0
VERTEX
  8
0
 10
0.207107
 20
-0.500000
 30
0.000000
  0
VERTEX
  8
0
 10
-0.207107
 20
-0.500000
 30
0.000000
  0
SEQEND
  8
0
  0
ENDBLK
  8
0
  0
BLOCK
  8
0
  2
SQUAREV
 70
64
 10
0.000000
 20
0.000000
 30
0.000000
  3
SQUAREV
  0
SOLID
  8
0
 10
-0.500000
 20
-0.500000
 30
0.000000
 11
0.500000
 21
-0.500000
 31
0.000000
 12
-0.500000
 22
0.500000
 32
0.000000
 13
0.500000
 23
0.500000
 33
0.000000
  0
ENDBLK
  8
0
  0
BLOCK
  8
0
  2
ROUNDV
 70
64
 10
0.000000
 20
0.000000
 30
0.000000
  3
ROUNDV
  0
CIRCLE
  8
0
 10
0.000000
 20
0.000000
 30
0.000000
 40
0.500000
  0
ENDBLK
  8
0
  0
BLOCK
  8
0
  2
ANNULUSV
 70
64
 10
0.000000
 20
0.000000
 30
0.000000
  3
ANNULUSV
  0
CIRCLE
  8
0
 10
0.000000
 20
0.000000
 30
0.000000
 40
0.500000
  0
ENDBLK
  8
0
  0
BLOCK
  8
0
  2
THERMALV
 70
64
 10
0.000000
 20
0.000000
 30
0.000000
  3
THERMALV
  0
LINE
  8
0
 10
-0.237868
 20
0.450000
 30
0.000000
 11
0.237868
 21
0.450000
 31
0.000000
  0
LINE
  8
0
 10
0.450000
 20
0.237868
 30
0.000000
 11
0.450000
 21
-0.237868
 31
0.000000
  0
LINE
  8
0
 10
0.237868
 20
-0.450000
 30
0.000000
 11
-0.237868
 21
-0.450000
 31
0.000000
  0
LINE
  8
0
 10
-0.450000
 20
-0.237868
 30
0.000000
 11
-0.450000
 21
0.237868
 31
0.000000
  0
ENDBLK
  8
0
  0
BLOCK
  8
0
  2
OFFSETP100
 70
64
 10
0.000000
 20
0.000000
 30
0.000000
  3
OFFSETP100
  0
POLYLINE
  8
0
 66
1
 10
0.000000
 20
0.000000
 30
0.000000
 40
0.000000
 41
0.000000
 70
1
  0
VERTEX
  8
0
 10
0.000000
 20
-0.500000
 30
0.000000
  0
VERTEX
  8
0
 10
1.000000
 20
-0.500000
 30
0.000000
 42
1.000000
  0
VERTEX
  8
0
 10
1.000000
 20
0.500000
 30
0.000000
  0
VERTEX
  8
0
 10
0.000000
 20
0.500000
 30
0.000000
 42
1.000000
  0
SEQEND
  8
0
  0
ENDBLK
  8
0
  0
BLOCK
  8
0
  2
LONGP100
 70
64
 10
0.000000
 20
0.000000
 30
0.000000
  3
LONGP100
  0
POLYLINE
  8
0
 66
1
 10
0.000000
 20
0.000000
 30
0.000000
 40
0.000000
 41
0.000000
 70
1
  0
VERTEX
  8
0
 10
-0.500000
 20
-0.500000
 30
0.000000
  0
VERTEX
  8
0
 10
0.500000
 20
-0.500000
 30
0.000000
 42
1.000000
  0
VERTEX
  8
0
 10
0.500000
 20
0.500000
 30
0.000000
  0
VERTEX
  8
0
 10
-0.500000
 20
0.500000
 30
0.000000
 42
1.000000
  0
SEQEND
  8
0
  0
ENDBLK
  8
0
  0
ENDSEC
  0
SECTION
  2
ENTITIES
  0
LINE
  8
20
 10
0.000000
 20
2.000000
 30
0.000000
 11
0.000000
 21
0.000000
 31
0.000000
  0
LINE
  8
20
 10
0.000000
 20
0.000000
 30
0.000000
 11
6.800000
 21
0.000000
 31
0.000000
  0
LINE
  8
20
 10
6.800000
 20
0.000000
 30
0.000000
 11
6.800000
 21
2.000000
 31
0.000000
  0
LINE
  8
20
 10
6.800000
 20
2.000000
 30
0.000000
 11
0.000000
 21
2.000000
 31
0.000000
  0
LINE
  8
22
 10
2.632000
 20
1.257367
 30
0.000000
 11
2.612317
 21
1.277050
 31
0.000000
  0
LINE
  8
22
 10
2.612317
 20
1.277050
 30
0.000000
 11
2.612317
 21
1.218000
 31
0.000000
  0
LINE
  8
22
 10
2.632000
 20
1.218000
 30
0.000000
 11
2.592633
 21
1.218000
 31
0.000000
  0
LINE
  8
22
 10
2.632000
 20
1.427842
 30
0.000000
 11
2.632000
 21
1.467209
 31
0.000000
  0
LINE
  8
22
 10
2.632000
 20
1.467209
 30
0.000000
 11
2.622158
 21
1.477050
 31
0.000000
  0
LINE
  8
22
 10
2.622158
 20
1.477050
 30
0.000000
 11
2.602475
 21
1.477050
 31
0.000000
  0
LINE
  8
22
 10
2.602475
 20
1.477050
 30
0.000000
 11
2.592633
 21
1.467209
 31
0.000000
  0
LINE
  8
22
 10
2.592633
 20
1.467209
 30
0.000000
 11
2.592633
 21
1.427842
 31
0.000000
  0
LINE
  8
22
 10
2.592633
 20
1.427842
 30
0.000000
 11
2.602475
 21
1.418000
 31
0.000000
  0
LINE
  8
22
 10
2.602475
 20
1.418000
 30
0.000000
 11
2.622158
 21
1.418000
 31
0.000000
  0
LINE
  8
22
 10
2.622158
 20
1.418000
 30
0.000000
 11
2.632000
 21
1.427842
 31
0.000000
  0
LINE
  8
22
 10
2.632000
 20
1.427842
 30
0.000000
 11
2.592633
 21
1.467209
 31
0.000000
  0
LINE
  8
22
 10
2.719500
 20
1.530500
 30
0.000000
 11
2.719500
 21
1.569867
 31
0.000000
  0
LINE
  8
22
 10
2.719500
 20
1.569867
 30
0.000000
 11
2.699817
 21
1.589550
 31
0.000000
  0
LINE
  8
22
 10
2.699817
 20
1.589550
 30
0.000000
 11
2.680133
 21
1.569867
 31
0.000000
  0
LINE
  8
22
 10
2.680133
 20
1.569867
 30
0.000000
 11
2.680133
 21
1.530500
 31
0.000000
  0
LINE
  8
22
 10
2.719500
 20
1.560025
 30
0.000000
 11
2.680133
 21
1.560025
 31
0.000000
  0
LINE
  8
22
 10
2.615678
 20
1.530500
 30
0.000000
 11
2.655045
 21
1.530500
 31
0.000000
  0
LINE
  8
22
 10
2.655045
 20
1.530500
 30
0.000000
 11
2.615678
 21
1.569867
 31
0.000000
  0
LINE
  8
22
 10
2.615678
 20
1.569867
 30
0.000000
 11
2.615678
 21
1.579709
 31
0.000000
  0
LINE
  8
22
 10
2.615678
 20
1.579709
 30
0.000000
 11
2.625520
 21
1.589550
 31
0.000000
  0
LINE
  8
22
 10
2.625520
 20
1.589550
 30
0.000000
 11
2.645203
 21
1.589550
 31
0.000000
  0
LINE
  8
22
 10
2.645203
 20
1.589550
 30
0.000000
 11
2.655045
 21
1.579709
 31
0.000000
  0
LINE
  8
22
 10
3.069500
 20
1.530500
 30
0.000000
 11
3.069500
 21
1.569867
 31
0.000000
  0
LINE
  8
22
 10
3.069500
 20
1.569867
 30
0.000000
 11
3.049817
 21
1.589550
 31
0.000000
  0
LINE
  8
22
 10
3.049817
 20
1.589550
 30
0.000000
 11
3.030133
 21
1.569867
 31
0.000000
  0
LINE
  8
22
 10
3.030133
 20
1.569867
 30
0.000000
 11
3.030133
 21
1.530500
 31
0.000000
  0
LINE
  8
22
 10
3.069500
 20
1.560025
 30
0.000000
 11
3.030133
 21
1.560025
 31
0.000000
  0
LINE
  8
22
 10
3.005045
 20
1.540342
 30
0.000000
 11
3.005045
 21
1.579709
 31
0.000000
  0
LINE
  8
22
 10
3.005045
 20
1.579709
 30
0.000000
 11
2.995203
 21
1.589550
 31
0.000000
  0
LINE
  8
22
 10
2.995203
 20
1.589550
 30
0.000000
 11
2.975520
 21
1.589550
 31
0.000000
  0
LINE
  8
22
 10
2.975520
 20
1.589550
 30
0.000000
 11
2.965678
 21
1.579709
 31
0.000000
  0
LINE
  8
22
 10
2.965678
 20
1.579709
 30
0.000000
 11
2.965678
 21
1.540342
 31
0.000000
  0
LINE
  8
22
 10
2.965678
 20
1.540342
 30
0.000000
 11
2.975520
 21
1.530500
 31
0.000000
  0
LINE
  8
22
 10
2.975520
 20
1.530500
 30
0.000000
 11
2.995203
 21
1.530500
 31
0.000000
  0
LINE
  8
22
 10
2.995203
 20
1.530500
 30
0.000000
 11
3.005045
 21
1.540342
 31
0.000000
  0
LINE
  8
22
 10
3.005045
 20
1.540342
 30
0.000000
 11
2.965678
 21
1.579709
 31
0.000000
  0
LINE
  8
22
 10
2.894500
 20
1.530500
 30
0.000000
 11
2.894500
 21
1.569867
 31
0.000000
  0
LINE
  8
22
 10
2.894500
 20
1.569867
 30
0.000000
 11
2.874817
 21
1.589550
 31
0.000000
  0
LINE
  8
22
 10
2.874817
 20
1.589550
 30
0.000000
 11
2.855133
 21
1.569867
 31
0.000000
  0
LINE
  8
22
 10
2.855133
 20
1.569867
 30
0.000000
 11
2.855133
 21
1.530500
 31
0.000000
  0
LINE
  8
22
 10
2.894500
 20
1.560025
 30
0.000000
 11
2.855133
 21
1.560025
 31
0.000000
  0
LINE
  8
22
 10
2.830045
 20
1.569867
 30
0.000000
 11
2.810362
 21
1.589550
 31
0.000000
  0
LINE
  8
22
 10
2.810362
 20
1.589550
 30
0.000000
 11
2.810362
 21
1.530500
 31
0.000000
  0
LINE
  8
22
 10
2.830045
 20
1.530500
 30
0.000000
 11
2.790678
 21
1.530500
 31
0.000000
  0
LINE
  8
21
 10
1.752525
 20
1.268532
 30
0.000000
 11
1.727837
 21
1.268532
 31
0.000000
  0
LINE
  8
21
 10
1.727837
 20
1.268532
 30
0.000000
 11
1.727837
 21
1.231500
 31
0.000000
  0
LINE
  8
21
 10
1.727837
 20
1.231500
 30
0.000000
 11
1.752525
 21
1.231500
 31
0.000000
  0
LINE
  8
21
 10
1.727837
 20
1.250016
 30
0.000000
 11
1.740181
 21
1.250016
 31
0.000000
  0
LINE
  8
21
 10
1.789356
 20
1.268532
 30
0.000000
 11
1.764669
 21
1.268532
 31
0.000000
  0
LINE
  8
21
 10
1.764669
 20
1.268532
 30
0.000000
 11
1.764669
 21
1.250016
 31
0.000000
  0
LINE
  8
21
 10
1.764669
 20
1.250016
 30
0.000000
 11
1.777012
 21
1.256188
 31
0.000000
  0
LINE
  8
21
 10
1.777012
 20
1.256188
 30
0.000000
 11
1.783184
 21
1.256188
 31
0.000000
  0
LINE
  8
21
 10
1.783184
 20
1.256188
 30
0.000000
 11
1.789356
 21
1.250016
 31
0.000000
  0
LINE
  8
21
 10
1.789356
 20
1.250016
 30
0.000000
 11
1.789356
 21
1.237672
 31
0.000000
  0
LINE
  8
21
 10
1.789356
 20
1.237672
 30
0.000000
 11
1.783184
 21
1.231500
 31
0.000000
  0
LINE
  8
21
 10
1.783184
 20
1.231500
 30
0.000000
 11
1.770840
 21
1.231500
 31
0.000000
  0
LINE
  8
21
 10
1.770840
 20
1.231500
 30
0.000000
 11
1.764669
 21
1.237672
 31
0.000000
  0
LINE
  8
21
 10
1.752525
 20
1.168532
 30
0.000000
 11
1.727837
 21
1.168532
 31
0.000000
  0
LINE
  8
21
 10
1.727837
 20
1.168532
 30
0.000000
 11
1.727837
 21
1.131500
 31
0.000000
  0
LINE
  8
21
 10
1.727837
 20
1.131500
 30
0.000000
 11
1.752525
 21
1.131500
 31
0.000000
  0
LINE
  8
21
 10
1.727837
 20
1.150016
 30
0.000000
 11
1.740181
 21
1.150016
 31
0.000000
  0
LINE
  8
21
 10
1.789356
 20
1.168532
 30
0.000000
 11
1.777012
 21
1.162360
 31
0.000000
  0
LINE
  8
21
 10
1.777012
 20
1.162360
 30
0.000000
 11
1.764669
 21
1.150016
 31
0.000000
  0
LINE
  8
21
 10
1.764669
 20
1.150016
 30
0.000000
 11
1.764669
 21
1.137672
 31
0.000000
  0
LINE
  8
21
 10
1.764669
 20
1.137672
 30
0.000000
 11
1.770840
 21
1.131500
 31
0.000000
  0
LINE
  8
21
 10
1.770840
 20
1.131500
 30
0.000000
 11
1.783184
 21
1.131500
 31
0.000000
  0
LINE
  8
21
 10
1.783184
 20
1.131500
 30
0.000000
 11
1.789356
 21
1.137672
 31
0.000000
  0
LINE
  8
21
 10
1.789356
 20
1.137672
 30
0.000000
 11
1.789356
 21
1.143844
 31
0.000000
  0
LINE
  8
21
 10
1.789356
 20
1.143844
 30
0.000000
 11
1.783184
 21
1.150016
 31
0.000000
  0
LINE
  8
21
 10
1.783184
 20
1.150016
 30
0.000000
 11
1.764669
 21
1.150016
 31
0.000000
  0
LINE
  8
21
 10
1.752525
 20
1.068532
 30
0.000000
 11
1.727837
 21
1.068532
 31
0.000000
  0
LINE
  8
21
 10
1.727837
 20
1.068532
 30
0.000000
 11
1.727837
 21
1.031500
 31
0.000000
  0
LINE
  8
21
 10
1.727837
 20
1.031500
 30
0.000000
 11
1.752525
 21
1.031500
 31
0.000000
  0
LINE
  8
21
 10
1.727837
 20
1.050016
 30
0.000000
 11
1.740181
 21
1.050016
 31
0.000000
  0
LINE
  8
21
 10
1.764669
 20
1.062360
 30
0.000000
 11
1.770840
 21
1.068532
 31
0.000000
  0
LINE
  8
21
 10
1.770840
 20
1.068532
 30
0.000000
 11
1.783184
 21
1.068532
 31
0.000000
  0
LINE
  8
21
 10
1.783184
 20
1.068532
 30
0.000000
 11
1.789356
 21
1.062360
 31
0.000000
  0
LINE
  8
21
 10
1.789356
 20
1.062360
 30
0.000000
 11
1.789356
 21
1.056188
 31
0.000000
  0
LINE
  8
21
 10
1.789356
 20
1.056188
 30
0.000000
 11
1.783184
 21
1.050016
 31
0.000000
  0
LINE
  8
21
 10
1.783184
 20
1.050016
 30
0.000000
 11
1.777012
 21
1.050016
 31
0.000000
  0
LINE
  8
21
 10
1.783184
 20
1.050016
 30
0.000000
 11
1.789356
 21
1.043844
 31
0.000000
  0
LINE
  8
21
 10
1.789356
 20
1.043844
 30
0.000000
 11
1.789356
 21
1.037672
 31
0.000000
  0
LINE
  8
21
 10
1.789356
 20
1.037672
 30
0.000000
 11
1.783184
 21
1.031500
 31
0.000000
  0
LINE
  8
21
 10
1.783184
 20
1.031500
 30
0.000000
 11
1.770840
 21
1.031500
 31
0.000000
  0
LINE
  8
21
 10
1.770840
 20
1.031500
 30
0.000000
 11
1.764669
 21
1.037672
 31
0.000000
  0
LINE
  8
21
 10
1.752525
 20
0.968532
 30
0.000000
 11
1.727837
 21
0.968532
 31
0.000000
  0
LINE
  8
21
 10
1.727837
 20
0.968532
 30
0.000000
 11
1.727837
 21
0.931500
 31
0.000000
  0
LINE
  8
21
 10
1.727837
 20
0.931500
 30
0.000000
 11
1.752525
 21
0.931500
 31
0.000000
  0
LINE
  8
21
 10
1.727837
 20
0.950016
 30
0.000000
 11
1.740181
 21
0.950016
 31
0.000000
  0
LINE
  8
21
 10
1.764669
 20
0.956188
 30
0.000000
 11
1.777012
 21
0.968532
 31
0.000000
  0
LINE
  8
21
 10
1.777012
 20
0.968532
 30
0.000000
 11
1.777012
 21
0.931500
 31
0.000000
  0
LINE
  8
21
 10
1.764669
 20
0.931500
 30
0.000000
 11
1.789356
 21
0.931500
 31
0.000000
  0
LINE
  8
21
 10
1.715693
 20
0.868532
 30
0.000000
 11
1.691006
 21
0.868532
 31
0.000000
  0
LINE
  8
21
 10
1.691006
 20
0.868532
 30
0.000000
 11
1.691006
 21
0.831500
 31
0.000000
  0
LINE
  8
21
 10
1.691006
 20
0.831500
 30
0.000000
 11
1.715693
 21
0.831500
 31
0.000000
  0
LINE
  8
21
 10
1.691006
 20
0.850016
 30
0.000000
 11
1.703350
 21
0.850016
 31
0.000000
  0
LINE
  8
21
 10
1.727837
 20
0.856188
 30
0.000000
 11
1.740181
 21
0.868532
 31
0.000000
  0
LINE
  8
21
 10
1.740181
 20
0.868532
 30
0.000000
 11
1.740181
 21
0.831500
 31
0.000000
  0
LINE
  8
21
 10
1.727837
 20
0.831500
 30
0.000000
 11
1.752525
 21
0.831500
 31
0.000000
  0
LINE
  8
21
 10
1.764669
 20
0.837672
 30
0.000000
 11
1.764669
 21
0.862360
 31
0.000000
  0
LINE
  8
21
 10
1.764669
 20
0.862360
 30
0.000000
 11
1.770840
 21
0.868532
 31
0.000000
  0
LINE
  8
21
 10
1.770840
 20
0.868532
 30
0.000000
 11
1.783184
 21
0.868532
 31
0.000000
  0
LINE
  8
21
 10
1.783184
 20
0.868532
 30
0.000000
 11
1.789356
 21
0.862360
 31
0.000000
  0
LINE
  8
21
 10
1.789356
 20
0.862360
 30
0.000000
 11
1.789356
 21
0.837672
 31
0.000000
  0
LINE
  8
21
 10
1.789356
 20
0.837672
 30
0.000000
 11
1.783184
 21
0.831500
 31
0.000000
  0
LINE
  8
21
 10
1.783184
 20
0.831500
 30
0.000000
 11
1.770840
 21
0.831500
 31
0.000000
  0
LINE
  8
21
 10
1.770840
 20
0.831500
 30
0.000000
 11
1.764669
 21
0.837672
 31
0.000000
  0
LINE
  8
21
 10
1.764669
 20
0.837672
 30
0.000000
 11
1.789356
 21
0.862360
 31
0.000000
  0
LINE
  8
21
 10
2.113844
 20
1.131500
 30
0.000000
 11
2.113844
 21
1.168532
 31
0.000000
  0
LINE
  8
21
 10
2.101500
 20
1.168532
 30
0.000000
 11
2.126188
 21
1.168532
 31
0.000000
  0
LINE
  8
21
 10
2.156847
 20
1.131500
 30
0.000000
 11
2.156847
 21
1.168532
 31
0.000000
  0
LINE
  8
21
 10
2.156847
 20
1.168532
 30
0.000000
 11
2.138331
 21
1.150016
 31
0.000000
  0
LINE
  8
21
 10
2.138331
 20
1.150016
 30
0.000000
 11
2.163019
 21
1.150016
 31
0.000000
  0
LINE
  8
21
 10
2.113844
 20
1.031500
 30
0.000000
 11
2.113844
 21
1.068532
 31
0.000000
  0
LINE
  8
21
 10
2.101500
 20
1.068532
 30
0.000000
 11
2.126188
 21
1.068532
 31
0.000000
  0
LINE
  8
21
 10
2.138331
 20
1.062360
 30
0.000000
 11
2.144503
 21
1.068532
 31
0.000000
  0
LINE
  8
21
 10
2.144503
 20
1.068532
 30
0.000000
 11
2.156847
 21
1.068532
 31
0.000000
  0
LINE
  8
21
 10
2.156847
 20
1.068532
 30
0.000000
 11
2.163019
 21
1.062360
 31
0.000000
  0
LINE
  8
21
 10
2.163019
 20
1.062360
 30
0.000000
 11
2.163019
 21
1.056188
 31
0.000000
  0
LINE
  8
21
 10
2.163019
 20
1.056188
 30
0.000000
 11
2.156847
 21
1.050016
 31
0.000000
  0
LINE
  8
21
 10
2.156847
 20
1.050016
 30
0.000000
 11
2.150675
 21
1.050016
 31
0.000000
  0
LINE
  8
21
 10
2.156847
 20
1.050016
 30
0.000000
 11
2.163019
 21
1.043844
 31
0.000000
  0
LINE
  8
21
 10
2.163019
 20
1.043844
 30
0.000000
 11
2.163019
 21
1.037672
 31
0.000000
  0
LINE
  8
21
 10
2.163019
 20
1.037672
 30
0.000000
 11
2.156847
 21
1.031500
 31
0.000000
  0
LINE
  8
21
 10
2.156847
 20
1.031500
 30
0.000000
 11
2.144503
 21
1.031500
 31
0.000000
  0
LINE
  8
21
 10
2.144503
 20
1.031500
 30
0.000000
 11
2.138331
 21
1.037672
 31
0.000000
  0
LINE
  8
21
 10
2.113844
 20
0.931500
 30
0.000000
 11
2.113844
 21
0.968532
 31
0.000000
  0
LINE
  8
21
 10
2.101500
 20
0.968532
 30
0.000000
 11
2.126188
 21
0.968532
 31
0.000000
  0
LINE
  8
21
 10
2.163019
 20
0.931500
 30
0.000000
 11
2.138331
 21
0.931500
 31
0.000000
  0
LINE
  8
21
 10
2.138331
 20
0.931500
 30
0.000000
 11
2.163019
 21
0.956188
 31
0.000000
  0
LINE
  8
21
 10
2.163019
 20
0.956188
 30
0.000000
 11
2.163019
 21
0.962360
 31
0.000000
  0
LINE
  8
21
 10
2.163019
 20
0.962360
 30
0.000000
 11
2.156847
 21
0.968532
 31
0.000000
  0
LINE
  8
21
 10
2.156847
 20
0.968532
 30
0.000000
 11
2.144503
 21
0.968532
 31
0.000000
  0
LINE
  8
21
 10
2.144503
 20
0.968532
 30
0.000000
 11
2.138331
 21
0.962360
 31
0.000000
  0
LINE
  8
21
 10
2.113844
 20
0.831500
 30
0.000000
 11
2.113844
 21
0.868532
 31
0.000000
  0
LINE
  8
21
 10
2.101500
 20
0.868532
 30
0.000000
 11
2.126188
 21
0.868532
 31
0.000000
  0
LINE
  8
21
 10
2.138331
 20
0.856188
 30
0.000000
 11
2.150675
 21
0.868532
 31
0.000000
  0
LINE
  8
21
 10
2.150675
 20
0.868532
 30
0.000000
 11
2.150675
 21
0.831500
 31
0.000000
  0
LINE
  8
21
 10
2.138331
 20
0.831500
 30
0.000000
 11
2.163019
 21
0.831500
 31
0.000000
  0
LINE
  8
21
 10
5.126188
 20
1.268532
 30
0.000000
 11
5.101500
 21
1.268532
 31
0.000000
  0
LINE
  8
21
 10
5.101500
 20
1.268532
 30
0.000000
 11
5.101500
 21
1.231500
 31
0.000000
  0
LINE
  8
21
 10
5.101500
 20
1.231500
 30
0.000000
 11
5.126188
 21
1.231500
 31
0.000000
  0
LINE
  8
21
 10
5.101500
 20
1.250016
 30
0.000000
 11
5.113844
 21
1.250016
 31
0.000000
  0
LINE
  8
21
 10
5.138331
 20
1.256188
 30
0.000000
 11
5.150675
 21
1.268532
 31
0.000000
  0
LINE
  8
21
 10
5.150675
 20
1.268532
 30
0.000000
 11
5.150675
 21
1.231500
 31
0.000000
  0
LINE
  8
21
 10
5.138331
 20
1.231500
 30
0.000000
 11
5.163019
 21
1.231500
 31
0.000000
  0
LINE
  8
21
 10
5.126188
 20
1.168532
 30
0.000000
 11
5.101500
 21
1.168532
 31
0.000000
  0
LINE
  8
21
 10
5.101500
 20
1.168532
 30
0.000000
 11
5.101500
 21
1.131500
 31
0.000000
  0
LINE
  8
21
 10
5.101500
 20
1.131500
 30
0.000000
 11
5.126188
 21
1.131500
 31
0.000000
  0
LINE
  8
21
 10
5.101500
 20
1.150016
 30
0.000000
 11
5.113844
 21
1.150016
 31
0.000000
  0
LINE
  8
21
 10
5.138331
 20
1.162360
 30
0.000000
 11
5.144503
 21
1.168532
 31
0.000000
  0
LINE
  8
21
 10
5.144503
 20
1.168532
 30
0.000000
 11
5.156847
 21
1.168532
 31
0.000000
  0
LINE
  8
21
 10
5.156847
 20
1.168532
 30
0.000000
 11
5.163019
 21
1.162360
 31
0.000000
  0
LINE
  8
21
 10
5.163019
 20
1.162360
 30
0.000000
 11
5.163019
 21
1.156188
 31
0.000000
  0
LINE
  8
21
 10
5.163019
 20
1.156188
 30
0.000000
 11
5.156847
 21
1.150016
 31
0.000000
  0
LINE
  8
21
 10
5.156847
 20
1.150016
 30
0.000000
 11
5.150675
 21
1.150016
 31
0.000000
  0
LINE
  8
21
 10
5.156847
 20
1.150016
 30
0.000000
 11
5.163019
 21
1.143844
 31
0.000000
  0
LINE
  8
21
 10
5.163019
 20
1.143844
 30
0.000000
 11
5.163019
 21
1.137672
 31
0.000000
  0
LINE
  8
21
 10
5.163019
 20
1.137672
 30
0.000000
 11
5.156847
 21
1.131500
 31
0.000000
  0
LINE
  8
21
 10
5.156847
 20
1.131500
 30
0.000000
 11
5.144503
 21
1.131500
 31
0.000000
  0
LINE
  8
21
 10
5.144503
 20
1.131500
 30
0.000000
 11
5.138331
 21
1.137672
 31
0.000000
  0
LINE
  8
21
 10
5.126188
 20
1.068532
 30
0.000000
 11
5.101500
 21
1.068532
 31
0.000000
  0
LINE
  8
21
 10
5.101500
 20
1.068532
 30
0.000000
 11
5.101500
 21
1.031500
 31
0.000000
  0
LINE
  8
21
 10
5.101500
 20
1.031500
 30
0.000000
 11
5.126188
 21
1.031500
 31
0.000000
  0
LINE
  8
21
 10
5.101500
 20
1.050016
 30
0.000000
 11
5.113844
 21
1.050016
 31
0.000000
  0
LINE
  8
21
 10
5.163019
 20
1.068532
 30
0.000000
 11
5.150675
 21
1.062360
 31
0.000000
  0
LINE
  8
21
 10
5.150675
 20
1.062360
 30
0.000000
 11
5.138331
 21
1.050016
 31
0.000000
  0
LINE
  8
21
 10
5.138331
 20
1.050016
 30
0.000000
 11
5.138331
 21
1.037672
 31
0.000000
  0
LINE
  8
21
 10
5.138331
 20
1.037672
 30
0.000000
 11
5.144503
 21
1.031500
 31
0.000000
  0
LINE
  8
21
 10
5.144503
 20
1.031500
 30
0.000000
 11
5.156847
 21
1.031500
 31
0.000000
  0
LINE
  8
21
 10
5.156847
 20
1.031500
 30
0.000000
 11
5.163019
 21
1.037672
 31
0.000000
  0
LINE
  8
21
 10
5.163019
 20
1.037672
 30
0.000000
 11
5.163019
 21
1.043844
 31
0.000000
  0
LINE
  8
21
 10
5.163019
 20
1.043844
 30
0.000000
 11
5.156847
 21
1.050016
 31
0.000000
  0
LINE
  8
21
 10
5.156847
 20
1.050016
 30
0.000000
 11
5.138331
 21
1.050016
 31
0.000000
  0
LINE
  8
21
 10
5.126188
 20
0.968532
 30
0.000000
 11
5.101500
 21
0.968532
 31
0.000000
  0
LINE
  8
21
 10
5.101500
 20
0.968532
 30
0.000000
 11
5.101500
 21
0.931500
 31
0.000000
  0
LINE
  8
21
 10
5.101500
 20
0.931500
 30
0.000000
 11
5.126188
 21
0.931500
 31
0.000000
  0
LINE
  8
21
 10
5.101500
 20
0.950016
 30
0.000000
 11
5.113844
 21
0.950016
 31
0.000000
  0
LINE
  8
21
 10
5.163019
 20
0.968532
 30
0.000000
 11
5.138331
 21
0.968532
 31
0.000000
  0
LINE
  8
21
 10
5.138331
 20
0.968532
 30
0.000000
 11
5.138331
 21
0.950016
 31
0.000000
  0
LINE
  8
21
 10
5.138331
 20
0.950016
 30
0.000000
 11
5.150675
 21
0.956188
 31
0.000000
  0
LINE
  8
21
 10
5.150675
 20
0.956188
 30
0.000000
 11
5.156847
 21
0.956188
 31
0.000000
  0
LINE
  8
21
 10
5.156847
 20
0.956188
 30
0.000000
 11
5.163019
 21
0.950016
 31
0.000000
  0
LINE
  8
21
 10
5.163019
 20
0.950016
 30
0.000000
 11
5.163019
 21
0.937672
 31
0.000000
  0
LINE
  8
21
 10
5.163019
 20
0.937672
 30
0.000000
 11
5.156847
 21
0.931500
 31
0.000000
  0
LINE
  8
21
 10
5.156847
 20
0.931500
 30
0.000000
 11
5.144503
 21
0.931500
 31
0.000000
  0
LINE
  8
21
 10
5.144503
 20
0.931500
 30
0.000000
 11
5.138331
 21
0.937672
 31
0.000000
  0
LINE
  8
21
 10
5.126188
 20
0.868532
 30
0.000000
 11
5.101500
 21
0.868532
 31
0.000000
  0
LINE
  8
21
 10
5.101500
 20
0.868532
 30
0.000000
 11
5.101500
 21
0.831500
 31
0.000000
  0
LINE
  8
21
 10
5.101500
 20
0.831500
 30
0.000000
 11
5.126188
 21
0.831500
 31
0.000000
  0
LINE
  8
21
 10
5.101500
 20
0.850016
 30
0.000000
 11
5.113844
 21
0.850016
 31
0.000000
  0
LINE
  8
21
 10
5.138331
 20
0.856188
 30
0.000000
 11
5.150675
 21
0.868532
 31
0.000000
  0
LINE
  8
21
 10
5.150675
 20
0.868532
 30
0.000000
 11
5.150675
 21
0.831500
 31
0.000000
  0
LINE
  8
21
 10
5.138331
 20
0.831500
 30
0.000000
 11
5.163019
 21
0.831500
 31
0.000000
  0
LINE
  8
21
 10
5.175163
 20
0.837672
 30
0.000000
 11
5.175163
 21
0.862360
 31
0.000000
  0
LINE
  8
21
 10
5.175163
 20
0.862360
 30
0.000000
 11
5.181335
 21
0.868532
 31
0.000000
  0
LINE
  8
21
 10
5.181335
 20
0.868532
 30
0.000000
 11
5.193679
 21
0.868532
 31
0.000000
  0
LINE
  8
21
 10
5.193679
 20
0.868532
 30
0.000000
 11
5.199851
 21
0.862360
 31
0.000000
  0
LINE
  8
21
 10
5.199851
 20
0.862360
 30
0.000000
 11
5.199851
 21
0.837672
 31
0.000000
  0
LINE
  8
21
 10
5.199851
 20
0.837672
 30
0.000000
 11
5.193679
 21
0.831500
 31
0.000000
  0
LINE
  8
21
 10
5.193679
 20
0.831500
 30
0.000000
 11
5.181335
 21
0.831500
 31
0.000000
  0
LINE
  8
21
 10
5.181335
 20
0.831500
 30
0.000000
 11
5.175163
 21
0.837672
 31
0.000000
  0
LINE
  8
21
 10
5.175163
 20
0.837672
 30
0.000000
 11
5.199851
 21
0.862360
 31
0.000000
  0
LINE
  8
21
 10
4.715693
 20
1.262360
 30
0.000000
 11
4.709521
 21
1.268532
 31
0.000000
  0
LINE
  8
21
 10
4.709521
 20
1.268532
 30
0.000000
 11
4.697178
 21
1.268532
 31
0.000000
  0
LINE
  8
21
 10
4.697178
 20
1.268532
 30
0.000000
 11
4.691006
 21
1.262360
 31
0.000000
  0
LINE
  8
21
 10
4.691006
 20
1.262360
 30
0.000000
 11
4.691006
 21
1.256188
 31
0.000000
  0
LINE
  8
21
 10
4.691006
 20
1.256188
 30
0.000000
 11
4.697178
 21
1.250016
 31
0.000000
  0
LINE
  8
21
 10
4.697178
 20
1.250016
 30
0.000000
 11
4.709521
 21
1.250016
 31
0.000000
  0
LINE
  8
21
 10
4.709521
 20
1.250016
 30
0.000000
 11
4.715693
 21
1.243844
 31
0.000000
  0
LINE
  8
21
 10
4.715693
 20
1.243844
 30
0.000000
 11
4.715693
 21
1.237672
 31
0.000000
  0
LINE
  8
21
 10
4.715693
 20
1.237672
 30
0.000000
 11
4.709521
 21
1.231500
 31
0.000000
  0
LINE
  8
21
 10
4.709521
 20
1.231500
 30
0.000000
 11
4.697178
 21
1.231500
 31
0.000000
  0
LINE
  8
21
 10
4.697178
 20
1.231500
 30
0.000000
 11
4.691006
 21
1.237672
 31
0.000000
  0
LINE
  8
21
 10
4.727837
 20
1.268532
 30
0.000000
 11
4.727837
 21
1.231500
 31
0.000000
  0
LINE
  8
21
 10
4.727837
 20
1.231500
 30
0.000000
 11
4.746353
 21
1.231500
 31
0.000000
  0
LINE
  8
21
 10
4.746353
 20
1.231500
 30
0.000000
 11
4.752525
 21
1.237672
 31
0.000000
  0
LINE
  8
21
 10
4.752525
 20
1.237672
 30
0.000000
 11
4.752525
 21
1.262360
 31
0.000000
  0
LINE
  8
21
 10
4.752525
 20
1.262360
 30
0.000000
 11
4.746353
 21
1.268532
 31
0.000000
  0
LINE
  8
21
 10
4.746353
 20
1.268532
 30
0.000000
 11
4.727837
 21
1.268532
 31
0.000000
  0
LINE
  8
21
 10
4.764669
 20
1.231500
 30
0.000000
 11
4.764669
 21
1.256188
 31
0.000000
  0
LINE
  8
21
 10
4.764669
 20
1.256188
 30
0.000000
 11
4.777012
 21
1.268532
 31
0.000000
  0
LINE
  8
21
 10
4.777012
 20
1.268532
 30
0.000000
 11
4.789356
 21
1.256188
 31
0.000000
  0
LINE
  8
21
 10
4.789356
 20
1.256188
 30
0.000000
 11
4.789356
 21
1.231500
 31
0.000000
  0
LINE
  8
21
 10
4.764669
 20
1.250016
 30
0.000000
 11
4.789356
 21
1.250016
 31
0.000000
  0
LINE
  8
21
 10
4.715693
 20
1.162360
 30
0.000000
 11
4.709521
 21
1.168532
 31
0.000000
  0
LINE
  8
21
 10
4.709521
 20
1.168532
 30
0.000000
 11
4.697178
 21
1.168532
 31
0.000000
  0
LINE
  8
21
 10
4.697178
 20
1.168532
 30
0.000000
 11
4.691006
 21
1.162360
 31
0.000000
  0
LINE
  8
21
 10
4.691006
 20
1.162360
 30
0.000000
 11
4.691006
 21
1.156188
 31
0.000000
  0
LINE
  8
21
 10
4.691006
 20
1.156188
 30
0.000000
 11
4.697178
 21
1.150016
 31
0.000000
  0
LINE
  8
21
 10
4.697178
 20
1.150016
 30
0.000000
 11
4.709521
 21
1.150016
 31
0.000000
  0
LINE
  8
21
 10
4.709521
 20
1.150016
 30
0.000000
 11
4.715693
 21
1.143844
 31
0.000000
  0
LINE
  8
21
 10
4.715693
 20
1.143844
 30
0.000000
 11
4.715693
 21
1.137672
 31
0.000000
  0
LINE
  8
21
 10
4.715693
 20
1.137672
 30
0.000000
 11
4.709521
 21
1.131500
 31
0.000000
  0
LINE
  8
21
 10
4.709521
 20
1.131500
 30
0.000000
 11
4.697178
 21
1.131500
 31
0.000000
  0
LINE
  8
21
 10
4.697178
 20
1.131500
 30
0.000000
 11
4.691006
 21
1.137672
 31
0.000000
  0
LINE
  8
21
 10
4.752525
 20
1.162360
 30
0.000000
 11
4.746353
 21
1.168532
 31
0.000000
  0
LINE
  8
21
 10
4.746353
 20
1.168532
 30
0.000000
 11
4.734009
 21
1.168532
 31
0.000000
  0
LINE
  8
21
 10
4.734009
 20
1.168532
 30
0.000000
 11
4.727837
 21
1.162360
 31
0.000000
  0
LINE
  8
21
 10
4.727837
 20
1.162360
 30
0.000000
 11
4.727837
 21
1.137672
 31
0.000000
  0
LINE
  8
21
 10
4.727837
 20
1.137672
 30
0.000000
 11
4.734009
 21
1.131500
 31
0.000000
  0
LINE
  8
21
 10
4.734009
 20
1.131500
 30
0.000000
 11
4.746353
 21
1.131500
 31
0.000000
  0
LINE
  8
21
 10
4.746353
 20
1.131500
 30
0.000000
 11
4.752525
 21
1.137672
 31
0.000000
  0
LINE
  8
21
 10
4.764669
 20
1.168532
 30
0.000000
 11
4.764669
 21
1.131500
 31
0.000000
  0
LINE
  8
21
 10
4.764669
 20
1.131500
 30
0.000000
 11
4.789356
 21
1.131500
 31
0.000000
  0
LINE
  8
21
 10
4.715693
 20
0.962360
 30
0.000000
 11
4.709521
 21
0.968532
 31
0.000000
  0
LINE
  8
21
 10
4.709521
 20
0.968532
 30
0.000000
 11
4.697178
 21
0.968532
 31
0.000000
  0
LINE
  8
21
 10
4.697178
 20
0.968532
 30
0.000000
 11
4.691006
 21
0.962360
 31
0.000000
  0
LINE
  8
21
 10
4.691006
 20
0.962360
 30
0.000000
 11
4.691006
 21
0.937672
 31
0.000000
  0
LINE
  8
21
 10
4.691006
 20
0.937672
 30
0.000000
 11
4.697178
 21
0.931500
 31
0.000000
  0
LINE
  8
21
 10
4.697178
 20
0.931500
 30
0.000000
 11
4.709521
 21
0.931500
 31
0.000000
  0
LINE
  8
21
 10
4.709521
 20
0.931500
 30
0.000000
 11
4.715693
 21
0.937672
 31
0.000000
  0
LINE
  8
21
 10
4.715693
 20
0.937672
 30
0.000000
 11
4.715693
 21
0.950016
 31
0.000000
  0
LINE
  8
21
 10
4.715693
 20
0.950016
 30
0.000000
 11
4.703350
 21
0.950016
 31
0.000000
  0
LINE
  8
21
 10
4.727837
 20
0.931500
 30
0.000000
 11
4.727837
 21
0.968532
 31
0.000000
  0
LINE
  8
21
 10
4.727837
 20
0.968532
 30
0.000000
 11
4.752525
 21
0.931500
 31
0.000000
  0
LINE
  8
21
 10
4.752525
 20
0.931500
 30
0.000000
 11
4.752525
 21
0.968532
 31
0.000000
  0
LINE
  8
21
 10
4.764669
 20
0.968532
 30
0.000000
 11
4.764669
 21
0.931500
 31
0.000000
  0
LINE
  8
21
 10
4.764669
 20
0.931500
 30
0.000000
 11
4.783184
 21
0.931500
 31
0.000000
  0
LINE
  8
21
 10
4.783184
 20
0.931500
 30
0.000000
 11
4.789356
 21
0.937672
 31
0.000000
  0
LINE
  8
21
 10
4.789356
 20
0.937672
 30
0.000000
 11
4.789356
 21
0.962360
 31
0.000000
  0
LINE
  8
21
 10
4.789356
 20
0.962360
 30
0.000000
 11
4.783184
 21
0.968532
 31
0.000000
  0
LINE
  8
21
 10
4.783184
 20
0.968532
 30
0.000000
 11
4.764669
 21
0.968532
 31
0.000000
  0
LINE
  8
21
 10
4.691006
 20
0.868532
 30
0.000000
 11
4.691006
 21
0.843844
 31
0.000000
  0
LINE
  8
21
 10
4.691006
 20
0.843844
 30
0.000000
 11
4.703350
 21
0.831500
 31
0.000000
  0
LINE
  8
21
 10
4.703350
 20
0.831500
 30
0.000000
 11
4.715693
 21
0.843844
 31
0.000000
  0
LINE
  8
21
 10
4.715693
 20
0.843844
 30
0.000000
 11
4.715693
 21
0.868532
 31
0.000000
  0
LINE
  8
21
 10
4.752525
 20
0.862360
 30
0.000000
 11
4.746353
 21
0.868532
 31
0.000000
  0
LINE
  8
21
 10
4.746353
 20
0.868532
 30
0.000000
 11
4.734009
 21
0.868532
 31
0.000000
  0
LINE
  8
21
 10
4.734009
 20
0.868532
 30
0.000000
 11
4.727837
 21
0.862360
 31
0.000000
  0
LINE
  8
21
 10
4.727837
 20
0.862360
 30
0.000000
 11
4.727837
 21
0.837672
 31
0.000000
  0
LINE
  8
21
 10
4.727837
 20
0.837672
 30
0.000000
 11
4.734009
 21
0.831500
 31
0.000000
  0
LINE
  8
21
 10
4.734009
 20
0.831500
 30
0.000000
 11
4.746353
 21
0.831500
 31
0.000000
  0
LINE
  8
21
 10
4.746353
 20
0.831500
 30
0.000000
 11
4.752525
 21
0.837672
 31
0.000000
  0
LINE
  8
21
 10
4.789356
 20
0.862360
 30
0.000000
 11
4.783184
 21
0.868532
 31
0.000000
  0
LINE
  8
21
 10
4.783184
 20
0.868532
 30
0.000000
 11
4.770840
 21
0.868532
 31
0.000000
  0
LINE
  8
21
 10
4.770840
 20
0.868532
 30
0.000000
 11
4.764669
 21
0.862360
 31
0.000000
  0
LINE
  8
21
 10
4.764669
 20
0.862360
 30
0.000000
 11
4.764669
 21
0.837672
 31
0.000000
  0
LINE
  8
21
 10
4.764669
 20
0.837672
 30
0.000000
 11
4.770840
 21
0.831500
 31
0.000000
  0
LINE
  8
21
 10
4.770840
 20
0.831500
 30
0.000000
 11
4.783184
 21
0.831500
 31
0.000000
  0
LINE
  8
21
 10
4.783184
 20
0.831500
 30
0.000000
 11
4.789356
 21
0.837672
 31
0.000000
  0
LINE
  8
21
 10
2.101500
 20
1.231500
 30
0.000000
 11
2.101500
 21
1.268532
 31
0.000000
  0
LINE
  8
21
 10
2.101500
 20
1.268532
 30
0.000000
 11
2.126188
 21
1.231500
 31
0.000000
  0
LINE
  8
21
 10
2.126188
 20
1.231500
 30
0.000000
 11
2.126188
 21
1.268532
 31
0.000000
  0
LINE
  8
21
 10
2.163019
 20
1.262360
 30
0.000000
 11
2.156847
 21
1.268532
 31
0.000000
  0
LINE
  8
21
 10
2.156847
 20
1.268532
 30
0.000000
 11
2.144503
 21
1.268532
 31
0.000000
  0
LINE
  8
21
 10
2.144503
 20
1.268532
 30
0.000000
 11
2.138331
 21
1.262360
 31
0.000000
  0
LINE
  8
21
 10
2.138331
 20
1.262360
 30
0.000000
 11
2.138331
 21
1.237672
 31
0.000000
  0
LINE
  8
21
 10
2.138331
 20
1.237672
 30
0.000000
 11
2.144503
 21
1.231500
 31
0.000000
  0
LINE
  8
21
 10
2.144503
 20
1.231500
 30
0.000000
 11
2.156847
 21
1.231500
 31
0.000000
  0
LINE
  8
21
 10
2.156847
 20
1.231500
 30
0.000000
 11
2.163019
 21
1.237672
 31
0.000000
  0
LINE
  8
21
 10
4.727837
 20
1.031500
 30
0.000000
 11
4.727837
 21
1.068532
 31
0.000000
  0
LINE
  8
21
 10
4.727837
 20
1.068532
 30
0.000000
 11
4.752525
 21
1.031500
 31
0.000000
  0
LINE
  8
21
 10
4.752525
 20
1.031500
 30
0.000000
 11
4.752525
 21
1.068532
 31
0.000000
  0
LINE
  8
21
 10
4.789356
 20
1.062360
 30
0.000000
 11
4.783184
 21
1.068532
 31
0.000000
  0
LINE
  8
21
 10
4.783184
 20
1.068532
 30
0.000000
 11
4.770840
 21
1.068532
 31
0.000000
  0
LINE
  8
21
 10
4.770840
 20
1.068532
 30
0.000000
 11
4.764669
 21
1.062360
 31
0.000000
  0
LINE
  8
21
 10
4.764669
 20
1.062360
 30
0.000000
 11
4.764669
 21
1.037672
 31
0.000000
  0
LINE
  8
21
 10
4.764669
 20
1.037672
 30
0.000000
 11
4.770840
 21
1.031500
 31
0.000000
  0
LINE
  8
21
 10
4.770840
 20
1.031500
 30
0.000000
 11
4.783184
 21
1.031500
 31
0.000000
  0
LINE
  8
21
 10
4.783184
 20
1.031500
 30
0.000000
 11
4.789356
 21
1.037672
 31
0.000000
  0
TEXT
  7
ISOCP
  8
22
 10
5.300000
 20
1.800000
 30
0.000000
 40
0.070000
  1
NavCom Radio v2.2 - Board 3
 71
2
  0
LINE
  8
22
 10
0.812360
 20
1.776188
 30
0.000000
 11
0.818532
 21
1.770016
 31
0.000000
  0
LINE
  8
22
 10
0.818532
 20
1.770016
 30
0.000000
 11
0.818532
 21
1.757672
 31
0.000000
  0
LINE
  8
22
 10
0.818532
 20
1.757672
 30
0.000000
 11
0.812360
 21
1.751500
 31
0.000000
  0
LINE
  8
22
 10
0.812360
 20
1.751500
 30
0.000000
 11
0.806188
 21
1.751500
 31
0.000000
  0
LINE
  8
22
 10
0.806188
 20
1.751500
 30
0.000000
 11
0.800016
 21
1.757672
 31
0.000000
  0
LINE
  8
22
 10
0.800016
 20
1.757672
 30
0.000000
 11
0.800016
 21
1.770016
 31
0.000000
  0
LINE
  8
22
 10
0.800016
 20
1.770016
 30
0.000000
 11
0.793844
 21
1.776188
 31
0.000000
  0
LINE
  8
22
 10
0.793844
 20
1.776188
 30
0.000000
 11
0.787672
 21
1.776188
 31
0.000000
  0
LINE
  8
22
 10
0.787672
 20
1.776188
 30
0.000000
 11
0.781500
 21
1.770016
 31
0.000000
  0
LINE
  8
22
 10
0.781500
 20
1.770016
 30
0.000000
 11
0.781500
 21
1.757672
 31
0.000000
  0
LINE
  8
22
 10
0.781500
 20
1.757672
 30
0.000000
 11
0.787672
 21
1.751500
 31
0.000000
  0
LINE
  8
22
 10
0.818532
 20
1.788331
 30
0.000000
 11
0.781500
 21
1.788331
 31
0.000000
  0
LINE
  8
22
 10
0.781500
 20
1.788331
 30
0.000000
 11
0.781500
 21
1.806847
 31
0.000000
  0
LINE
  8
22
 10
0.781500
 20
1.806847
 30
0.000000
 11
0.787672
 21
1.813019
 31
0.000000
  0
LINE
  8
22
 10
0.787672
 20
1.813019
 30
0.000000
 11
0.812360
 21
1.813019
 31
0.000000
  0
LINE
  8
22
 10
0.812360
 20
1.813019
 30
0.000000
 11
0.818532
 21
1.806847
 31
0.000000
  0
LINE
  8
22
 10
0.818532
 20
1.806847
 30
0.000000
 11
0.818532
 21
1.788331
 31
0.000000
  0
LINE
  8
22
 10
0.781500
 20
1.825163
 30
0.000000
 11
0.806188
 21
1.825163
 31
0.000000
  0
LINE
  8
22
 10
0.806188
 20
1.825163
 30
0.000000
 11
0.818532
 21
1.837507
 31
0.000000
  0
LINE
  8
22
 10
0.818532
 20
1.837507
 30
0.000000
 11
0.806188
 21
1.849851
 31
0.000000
  0
LINE
  8
22
 10
0.806188
 20
1.849851
 30
0.000000
 11
0.781500
 21
1.849851
 31
0.000000
  0
LINE
  8
22
 10
0.800016
 20
1.825163
 30
0.000000
 11
0.800016
 21
1.849851
 31
0.000000
  0
LINE
  8
22
 10
0.712360
 20
1.776188
 30
0.000000
 11
0.718532
 21
1.770016
 31
0.000000
  0
LINE
  8
22
 10
0.718532
 20
1.770016
 30
0.000000
 11
0.718532
 21
1.757672
 31
0.000000
  0
LINE
  8
22
 10
0.718532
 20
1.757672
 30
0.000000
 11
0.712360
 21
1.751500
 31
0.000000
  0
LINE
  8
22
 10
0.712360
 20
1.751500
 30
0.000000
 11
0.706188
 21
1.751500
 31
0.000000
  0
LINE
  8
22
 10
0.706188
 20
1.751500
 30
0.000000
 11
0.700016
 21
1.757672
 31
0.000000
  0
LINE
  8
22
 10
0.700016
 20
1.757672
 30
0.000000
 11
0.700016
 21
1.770016
 31
0.000000
  0
LINE
  8
22
 10
0.700016
 20
1.770016
 30
0.000000
 11
0.693844
 21
1.776188
 31
0.000000
  0
LINE
  8
22
 10
0.693844
 20
1.776188
 30
0.000000
 11
0.687672
 21
1.776188
 31
0.000000
  0
LINE
  8
22
 10
0.687672
 20
1.776188
 30
0.000000
 11
0.681500
 21
1.770016
 31
0.000000
  0
LINE
  8
22
 10
0.681500
 20
1.770016
 30
0.000000
 11
0.681500
 21
1.757672
 31
0.000000
  0
LINE
  8
22
 10
0.681500
 20
1.757672
 30
0.000000
 11
0.687672
 21
1.751500
 31
0.000000
  0
LINE
  8
22
 10
0.712360
 20
1.813019
 30
0.000000
 11
0.718532
 21
1.806847
 31
0.000000
  0
LINE
  8
22
 10
0.718532
 20
1.806847
 30
0.000000
 11
0.718532
 21
1.794503
 31
0.000000
  0
LINE
  8
22
 10
0.718532
 20
1.794503
 30
0.000000
 11
0.712360
 21
1.788331
 31
0.000000
  0
LINE
  8
22
 10
0.712360
 20
1.788331
 30
0.000000
 11
0.687672
 21
1.788331
 31
0.000000
  0
LINE
  8
22
 10
0.687672
 20
1.788331
 30
0.000000
 11
0.681500
 21
1.794503
 31
0.000000
  0
LINE
  8
22
 10
0.681500
 20
1.794503
 30
0.000000
 11
0.681500
 21
1.806847
 31
0.000000
  0
LINE
  8
22
 10
0.681500
 20
1.806847
 30
0.000000
 11
0.687672
 21
1.813019
 31
0.000000
  0
LINE
  8
22
 10
0.718532
 20
1.825163
 30
0.000000
 11
0.681500
 21
1.825163
 31
0.000000
  0
LINE
  8
22
 10
0.681500
 20
1.825163
 30
0.000000
 11
0.681500
 21
1.849851
 31
0.000000
  0
LINE
  8
22
 10
0.518532
 20
1.751500
 30
0.000000
 11
0.493844
 21
1.751500
 31
0.000000
  0
LINE
  8
22
 10
0.493844
 20
1.751500
 30
0.000000
 11
0.481500
 21
1.763844
 31
0.000000
  0
LINE
  8
22
 10
0.481500
 20
1.763844
 30
0.000000
 11
0.493844
 21
1.776188
 31
0.000000
  0
LINE
  8
22
 10
0.493844
 20
1.776188
 30
0.000000
 11
0.518532
 21
1.776188
 31
0.000000
  0
LINE
  8
22
 10
0.512360
 20
1.813019
 30
0.000000
 11
0.518532
 21
1.806847
 31
0.000000
  0
LINE
  8
22
 10
0.518532
 20
1.806847
 30
0.000000
 11
0.518532
 21
1.794503
 31
0.000000
  0
LINE
  8
22
 10
0.518532
 20
1.794503
 30
0.000000
 11
0.512360
 21
1.788331
 31
0.000000
  0
LINE
  8
22
 10
0.512360
 20
1.788331
 30
0.000000
 11
0.487672
 21
1.788331
 31
0.000000
  0
LINE
  8
22
 10
0.487672
 20
1.788331
 30
0.000000
 11
0.481500
 21
1.794503
 31
0.000000
  0
LINE
  8
22
 10
0.481500
 20
1.794503
 30
0.000000
 11
0.481500
 21
1.806847
 31
0.000000
  0
LINE
  8
22
 10
0.481500
 20
1.806847
 30
0.000000
 11
0.487672
 21
1.813019
 31
0.000000
  0
LINE
  8
22
 10
0.512360
 20
1.849851
 30
0.000000
 11
0.518532
 21
1.843679
 31
0.000000
  0
LINE
  8
22
 10
0.518532
 20
1.843679
 30
0.000000
 11
0.518532
 21
1.831335
 31
0.000000
  0
LINE
  8
22
 10
0.518532
 20
1.831335
 30
0.000000
 11
0.512360
 21
1.825163
 31
0.000000
  0
LINE
  8
22
 10
0.512360
 20
1.825163
 30
0.000000
 11
0.487672
 21
1.825163
 31
0.000000
  0
LINE
  8
22
 10
0.487672
 20
1.825163
 30
0.000000
 11
0.481500
 21
1.831335
 31
0.000000
  0
LINE
  8
22
 10
0.481500
 20
1.831335
 30
0.000000
 11
0.481500
 21
1.843679
 31
0.000000
  0
LINE
  8
22
 10
0.481500
 20
1.843679
 30
0.000000
 11
0.487672
 21
1.849851
 31
0.000000
  0
LINE
  8
22
 10
0.412360
 20
1.776188
 30
0.000000
 11
0.418532
 21
1.770016
 31
0.000000
  0
LINE
  8
22
 10
0.418532
 20
1.770016
 30
0.000000
 11
0.418532
 21
1.757672
 31
0.000000
  0
LINE
  8
22
 10
0.418532
 20
1.757672
 30
0.000000
 11
0.412360
 21
1.751500
 31
0.000000
  0
LINE
  8
22
 10
0.412360
 20
1.751500
 30
0.000000
 11
0.387672
 21
1.751500
 31
0.000000
  0
LINE
  8
22
 10
0.387672
 20
1.751500
 30
0.000000
 11
0.381500
 21
1.757672
 31
0.000000
  0
LINE
  8
22
 10
0.381500
 20
1.757672
 30
0.000000
 11
0.381500
 21
1.770016
 31
0.000000
  0
LINE
  8
22
 10
0.381500
 20
1.770016
 30
0.000000
 11
0.387672
 21
1.776188
 31
0.000000
  0
LINE
  8
22
 10
0.387672
 20
1.776188
 30
0.000000
 11
0.400016
 21
1.776188
 31
0.000000
  0
LINE
  8
22
 10
0.400016
 20
1.776188
 30
0.000000
 11
0.400016
 21
1.763844
 31
0.000000
  0
LINE
  8
22
 10
0.381500
 20
1.788331
 30
0.000000
 11
0.418532
 21
1.788331
 31
0.000000
  0
LINE
  8
22
 10
0.418532
 20
1.788331
 30
0.000000
 11
0.381500
 21
1.813019
 31
0.000000
  0
LINE
  8
22
 10
0.381500
 20
1.813019
 30
0.000000
 11
0.418532
 21
1.813019
 31
0.000000
  0
LINE
  8
22
 10
0.418532
 20
1.825163
 30
0.000000
 11
0.381500
 21
1.825163
 31
0.000000
  0
LINE
  8
22
 10
0.381500
 20
1.825163
 30
0.000000
 11
0.381500
 21
1.843679
 31
0.000000
  0
LINE
  8
22
 10
0.381500
 20
1.843679
 30
0.000000
 11
0.387672
 21
1.849851
 31
0.000000
  0
LINE
  8
22
 10
0.387672
 20
1.849851
 30
0.000000
 11
0.412360
 21
1.849851
 31
0.000000
  0
LINE
  8
22
 10
0.412360
 20
1.849851
 30
0.000000
 11
0.418532
 21
1.843679
 31
0.000000
  0
LINE
  8
22
 10
0.418532
 20
1.843679
 30
0.000000
 11
0.418532
 21
1.825163
 31
0.000000
  0
LINE
  8
22
 10
0.481500
 20
1.253283
 30
0.000000
 11
0.481500
 21
1.265627
 31
0.000000
  0
LINE
  8
22
 10
0.481500
 20
1.259455
 30
0.000000
 11
0.518532
 21
1.259455
 31
0.000000
  0
LINE
  8
22
 10
0.518532
 20
1.253283
 30
0.000000
 11
0.518532
 21
1.265627
 31
0.000000
  0
LINE
  8
22
 10
0.481500
 20
1.277837
 30
0.000000
 11
0.518532
 21
1.277837
 31
0.000000
  0
LINE
  8
22
 10
0.518532
 20
1.277837
 30
0.000000
 11
0.481500
 21
1.302525
 31
0.000000
  0
LINE
  8
22
 10
0.481500
 20
1.302525
 30
0.000000
 11
0.518532
 21
1.302525
 31
0.000000
  0
LINE
  8
22
 10
0.481500
 20
1.327012
 30
0.000000
 11
0.518532
 21
1.327012
 31
0.000000
  0
LINE
  8
22
 10
0.518532
 20
1.314668
 30
0.000000
 11
0.518532
 21
1.339356
 31
0.000000
  0
TEXT
  7
ISOCP
  8
22
 10
0.400000
 20
1.350000
 30
0.000000
 40
0.040000
  1
LATCH RESET
 50
270.000000
 71
2
 72
2
 73
3
 11
0.400000
 21
1.350000
 31
0.000000
  0
LINE
  8
22
 10
0.581500
 20
1.751500
 30
0.000000
 11
0.618532
 21
1.751500
 31
0.000000
  0
LINE
  8
22
 10
0.618532
 20
1.751500
 30
0.000000
 11
0.581500
 21
1.776188
 31
0.000000
  0
LINE
  8
22
 10
0.581500
 20
1.776188
 30
0.000000
 11
0.618532
 21
1.776188
 31
0.000000
  0
LINE
  8
22
 10
0.612360
 20
1.813019
 30
0.000000
 11
0.618532
 21
1.806847
 31
0.000000
  0
LINE
  8
22
 10
0.618532
 20
1.806847
 30
0.000000
 11
0.618532
 21
1.794503
 31
0.000000
  0
LINE
  8
22
 10
0.618532
 20
1.794503
 30
0.000000
 11
0.612360
 21
1.788331
 31
0.000000
  0
LINE
  8
22
 10
0.612360
 20
1.788331
 30
0.000000
 11
0.587672
 21
1.788331
 31
0.000000
  0
LINE
  8
22
 10
0.587672
 20
1.788331
 30
0.000000
 11
0.581500
 21
1.794503
 31
0.000000
  0
LINE
  8
22
 10
0.581500
 20
1.794503
 30
0.000000
 11
0.581500
 21
1.806847
 31
0.000000
  0
LINE
  8
22
 10
0.581500
 20
1.806847
 30
0.000000
 11
0.587672
 21
1.813019
 31
0.000000
  0
LINE
  8
22
 10
0.581500
 20
1.277837
 30
0.000000
 11
0.618532
 21
1.277837
 31
0.000000
  0
LINE
  8
22
 10
0.618532
 20
1.277837
 30
0.000000
 11
0.581500
 21
1.302525
 31
0.000000
  0
LINE
  8
22
 10
0.581500
 20
1.302525
 30
0.000000
 11
0.618532
 21
1.302525
 31
0.000000
  0
LINE
  8
22
 10
0.612360
 20
1.339356
 30
0.000000
 11
0.618532
 21
1.333184
 31
0.000000
  0
LINE
  8
22
 10
0.618532
 20
1.333184
 30
0.000000
 11
0.618532
 21
1.320840
 31
0.000000
  0
LINE
  8
22
 10
0.618532
 20
1.320840
 30
0.000000
 11
0.612360
 21
1.314669
 31
0.000000
  0
LINE
  8
22
 10
0.612360
 20
1.314669
 30
0.000000
 11
0.587672
 21
1.314669
 31
0.000000
  0
LINE
  8
22
 10
0.587672
 20
1.314669
 30
0.000000
 11
0.581500
 21
1.320840
 31
0.000000
  0
LINE
  8
22
 10
0.581500
 20
1.320840
 30
0.000000
 11
0.581500
 21
1.333184
 31
0.000000
  0
LINE
  8
22
 10
0.581500
 20
1.333184
 30
0.000000
 11
0.587672
 21
1.339356
 31
0.000000
  0
LINE
  8
22
 10
0.681500
 20
1.277837
 30
0.000000
 11
0.718532
 21
1.277837
 31
0.000000
  0
LINE
  8
22
 10
0.718532
 20
1.277837
 30
0.000000
 11
0.681500
 21
1.302525
 31
0.000000
  0
LINE
  8
22
 10
0.681500
 20
1.302525
 30
0.000000
 11
0.718532
 21
1.302525
 31
0.000000
  0
LINE
  8
22
 10
0.712360
 20
1.339356
 30
0.000000
 11
0.718532
 21
1.333184
 31
0.000000
  0
LINE
  8
22
 10
0.718532
 20
1.333184
 30
0.000000
 11
0.718532
 21
1.320840
 31
0.000000
  0
LINE
  8
22
 10
0.718532
 20
1.320840
 30
0.000000
 11
0.712360
 21
1.314669
 31
0.000000
  0
LINE
  8
22
 10
0.712360
 20
1.314669
 30
0.000000
 11
0.687672
 21
1.314669
 31
0.000000
  0
LINE
  8
22
 10
0.687672
 20
1.314669
 30
0.000000
 11
0.681500
 21
1.320840
 31
0.000000
  0
LINE
  8
22
 10
0.681500
 20
1.320840
 30
0.000000
 11
0.681500
 21
1.333184
 31
0.000000
  0
LINE
  8
22
 10
0.681500
 20
1.333184
 30
0.000000
 11
0.687672
 21
1.339356
 31
0.000000
  0
LINE
  8
22
 10
0.781500
 20
1.277837
 30
0.000000
 11
0.818532
 21
1.277837
 31
0.000000
  0
LINE
  8
22
 10
0.818532
 20
1.277837
 30
0.000000
 11
0.781500
 21
1.302525
 31
0.000000
  0
LINE
  8
22
 10
0.781500
 20
1.302525
 30
0.000000
 11
0.818532
 21
1.302525
 31
0.000000
  0
LINE
  8
22
 10
0.812360
 20
1.339356
 30
0.000000
 11
0.818532
 21
1.333184
 31
0.000000
  0
LINE
  8
22
 10
0.818532
 20
1.333184
 30
0.000000
 11
0.818532
 21
1.320840
 31
0.000000
  0
LINE
  8
22
 10
0.818532
 20
1.320840
 30
0.000000
 11
0.812360
 21
1.314669
 31
0.000000
  0
LINE
  8
22
 10
0.812360
 20
1.314669
 30
0.000000
 11
0.787672
 21
1.314669
 31
0.000000
  0
LINE
  8
22
 10
0.787672
 20
1.314669
 30
0.000000
 11
0.781500
 21
1.320840
 31
0.000000
  0
LINE
  8
22
 10
0.781500
 20
1.320840
 30
0.000000
 11
0.781500
 21
1.333184
 31
0.000000
  0
LINE
  8
22
 10
0.781500
 20
1.333184
 30
0.000000
 11
0.787672
 21
1.339356
 31
0.000000
  0
POINT
  8
24
 10
3.500000
 20
0.400000
 30
0.000000
  0
ARC
  8
22
 10
3.500000
 20
0.503937
 30
0.000000
 40
0.146989
 50
225.000000
 51
315.000000
  0
ARC
  8
22
 10
3.500000
 20
0.296063
 30
0.000000
 40
0.146989
 50
45.000000
 51
135.000000
  0
INSERT
  8
17
  2
OFFSETP100
 10
3.600000
 20
0.400000
 30
0.000000
 41
0.050000
 42
0.050000
 43
1.000000
 50
0.000000
  0
INSERT
  8
17
  2
OFFSETP100
 10
3.600000
 20
0.400000
 30
0.000000
 41
0.050000
 42
0.050000
 43
1.000000
 50
0.000000
  0
INSERT
  8
17
  2
OFFSETP100
 10
3.400000
 20
0.400000
 30
0.000000
 41
0.050000
 42
0.050000
 43
1.000000
 50
180.000000
  0
INSERT
  8
17
  2
OFFSETP100
 10
3.400000
 20
0.400000
 30
0.000000
 41
0.050000
 42
0.050000
 43
1.000000
 50
180.000000
  0
TEXT
  7
ISOCP
  8
22
 10
3.600000
 20
0.250000
 30
0.000000
 40
0.050000
  1
33pF
 71
2
  0
POINT
  8
23
 10
4.900000
 20
1.200000
 30
0.000000
  0
LINE
  8
21
 10
4.850000
 20
1.250000
 30
0.000000
 11
5.050000
 21
1.250000
 31
0.000000
  0
LINE
  8
21
 10
5.050000
 20
1.250000
 30
0.000000
 11
5.050000
 21
0.750000
 31
0.000000
  0
LINE
  8
21
 10
5.050000
 20
0.750000
 30
0.000000
 11
4.850000
 21
0.750000
 31
0.000000
  0
LINE
  8
21
 10
4.850000
 20
0.750000
 30
0.000000
 11
4.850000
 21
1.250000
 31
0.000000
  0
INSERT
  8
17
  2
OFFSETP100
 10
4.900000
 20
1.200000
 30
0.000000
 41
0.055000
 42
0.055000
 43
1.000000
 50
180.000000
  0
INSERT
  8
17
  2
OFFSETP100
 10
4.900000
 20
1.200000
 30
0.000000
 41
0.055000
 42
0.055000
 43
1.000000
 50
180.000000
  0
INSERT
  8
17
  2
OFFSETP100
 10
4.900000
 20
1.100000
 30
0.000000
 41
0.055000
 42
0.055000
 43
1.000000
 50
180.000000
  0
INSERT
  8
17
  2
OFFSETP100
 10
4.900000
 20
1.100000
 30
0.000000
 41
0.055000
 42
0.055000
 43
1.000000
 50
180.000000
  0
INSERT
  8
17
  2
OFFSETP100
 10
4.900000
 20
1.000000
 30
0.000000
 41
0.055000
 42
0.055000
 43
1.000000
 50
180.000000
  0
INSERT
  8
17
  2
OFFSETP100
 10
4.900000
 20
1.000000
 30
0.000000
 41
0.055000
 42
0.055000
 43
1.000000
 50
180.000000
  0
INSERT
  8
17
  2
OFFSETP100
 10
4.900000
 20
0.900000
 30
0.000000
 41
0.055000
 42
0.055000
 43
1.000000
 50
180.000000
  0
INSERT
  8
17
  2
OFFSETP100
 10
4.900000
 20
0.900000
 30
0.000000
 41
0.055000
 42
0.055000
 43
1.000000
 50
180.000000
  0
INSERT
  8
17
  2
OFFSETP100
 10
4.900000
 20
0.800000
 30
0.000000
 41
0.055000
 42
0.055000
 43
1.000000
 50
180.000000
  0
INSERT
  8
17
  2
OFFSETP100
 10
4.900000
 20
0.800000
 30
0.000000
 41
0.055000
 42
0.055000
 43
1.000000
 50
180.000000
  0
INSERT
  8
17
  2
OFFSETP100
 10
5.000000
 20
0.800000
 30
0.000000
 41
0.055000
 42
0.055000
 43
1.000000
 50
0.000000
  0
INSERT
  8
17
  2
OFFSETP100
 10
5.000000
 20
0.800000
 30
0.000000
 41
0.055000
 42
0.055000
 43
1.000000
 50
0.000000
  0
INSERT
  8
17
  2
OFFSETP100
 10
5.000000
 20
0.900000
 30
0.000000
 41
0.055000
 42
0.055000
 43
1.000000
 50
0.000000
  0
INSERT
  8
17
  2
OFFSETP100
 10
5.000000
 20
0.900000
 30
0.000000
 41
0.055000
 42
0.055000
 43
1.000000
 50
0.000000
  0
INSERT
  8
17
  2
OFFSETP100
 10
5.000000
 20
1.000000
 30
0.000000
 41
0.055000
 42
0.055000
 43
1.000000
 50
0.000000
  0
INSERT
  8
17
  2
OFFSETP100
 10
5.000000
 20
1.000000
 30
0.000000
 41
0.055000
 42
0.055000
 43
1.000000
 50
0.000000
  0
INSERT
  8
17
  2
OFFSETP100
 10
5.000000
 20
1.100000
 30
0.000000
 41
0.055000
 42
0.055000
 43
1.000000
 50
0.000000
  0
INSERT
  8
17
  2
OFFSETP100
 10
5.000000
 20
1.100000
 30
0.000000
 41
0.055000
 42
0.055000
 43
1.000000
 50
0.000000
  0
INSERT
  8
17
  2
OFFSETP100
 10
5.000000
 20
1.200000
 30
0.000000
 41
0.055000
 42
0.055000
 43
1.000000
 50
0.000000
  0
INSERT
  8
17
  2
OFFSETP100
 10
5.000000
 20
1.200000
 30
0.000000
 41
0.055000
 42
0.055000
 43
1.000000
 50
0.000000
  0
POINT
  8
23
 10
1.900000
 20
1.200000
 30
0.000000
  0
LINE
  8
21
 10
1.850000
 20
1.250000
 30
0.000000
 11
2.050000
 21
1.250000
 31
0.000000
  0
LINE
  8
21
 10
2.050000
 20
1.250000
 30
0.000000
 11
2.050000
 21
0.750000
 31
0.000000
  0
LINE
  8
21
 10
2.050000
 20
0.750000
 30
0.000000
 11
1.850000
 21
0.750000
 31
0.000000
  0
LINE
  8
21
 10
1.850000
 20
0.750000
 30
0.000000
 11
1.850000
 21
1.250000
 31
0.000000
  0
INSERT
  8
17
  2
OFFSETP100
 10
1.900000
 20
1.200000
 30
0.000000
 41
0.055000
 42
0.055000
 43
1.000000
 50
180.000000
  0
INSERT
  8
17
  2
OFFSETP100
 10
1.900000
 20
1.200000
 30
0.000000
 41
0.055000
 42
0.055000
 43
1.000000
 50
180.000000
  0
INSERT
  8
17
  2
OFFSETP100
 10
1.900000
 20
1.100000
 30
0.000000
 41
0.055000
 42
0.055000
 43
1.000000
 50
180.000000
  0
INSERT
  8
17
  2
OFFSETP100
 10
1.900000
 20
1.100000
 30
0.000000
 41
0.055000
 42
0.055000
 43
1.000000
 50
180.000000
  0
INSERT
  8
17
  2
OFFSETP100
 10
1.900000
 20
1.000000
 30
0.000000
 41
0.055000
 42
0.055000
 43
1.000000
 50
180.000000
  0
INSERT
  8
17
  2
OFFSETP100
 10
1.900000
 20
1.000000
 30
0.000000
 41
0.055000
 42
0.055000
 43
1.000000
 50
180.000000
  0
INSERT
  8
17
  2
OFFSETP100
 10
1.900000
 20
0.900000
 30
0.000000
 41
0.055000
 42
0.055000
 43
1.000000
 50
180.000000
  0
INSERT
  8
17
  2
OFFSETP100
 10
1.900000
 20
0.900000
 30
0.000000
 41
0.055000
 42
0.055000
 43
1.000000
 50
180.000000
  0
INSERT
  8
17
  2
OFFSETP100
 10
1.900000
 20
0.800000
 30
0.000000
 41
0.055000
 42
0.055000
 43
1.000000
 50
180.000000
  0
INSERT
  8
17
  2
OFFSETP100
 10
1.900000
 20
0.800000
 30
0.000000
 41
0.055000
 42
0.055000
 43
1.000000
 50
180.000000
  0
INSERT
  8
17
  2
OFFSETP100
 10
2.000000
 20
0.800000
 30
0.000000
 41
0.055000
 42
0.055000
 43
1.000000
 50
0.000000
  0
INSERT
  8
17
  2
OFFSETP100
 10
2.000000
 20
0.800000
 30
0.000000
 41
0.055000
 42
0.055000
 43
1.000000
 50
0.000000
  0
INSERT
  8
17
  2
OFFSETP100
 10
2.000000
 20
0.900000
 30
0.000000
 41
0.055000
 42
0.055000
 43
1.000000
 50
0.000000
  0
INSERT
  8
17
  2
OFFSETP100
 10
2.000000
 20
0.900000
 30
0.000000
 41
0.055000
 42
0.055000
 43
1.000000
 50
0.000000
  0
INSERT
  8
17
  2
OFFSETP100
 10
2.000000
 20
1.000000
 30
0.000000
 41
0.055000
 42
0.055000
 43
1.000000
 50
0.000000
  0
INSERT
  8
17
  2
OFFSETP100
 10
2.000000
 20
1.000000
 30
0.000000
 41
0.055000
 42
0.055000
 43
1.000000
 50
0.000000
  0
INSERT
  8
17
  2
OFFSETP100
 10
2.000000
 20
1.100000
 30
0.000000
 41
0.055000
 42
0.055000
 43
1.000000
 50
0.000000
  0
INSERT
  8
17
  2
OFFSETP100
 10
2.000000
 20
1.100000
 30
0.000000
 41
0.055000
 42
0.055000
 43
1.000000
 50
0.000000
  0
INSERT
  8
17
  2
OFFSETP100
 10
2.000000
 20
1.200000
 30
0.000000
 41
0.055000
 42
0.055000
 43
1.000000
 50
0.000000
  0
INSERT
  8
17
  2
OFFSETP100
 10
2.000000
 20
1.200000
 30
0.000000
 41
0.055000
 42
0.055000
 43
1.000000
 50
0.000000
  0
POINT
  8
24
 10
4.100000
 20
0.600000
 30
0.000000
  0
LINE
  8
22
 10
4.150000
 20
0.550000
 30
0.000000
 11
4.150000
 21
0.700000
 31
0.000000
  0
LINE
  8
22
 10
4.150000
 20
0.800000
 30
0.000000
 11
4.150000
 21
0.950000
 31
0.000000
  0
LINE
  8
22
 10
4.150000
 20
0.950000
 30
0.000000
 11
2.750000
 21
0.950000
 31
0.000000
  0
LINE
  8
22
 10
2.750000
 20
0.550000
 30
0.000000
 11
4.150000
 21
0.550000
 31
0.000000
  0
ARC
  8
22
 10
4.150000
 20
0.750000
 30
0.000000
 40
0.050000
 50
90.000000
 51
270.000000
  0
LINE
  8
22
 10
2.750000
 20
0.550000
 30
0.000000
 11
2.750000
 21
0.950000
 31
0.000000
  0
TEXT
  7
ISOCP
  8
22
 10
3.317323
 20
0.776378
 30
0.000000
 40
0.050000
  1
MCP23016
 71
2
 72
2
 73
3
 11
3.317323
 21
0.776378
 31
0.000000
  0
INSERT
  8
17
  2
OFFSETP100
 10
2.900000
 20
0.900000
 30
0.000000
 41
0.055000
 42
0.055000
 43
1.000000
 50
90.000000
  0
INSERT
  8
17
  2
OFFSETP100
 10
2.900000
 20
0.900000
 30
0.000000
 41
0.055000
 42
0.055000
 43
1.000000
 50
90.000000
  0
INSERT
  8
17
  2
OFFSETP100
 10
3.000000
 20
0.900000
 30
0.000000
 41
0.055000
 42
0.055000
 43
1.000000
 50
90.000000
  0
INSERT
  8
17
  2
OFFSETP100
 10
3.000000
 20
0.900000
 30
0.000000
 41
0.055000
 42
0.055000
 43
1.000000
 50
90.000000
  0
INSERT
  8
17
  2
OFFSETP100
 10
3.100000
 20
0.900000
 30
0.000000
 41
0.055000
 42
0.055000
 43
1.000000
 50
90.000000
  0
INSERT
  8
17
  2
OFFSETP100
 10
3.100000
 20
0.900000
 30
0.000000
 41
0.055000
 42
0.055000
 43
1.000000
 50
90.000000
  0
INSERT
  8
17
  2
OFFSETP100
 10
3.300000
 20
0.600000
 30
0.000000
 41
0.055000
 42
0.055000
 43
1.000000
 50
270.000000
  0
INSERT
  8
17
  2
OFFSETP100
 10
3.300000
 20
0.600000
 30
0.000000
 41
0.055000
 42
0.055000
 43
1.000000
 50
270.000000
  0
INSERT
  8
17
  2
OFFSETP100
 10
3.400000
 20
0.900000
 30
0.000000
 41
0.055000
 42
0.055000
 43
1.000000
 50
90.000000
  0
INSERT
  8
17
  2
OFFSETP100
 10
3.400000
 20
0.900000
 30
0.000000
 41
0.055000
 42
0.055000
 43
1.000000
 50
90.000000
  0
INSERT
  8
17
  2
OFFSETP100
 10
3.500000
 20
0.900000
 30
0.000000
 41
0.055000
 42
0.055000
 43
1.000000
 50
90.000000
  0
INSERT
  8
17
  2
OFFSETP100
 10
3.500000
 20
0.900000
 30
0.000000
 41
0.055000
 42
0.055000
 43
1.000000
 50
90.000000
  0
INSERT
  8
17
  2
OFFSETP100
 10
3.600000
 20
0.900000
 30
0.000000
 41
0.055000
 42
0.055000
 43
1.000000
 50
90.000000
  0
INSERT
  8
17
  2
OFFSETP100
 10
3.600000
 20
0.900000
 30
0.000000
 41
0.055000
 42
0.055000
 43
1.000000
 50
90.000000
  0
INSERT
  8
17
  2
OFFSETP100
 10
3.700000
 20
0.900000
 30
0.000000
 41
0.055000
 42
0.055000
 43
1.000000
 50
90.000000
  0
INSERT
  8
17
  2
OFFSETP100
 10
3.700000
 20
0.900000
 30
0.000000
 41
0.055000
 42
0.055000
 43
1.000000
 50
90.000000
  0
INSERT
  8
17
  2
OFFSETP100
 10
3.800000
 20
0.900000
 30
0.000000
 41
0.055000
 42
0.055000
 43
1.000000
 50
90.000000
  0
INSERT
  8
17
  2
OFFSETP100
 10
3.800000
 20
0.900000
 30
0.000000
 41
0.055000
 42
0.055000
 43
1.000000
 50
90.000000
  0
INSERT
  8
17
  2
OFFSETP100
 10
3.900000
 20
0.900000
 30
0.000000
 41
0.055000
 42
0.055000
 43
1.000000
 50
90.000000
  0
INSERT
  8
17
  2
OFFSETP100
 10
3.900000
 20
0.900000
 30
0.000000
 41
0.055000
 42
0.055000
 43
1.000000
 50
90.000000
  0
INSERT
  8
17
  2
OFFSETP100
 10
4.000000
 20
0.900000
 30
0.000000
 41
0.055000
 42
0.055000
 43
1.000000
 50
90.000000
  0
INSERT
  8
17
  2
OFFSETP100
 10
4.000000
 20
0.900000
 30
0.000000
 41
0.055000
 42
0.055000
 43
1.000000
 50
90.000000
  0
INSERT
  8
17
  2
OFFSETP100
 10
4.100000
 20
0.900000
 30
0.000000
 41
0.055000
 42
0.055000
 43
1.000000
 50
90.000000
  0
INSERT
  8
17
  2
OFFSETP100
 10
4.100000
 20
0.900000
 30
0.000000
 41
0.055000
 42
0.055000
 43
1.000000
 50
90.000000
  0
INSERT
  8
17
  2
OFFSETP100
 10
4.000000
 20
0.600000
 30
0.000000
 41
0.055000
 42
0.055000
 43
1.000000
 50
270.000000
  0
INSERT
  8
17
  2
OFFSETP100
 10
4.000000
 20
0.600000
 30
0.000000
 41
0.055000
 42
0.055000
 43
1.000000
 50
270.000000
  0
INSERT
  8
17
  2
OFFSETP100
 10
3.900000
 20
0.600000
 30
0.000000
 41
0.055000
 42
0.055000
 43
1.000000
 50
270.000000
  0
INSERT
  8
17
  2
OFFSETP100
 10
3.900000
 20
0.600000
 30
0.000000
 41
0.055000
 42
0.055000
 43
1.000000
 50
270.000000
  0
INSERT
  8
17
  2
OFFSETP100
 10
3.800000
 20
0.600000
 30
0.000000
 41
0.055000
 42
0.055000
 43
1.000000
 50
270.000000
  0
INSERT
  8
17
  2
OFFSETP100
 10
3.800000
 20
0.600000
 30
0.000000
 41
0.055000
 42
0.055000
 43
1.000000
 50
270.000000
  0
INSERT
  8
17
  2
OFFSETP100
 10
3.700000
 20
0.600000
 30
0.000000
 41
0.055000
 42
0.055000
 43
1.000000
 50
270.000000
  0
INSERT
  8
17
  2
OFFSETP100
 10
3.700000
 20
0.600000
 30
0.000000
 41
0.055000
 42
0.055000
 43
1.000000
 50
270.000000
  0
INSERT
  8
17
  2
OFFSETP100
 10
3.500000
 20
0.600000
 30
0.000000
 41
0.055000
 42
0.055000
 43
1.000000
 50
270.000000
  0
INSERT
  8
17
  2
OFFSETP100
 10
3.500000
 20
0.600000
 30
0.000000
 41
0.055000
 42
0.055000
 43
1.000000
 50
270.000000
  0
INSERT
  8
17
  2
OFFSETP100
 10
3.100000
 20
0.600000
 30
0.000000
 41
0.055000
 42
0.055000
 43
1.000000
 50
270.000000
  0
INSERT
  8
17
  2
OFFSETP100
 10
3.100000
 20
0.600000
 30
0.000000
 41
0.055000
 42
0.055000
 43
1.000000
 50
270.000000
  0
INSERT
  8
17
  2
OFFSETP100
 10
3.000000
 20
0.600000
 30
0.000000
 41
0.055000
 42
0.055000
 43
1.000000
 50
270.000000
  0
INSERT
  8
17
  2
OFFSETP100
 10
3.000000
 20
0.600000
 30
0.000000
 41
0.055000
 42
0.055000
 43
1.000000
 50
270.000000
  0
INSERT
  8
17
  2
OFFSETP100
 10
2.900000
 20
0.600000
 30
0.000000
 41
0.055000
 42
0.055000
 43
1.000000
 50
270.000000
  0
INSERT
  8
17
  2
OFFSETP100
 10
2.900000
 20
0.600000
 30
0.000000
 41
0.055000
 42
0.055000
 43
1.000000
 50
270.000000
  0
INSERT
  8
17
  2
OFFSETP100
 10
2.800000
 20
0.600000
 30
0.000000
 41
0.055000
 42
0.055000
 43
1.000000
 50
270.000000
  0
INSERT
  8
17
  2
OFFSETP100
 10
2.800000
 20
0.600000
 30
0.000000
 41
0.055000
 42
0.055000
 43
1.000000
 50
270.000000
  0
INSERT
  8
17
  2
OFFSETP100
 10
2.800000
 20
0.900000
 30
0.000000
 41
0.055000
 42
0.055000
 43
1.000000
 50
90.000000
  0
INSERT
  8
17
  2
OFFSETP100
 10
2.800000
 20
0.900000
 30
0.000000
 41
0.055000
 42
0.055000
 43
1.000000
 50
90.000000
  0
INSERT
  8
17
  2
OFFSETP100
 10
3.200000
 20
0.600000
 30
0.000000
 41
0.055000
 42
0.055000
 43
1.000000
 50
270.000000
  0
INSERT
  8
17
  2
OFFSETP100
 10
3.200000
 20
0.600000
 30
0.000000
 41
0.055000
 42
0.055000
 43
1.000000
 50
270.000000
  0
INSERT
  8
17
  2
OFFSETP100
 10
3.300000
 20
0.900000
 30
0.000000
 41
0.055000
 42
0.055000
 43
1.000000
 50
90.000000
  0
INSERT
  8
17
  2
OFFSETP100
 10
3.300000
 20
0.900000
 30
0.000000
 41
0.055000
 42
0.055000
 43
1.000000
 50
90.000000
  0
INSERT
  8
17
  2
OFFSETP100
 10
4.100000
 20
0.600000
 30
0.000000
 41
0.055000
 42
0.055000
 43
1.000000
 50
270.000000
  0
INSERT
  8
17
  2
OFFSETP100
 10
4.100000
 20
0.600000
 30
0.000000
 41
0.055000
 42
0.055000
 43
1.000000
 50
270.000000
  0
INSERT
  8
17
  2
OFFSETP100
 10
3.400000
 20
0.600000
 30
0.000000
 41
0.055000
 42
0.055000
 43
1.000000
 50
270.000000
  0
INSERT
  8
17
  2
OFFSETP100
 10
3.400000
 20
0.600000
 30
0.000000
 41
0.055000
 42
0.055000
 43
1.000000
 50
270.000000
  0
INSERT
  8
17
  2
OFFSETP100
 10
3.200000
 20
0.900000
 30
0.000000
 41
0.055000
 42
0.055000
 43
1.000000
 50
90.000000
  0
INSERT
  8
17
  2
OFFSETP100
 10
3.200000
 20
0.900000
 30
0.000000
 41
0.055000
 42
0.055000
 43
1.000000
 50
90.000000
  0
INSERT
  8
17
  2
OFFSETP100
 10
3.600000
 20
0.600000
 30
0.000000
 41
0.055000
 42
0.055000
 43
1.000000
 50
270.000000
  0
INSERT
  8
17
  2
OFFSETP100
 10
3.600000
 20
0.600000
 30
0.000000
 41
0.055000
 42
0.055000
 43
1.000000
 50
270.000000
  0
POINT
  8
24
 10
0.800000
 20
1.500000
 30
0.000000
  0
LINE
  8
22
 10
0.850000
 20
1.450000
 30
0.000000
 11
0.850000
 21
1.650000
 31
0.000000
  0
LINE
  8
22
 10
0.850000
 20
1.650000
 30
0.000000
 11
0.350000
 21
1.650000
 31
0.000000
  0
LINE
  8
22
 10
0.350000
 20
1.650000
 30
0.000000
 11
0.350000
 21
1.450000
 31
0.000000
  0
LINE
  8
22
 10
0.350000
 20
1.450000
 30
0.000000
 11
0.850000
 21
1.450000
 31
0.000000
  0
INSERT
  8
17
  2
OFFSETP100
 10
0.800000
 20
1.500000
 30
0.000000
 41
0.055000
 42
0.055000
 43
1.000000
 50
270.000000
  0
INSERT
  8
17
  2
OFFSETP100
 10
0.800000
 20
1.500000
 30
0.000000
 41
0.055000
 42
0.055000
 43
1.000000
 50
270.000000
  0
INSERT
  8
17
  2
OFFSETP100
 10
0.700000
 20
1.500000
 30
0.000000
 41
0.055000
 42
0.055000
 43
1.000000
 50
270.000000
  0
INSERT
  8
17
  2
OFFSETP100
 10
0.700000
 20
1.500000
 30
0.000000
 41
0.055000
 42
0.055000
 43
1.000000
 50
270.000000
  0
INSERT
  8
17
  2
OFFSETP100
 10
0.600000
 20
1.500000
 30
0.000000
 41
0.055000
 42
0.055000
 43
1.000000
 50
270.000000
  0
INSERT
  8
17
  2
OFFSETP100
 10
0.600000
 20
1.500000
 30
0.000000
 41
0.055000
 42
0.055000
 43
1.000000
 50
270.000000
  0
INSERT
  8
17
  2
OFFSETP100
 10
0.500000
 20
1.500000
 30
0.000000
 41
0.055000
 42
0.055000
 43
1.000000
 50
270.000000
  0
INSERT
  8
17
  2
OFFSETP100
 10
0.500000
 20
1.500000
 30
0.000000
 41
0.055000
 42
0.055000
 43
1.000000
 50
270.000000
  0
INSERT
  8
17
  2
OFFSETP100
 10
0.400000
 20
1.500000
 30
0.000000
 41
0.055000
 42
0.055000
 43
1.000000
 50
270.000000
  0
INSERT
  8
17
  2
OFFSETP100
 10
0.400000
 20
1.500000
 30
0.000000
 41
0.055000
 42
0.055000
 43
1.000000
 50
270.000000
  0
INSERT
  8
17
  2
OFFSETP100
 10
0.400000
 20
1.600000
 30
0.000000
 41
0.055000
 42
0.055000
 43
1.000000
 50
90.000000
  0
INSERT
  8
17
  2
OFFSETP100
 10
0.400000
 20
1.600000
 30
0.000000
 41
0.055000
 42
0.055000
 43
1.000000
 50
90.000000
  0
INSERT
  8
17
  2
OFFSETP100
 10
0.500000
 20
1.600000
 30
0.000000
 41
0.055000
 42
0.055000
 43
1.000000
 50
90.000000
  0
INSERT
  8
17
  2
OFFSETP100
 10
0.500000
 20
1.600000
 30
0.000000
 41
0.055000
 42
0.055000
 43
1.000000
 50
90.000000
  0
INSERT
  8
17
  2
OFFSETP100
 10
0.600000
 20
1.600000
 30
0.000000
 41
0.055000
 42
0.055000
 43
1.000000
 50
90.000000
  0
INSERT
  8
17
  2
OFFSETP100
 10
0.600000
 20
1.600000
 30
0.000000
 41
0.055000
 42
0.055000
 43
1.000000
 50
90.000000
  0
INSERT
  8
17
  2
OFFSETP100
 10
0.700000
 20
1.600000
 30
0.000000
 41
0.055000
 42
0.055000
 43
1.000000
 50
90.000000
  0
INSERT
  8
17
  2
OFFSETP100
 10
0.700000
 20
1.600000
 30
0.000000
 41
0.055000
 42
0.055000
 43
1.000000
 50
90.000000
  0
INSERT
  8
17
  2
OFFSETP100
 10
0.800000
 20
1.600000
 30
0.000000
 41
0.055000
 42
0.055000
 43
1.000000
 50
90.000000
  0
INSERT
  8
17
  2
OFFSETP100
 10
0.800000
 20
1.600000
 30
0.000000
 41
0.055000
 42
0.055000
 43
1.000000
 50
90.000000
  0
POINT
  8
24
 10
1.800000
 20
1.750000
 30
0.000000
  0
LINE
  8
22
 10
1.850000
 20
1.800000
 30
0.000000
 11
1.850000
 21
1.400000
 31
0.000000
  0
LINE
  8
22
 10
1.850000
 20
1.400000
 30
0.000000
 11
1.450000
 21
1.400000
 31
0.000000
  0
LINE
  8
22
 10
1.450000
 20
1.400000
 30
0.000000
 11
1.450000
 21
1.800000
 31
0.000000
  0
LINE
  8
22
 10
1.450000
 20
1.800000
 30
0.000000
 11
1.600000
 21
1.800000
 31
0.000000
  0
LINE
  8
22
 10
1.850000
 20
1.800000
 30
0.000000
 11
1.700000
 21
1.800000
 31
0.000000
  0
ARC
  8
22
 10
1.650000
 20
1.800000
 30
0.000000
 40
0.050000
 50
180.000000
 51
0.000000
  0
TEXT
  7
ISOCP
  8
22
 10
1.650000
 20
1.700000
 30
0.000000
 40
0.050000
  1
LS7084
 50
270.000000
 71
2
  0
INSERT
  8
17
  2
OFFSETP100
 10
1.800000
 20
1.750000
 30
0.000000
 41
0.055000
 42
0.055000
 43
1.000000
 50
0.000000
  0
INSERT
  8
17
  2
OFFSETP100
 10
1.800000
 20
1.750000
 30
0.000000
 41
0.055000
 42
0.055000
 43
1.000000
 50
0.000000
  0
INSERT
  8
17
  2
OFFSETP100
 10
1.800000
 20
1.650000
 30
0.000000
 41
0.055000
 42
0.055000
 43
1.000000
 50
0.000000
  0
INSERT
  8
17
  2
OFFSETP100
 10
1.800000
 20
1.650000
 30
0.000000
 41
0.055000
 42
0.055000
 43
1.000000
 50
0.000000
  0
INSERT
  8
17
  2
OFFSETP100
 10
1.800000
 20
1.550000
 30
0.000000
 41
0.055000
 42
0.055000
 43
1.000000
 50
0.000000
  0
INSERT
  8
17
  2
OFFSETP100
 10
1.800000
 20
1.550000
 30
0.000000
 41
0.055000
 42
0.055000
 43
1.000000
 50
0.000000
  0
INSERT
  8
17
  2
OFFSETP100
 10
1.800000
 20
1.450000
 30
0.000000
 41
0.055000
 42
0.055000
 43
1.000000
 50
0.000000
  0
INSERT
  8
17
  2
OFFSETP100
 10
1.800000
 20
1.450000
 30
0.000000
 41
0.055000
 42
0.055000
 43
1.000000
 50
0.000000
  0
INSERT
  8
17
  2
OFFSETP100
 10
1.500000
 20
1.450000
 30
0.000000
 41
0.055000
 42
0.055000
 43
1.000000
 50
180.000000
  0
INSERT
  8
17
  2
OFFSETP100
 10
1.500000
 20
1.450000
 30
0.000000
 41
0.055000
 42
0.055000
 43
1.000000
 50
180.000000
  0
INSERT
  8
17
  2
OFFSETP100
 10
1.500000
 20
1.550000
 30
0.000000
 41
0.055000
 42
0.055000
 43
1.000000
 50
180.000000
  0
INSERT
  8
17
  2
OFFSETP100
 10
1.500000
 20
1.550000
 30
0.000000
 41
0.055000
 42
0.055000
 43
1.000000
 50
180.000000
  0
INSERT
  8
17
  2
OFFSETP100
 10
1.500000
 20
1.650000
 30
0.000000
 41
0.055000
 42
0.055000
 43
1.000000
 50
180.000000
  0
INSERT
  8
17
  2
OFFSETP100
 10
1.500000
 20
1.650000
 30
0.000000
 41
0.055000
 42
0.055000
 43
1.000000
 50
180.000000
  0
INSERT
  8
17
  2
OFFSETP100
 10
1.500000
 20
1.750000
 30
0.000000
 41
0.055000
 42
0.055000
 43
1.000000
 50
180.000000
  0
INSERT
  8
17
  2
OFFSETP100
 10
1.500000
 20
1.750000
 30
0.000000
 41
0.055000
 42
0.055000
 43
1.000000
 50
180.000000
  0
POINT
  8
24
 10
6.250000
 20
0.550000
 30
0.000000
  0
LINE
  8
22
 10
6.300000
 20
0.600000
 30
0.000000
 11
6.300000
 21
0.200000
 31
0.000000
  0
LINE
  8
22
 10
6.300000
 20
0.200000
 30
0.000000
 11
5.900000
 21
0.200000
 31
0.000000
  0
LINE
  8
22
 10
5.900000
 20
0.200000
 30
0.000000
 11
5.900000
 21
0.600000
 31
0.000000
  0
LINE
  8
22
 10
5.900000
 20
0.600000
 30
0.000000
 11
6.050000
 21
0.600000
 31
0.000000
  0
LINE
  8
22
 10
6.300000
 20
0.600000
 30
0.000000
 11
6.150000
 21
0.600000
 31
0.000000
  0
ARC
  8
22
 10
6.100000
 20
0.600000
 30
0.000000
 40
0.050000
 50
180.000000
 51
0.000000
  0
TEXT
  7
ISOCP
  8
22
 10
6.100000
 20
0.500000
 30
0.000000
 40
0.050000
  1
LS7084
 50
270.000000
 71
2
  0
INSERT
  8
17
  2
OFFSETP100
 10
6.250000
 20
0.550000
 30
0.000000
 41
0.055000
 42
0.055000
 43
1.000000
 50
0.000000
  0
INSERT
  8
17
  2
OFFSETP100
 10
6.250000
 20
0.550000
 30
0.000000
 41
0.055000
 42
0.055000
 43
1.000000
 50
0.000000
  0
INSERT
  8
17
  2
OFFSETP100
 10
6.250000
 20
0.450000
 30
0.000000
 41
0.055000
 42
0.055000
 43
1.000000
 50
0.000000
  0
INSERT
  8
17
  2
OFFSETP100
 10
6.250000
 20
0.450000
 30
0.000000
 41
0.055000
 42
0.055000
 43
1.000000
 50
0.000000
  0
INSERT
  8
17
  2
OFFSETP100
 10
6.250000
 20
0.350000
 30
0.000000
 41
0.055000
 42
0.055000
 43
1.000000
 50
0.000000
  0
INSERT
  8
17
  2
OFFSETP100
 10
6.250000
 20
0.350000
 30
0.000000
 41
0.055000
 42
0.055000
 43
1.000000
 50
0.000000
  0
INSERT
  8
17
  2
OFFSETP100
 10
6.250000
 20
0.250000
 30
0.000000
 41
0.055000
 42
0.055000
 43
1.000000
 50
0.000000
  0
INSERT
  8
17
  2
OFFSETP100
 10
6.250000
 20
0.250000
 30
0.000000
 41
0.055000
 42
0.055000
 43
1.000000
 50
0.000000
  0
INSERT
  8
17
  2
OFFSETP100
 10
5.950000
 20
0.250000
 30
0.000000
 41
0.055000
 42
0.055000
 43
1.000000
 50
180.000000
  0
INSERT
  8
17
  2
OFFSETP100
 10
5.950000
 20
0.250000
 30
0.000000
 41
0.055000
 42
0.055000
 43
1.000000
 50
180.000000
  0
INSERT
  8
17
  2
OFFSETP100
 10
5.950000
 20
0.350000
 30
0.000000
 41
0.055000
 42
0.055000
 43
1.000000
 50
180.000000
  0
INSERT
  8
17
  2
OFFSETP100
 10
5.950000
 20
0.350000
 30
0.000000
 41
0.055000
 42
0.055000
 43
1.000000
 50
180.000000
  0
INSERT
  8
17
  2
OFFSETP100
 10
5.950000
 20
0.450000
 30
0.000000
 41
0.055000
 42
0.055000
 43
1.000000
 50
180.000000
  0
INSERT
  8
17
  2
OFFSETP100
 10
5.950000
 20
0.450000
 30
0.000000
 41
0.055000
 42
0.055000
 43
1.000000
 50
180.000000
  0
INSERT
  8
17
  2
OFFSETP100
 10
5.950000
 20
0.550000
 30
0.000000
 41
0.055000
 42
0.055000
 43
1.000000
 50
180.000000
  0
INSERT
  8
17
  2
OFFSETP100
 10
5.950000
 20
0.550000
 30
0.000000
 41
0.055000
 42
0.055000
 43
1.000000
 50
180.000000
  0
POINT
  8
24
 10
6.250000
 20
1.750000
 30
0.000000
  0
LINE
  8
22
 10
6.300000
 20
1.800000
 30
0.000000
 11
6.300000
 21
1.400000
 31
0.000000
  0
LINE
  8
22
 10
6.300000
 20
1.400000
 30
0.000000
 11
5.900000
 21
1.400000
 31
0.000000
  0
LINE
  8
22
 10
5.900000
 20
1.400000
 30
0.000000
 11
5.900000
 21
1.800000
 31
0.000000
  0
LINE
  8
22
 10
5.900000
 20
1.800000
 30
0.000000
 11
6.050000
 21
1.800000
 31
0.000000
  0
LINE
  8
22
 10
6.300000
 20
1.800000
 30
0.000000
 11
6.150000
 21
1.800000
 31
0.000000
  0
ARC
  8
22
 10
6.100000
 20
1.800000
 30
0.000000
 40
0.050000
 50
180.000000
 51
0.000000
  0
TEXT
  7
ISOCP
  8
22
 10
6.100000
 20
1.700000
 30
0.000000
 40
0.050000
  1
LS7084
 50
270.000000
 71
2
  0
INSERT
  8
17
  2
OFFSETP100
 10
6.250000
 20
1.750000
 30
0.000000
 41
0.055000
 42
0.055000
 43
1.000000
 50
0.000000
  0
INSERT
  8
17
  2
OFFSETP100
 10
6.250000
 20
1.750000
 30
0.000000
 41
0.055000
 42
0.055000
 43
1.000000
 50
0.000000
  0
INSERT
  8
17
  2
OFFSETP100
 10
6.250000
 20
1.650000
 30
0.000000
 41
0.055000
 42
0.055000
 43
1.000000
 50
0.000000
  0
INSERT
  8
17
  2
OFFSETP100
 10
6.250000
 20
1.650000
 30
0.000000
 41
0.055000
 42
0.055000
 43
1.000000
 50
0.000000
  0
INSERT
  8
17
  2
OFFSETP100
 10
6.250000
 20
1.550000
 30
0.000000
 41
0.055000
 42
0.055000
 43
1.000000
 50
0.000000
  0
INSERT
  8
17
  2
OFFSETP100
 10
6.250000
 20
1.550000
 30
0.000000
 41
0.055000
 42
0.055000
 43
1.000000
 50
0.000000
  0
INSERT
  8
17
  2
OFFSETP100
 10
6.250000
 20
1.450000
 30
0.000000
 41
0.055000
 42
0.055000
 43
1.000000
 50
0.000000
  0
INSERT
  8
17
  2
OFFSETP100
 10
6.250000
 20
1.450000
 30
0.000000
 41
0.055000
 42
0.055000
 43
1.000000
 50
0.000000
  0
INSERT
  8
17
  2
OFFSETP100
 10
5.950000
 20
1.450000
 30
0.000000
 41
0.055000
 42
0.055000
 43
1.000000
 50
180.000000
  0
INSERT
  8
17
  2
OFFSETP100
 10
5.950000
 20
1.450000
 30
0.000000
 41
0.055000
 42
0.055000
 43
1.000000
 50
180.000000
  0
INSERT
  8
17
  2
OFFSETP100
 10
5.950000
 20
1.550000
 30
0.000000
 41
0.055000
 42
0.055000
 43
1.000000
 50
180.000000
  0
INSERT
  8
17
  2
OFFSETP100
 10
5.950000
 20
1.550000
 30
0.000000
 41
0.055000
 42
0.055000
 43
1.000000
 50
180.000000
  0
INSERT
  8
17
  2
OFFSETP100
 10
5.950000
 20
1.650000
 30
0.000000
 41
0.055000
 42
0.055000
 43
1.000000
 50
180.000000
  0
INSERT
  8
17
  2
OFFSETP100
 10
5.950000
 20
1.650000
 30
0.000000
 41
0.055000
 42
0.055000
 43
1.000000
 50
180.000000
  0
INSERT
  8
17
  2
OFFSETP100
 10
5.950000
 20
1.750000
 30
0.000000
 41
0.055000
 42
0.055000
 43
1.000000
 50
180.000000
  0
INSERT
  8
17
  2
OFFSETP100
 10
5.950000
 20
1.750000
 30
0.000000
 41
0.055000
 42
0.055000
 43
1.000000
 50
180.000000
  0
POINT
  8
24
 10
0.950000
 20
0.550000
 30
0.000000
  0
LINE
  8
22
 10
1.000000
 20
0.600000
 30
0.000000
 11
1.000000
 21
0.200000
 31
0.000000
  0
LINE
  8
22
 10
1.000000
 20
0.200000
 30
0.000000
 11
0.600000
 21
0.200000
 31
0.000000
  0
LINE
  8
22
 10
0.600000
 20
0.200000
 30
0.000000
 11
0.600000
 21
0.600000
 31
0.000000
  0
LINE
  8
22
 10
0.600000
 20
0.600000
 30
0.000000
 11
0.750000
 21
0.600000
 31
0.000000
  0
LINE
  8
22
 10
1.000000
 20
0.600000
 30
0.000000
 11
0.850000
 21
0.600000
 31
0.000000
  0
ARC
  8
22
 10
0.800000
 20
0.600000
 30
0.000000
 40
0.050000
 50
180.000000
 51
0.000000
  0
TEXT
  7
ISOCP
  8
22
 10
0.800000
 20
0.500000
 30
0.000000
 40
0.050000
  1
LS7084
 50
270.000000
 71
2
  0
INSERT
  8
17
  2
OFFSETP100
 10
0.950000
 20
0.550000
 30
0.000000
 41
0.055000
 42
0.055000
 43
1.000000
 50
0.000000
  0
INSERT
  8
17
  2
OFFSETP100
 10
0.950000
 20
0.550000
 30
0.000000
 41
0.055000
 42
0.055000
 43
1.000000
 50
0.000000
  0
INSERT
  8
17
  2
OFFSETP100
 10
0.950000
 20
0.450000
 30
0.000000
 41
0.055000
 42
0.055000
 43
1.000000
 50
0.000000
  0
INSERT
  8
17
  2
OFFSETP100
 10
0.950000
 20
0.450000
 30
0.000000
 41
0.055000
 42
0.055000
 43
1.000000
 50
0.000000
  0
INSERT
  8
17
  2
OFFSETP100
 10
0.950000
 20
0.350000
 30
0.000000
 41
0.055000
 42
0.055000
 43
1.000000
 50
0.000000
  0
INSERT
  8
17
  2
OFFSETP100
 10
0.950000
 20
0.350000
 30
0.000000
 41
0.055000
 42
0.055000
 43
1.000000
 50
0.000000
  0
INSERT
  8
17
  2
OFFSETP100
 10
0.950000
 20
0.250000
 30
0.000000
 41
0.055000
 42
0.055000
 43
1.000000
 50
0.000000
  0
INSERT
  8
17
  2
OFFSETP100
 10
0.950000
 20
0.250000
 30
0.000000
 41
0.055000
 42
0.055000
 43
1.000000
 50
0.000000
  0
INSERT
  8
17
  2
OFFSETP100
 10
0.650000
 20
0.250000
 30
0.000000
 41
0.055000
 42
0.055000
 43
1.000000
 50
180.000000
  0
INSERT
  8
17
  2
OFFSETP100
 10
0.650000
 20
0.250000
 30
0.000000
 41
0.055000
 42
0.055000
 43
1.000000
 50
180.000000
  0
INSERT
  8
17
  2
OFFSETP100
 10
0.650000
 20
0.350000
 30
0.000000
 41
0.055000
 42
0.055000
 43
1.000000
 50
180.000000
  0
INSERT
  8
17
  2
OFFSETP100
 10
0.650000
 20
0.350000
 30
0.000000
 41
0.055000
 42
0.055000
 43
1.000000
 50
180.000000
  0
INSERT
  8
17
  2
OFFSETP100
 10
0.650000
 20
0.450000
 30
0.000000
 41
0.055000
 42
0.055000
 43
1.000000
 50
180.000000
  0
INSERT
  8
17
  2
OFFSETP100
 10
0.650000
 20
0.450000
 30
0.000000
 41
0.055000
 42
0.055000
 43
1.000000
 50
180.000000
  0
INSERT
  8
17
  2
OFFSETP100
 10
0.650000
 20
0.550000
 30
0.000000
 41
0.055000
 42
0.055000
 43
1.000000
 50
180.000000
  0
INSERT
  8
17
  2
OFFSETP100
 10
0.650000
 20
0.550000
 30
0.000000
 41
0.055000
 42
0.055000
 43
1.000000
 50
180.000000
  0
POINT
  8
24
 10
5.600000
 20
0.450000
 30
0.000000
  0
LINE
  8
22
 10
5.550000
 20
0.550000
 30
0.000000
 11
5.600000
 21
0.550000
 31
0.000000
  0
LINE
  8
22
 10
5.600000
 20
0.550000
 30
0.000000
 11
5.650000
 21
0.550000
 31
0.000000
  0
LINE
  8
22
 10
5.650000
 20
0.550000
 30
0.000000
 11
5.650000
 21
0.350000
 31
0.000000
  0
LINE
  8
22
 10
5.650000
 20
0.350000
 30
0.000000
 11
5.600000
 21
0.350000
 31
0.000000
  0
LINE
  8
22
 10
5.600000
 20
0.350000
 30
0.000000
 11
5.550000
 21
0.350000
 31
0.000000
  0
LINE
  8
22
 10
5.550000
 20
0.350000
 30
0.000000
 11
5.550000
 21
0.550000
 31
0.000000
  0
INSERT
  8
17
  2
OFFSETP100
 10
5.600000
 20
0.650000
 30
0.000000
 41
0.050000
 42
0.050000
 43
1.000000
 50
90.000000
  0
INSERT
  8
17
  2
OFFSETP100
 10
5.600000
 20
0.650000
 30
0.000000
 41
0.050000
 42
0.050000
 43
1.000000
 50
90.000000
  0
INSERT
  8
17
  2
OFFSETP100
 10
5.600000
 20
0.250000
 30
0.000000
 41
0.050000
 42
0.050000
 43
1.000000
 50
270.000000
  0
INSERT
  8
17
  2
OFFSETP100
 10
5.600000
 20
0.250000
 30
0.000000
 41
0.050000
 42
0.050000
 43
1.000000
 50
270.000000
  0
POINT
  8
24
 10
2.500000
 20
0.450000
 30
0.000000
  0
LINE
  8
22
 10
2.550000
 20
0.350000
 30
0.000000
 11
2.500000
 21
0.350000
 31
0.000000
  0
LINE
  8
22
 10
2.500000
 20
0.350000
 30
0.000000
 11
2.450000
 21
0.350000
 31
0.000000
  0
LINE
  8
22
 10
2.450000
 20
0.350000
 30
0.000000
 11
2.450000
 21
0.550000
 31
0.000000
  0
LINE
  8
22
 10
2.450000
 20
0.550000
 30
0.000000
 11
2.500000
 21
0.550000
 31
0.000000
  0
LINE
  8
22
 10
2.500000
 20
0.550000
 30
0.000000
 11
2.550000
 21
0.550000
 31
0.000000
  0
LINE
  8
22
 10
2.550000
 20
0.550000
 30
0.000000
 11
2.550000
 21
0.350000
 31
0.000000
  0
INSERT
  8
17
  2
OFFSETP100
 10
2.500000
 20
0.250000
 30
0.000000
 41
0.050000
 42
0.050000
 43
1.000000
 50
270.000000
  0
INSERT
  8
17
  2
OFFSETP100
 10
2.500000
 20
0.250000
 30
0.000000
 41
0.050000
 42
0.050000
 43
1.000000
 50
270.000000
  0
INSERT
  8
17
  2
OFFSETP100
 10
2.500000
 20
0.650000
 30
0.000000
 41
0.050000
 42
0.050000
 43
1.000000
 50
90.000000
  0
INSERT
  8
17
  2
OFFSETP100
 10
2.500000
 20
0.650000
 30
0.000000
 41
0.050000
 42
0.050000
 43
1.000000
 50
90.000000
  0
TEXT
  7
ISOCP
  8
22
 10
2.600000
 20
0.350000
 30
0.000000
 40
0.050000
  1
470?
 50
270.000000
 71
2
  0
POINT
  8
24
 10
5.500000
 20
0.450000
 30
0.000000
  0
LINE
  8
22
 10
5.450000
 20
0.550000
 30
0.000000
 11
5.500000
 21
0.550000
 31
0.000000
  0
LINE
  8
22
 10
5.500000
 20
0.550000
 30
0.000000
 11
5.550000
 21
0.550000
 31
0.000000
  0
LINE
  8
22
 10
5.550000
 20
0.550000
 30
0.000000
 11
5.550000
 21
0.350000
 31
0.000000
  0
LINE
  8
22
 10
5.550000
 20
0.350000
 30
0.000000
 11
5.500000
 21
0.350000
 31
0.000000
  0
LINE
  8
22
 10
5.500000
 20
0.350000
 30
0.000000
 11
5.450000
 21
0.350000
 31
0.000000
  0
LINE
  8
22
 10
5.450000
 20
0.350000
 30
0.000000
 11
5.450000
 21
0.550000
 31
0.000000
  0
INSERT
  8
17
  2
OFFSETP100
 10
5.500000
 20
0.650000
 30
0.000000
 41
0.050000
 42
0.050000
 43
1.000000
 50
90.000000
  0
INSERT
  8
17
  2
OFFSETP100
 10
5.500000
 20
0.650000
 30
0.000000
 41
0.050000
 42
0.050000
 43
1.000000
 50
90.000000
  0
INSERT
  8
17
  2
OFFSETP100
 10
5.500000
 20
0.250000
 30
0.000000
 41
0.050000
 42
0.050000
 43
1.000000
 50
270.000000
  0
INSERT
  8
17
  2
OFFSETP100
 10
5.500000
 20
0.250000
 30
0.000000
 41
0.050000
 42
0.050000
 43
1.000000
 50
270.000000
  0
POINT
  8
24
 10
5.400000
 20
0.450000
 30
0.000000
  0
LINE
  8
22
 10
5.350000
 20
0.550000
 30
0.000000
 11
5.400000
 21
0.550000
 31
0.000000
  0
LINE
  8
22
 10
5.400000
 20
0.550000
 30
0.000000
 11
5.450000
 21
0.550000
 31
0.000000
  0
LINE
  8
22
 10
5.450000
 20
0.550000
 30
0.000000
 11
5.450000
 21
0.350000
 31
0.000000
  0
LINE
  8
22
 10
5.450000
 20
0.350000
 30
0.000000
 11
5.400000
 21
0.350000
 31
0.000000
  0
LINE
  8
22
 10
5.400000
 20
0.350000
 30
0.000000
 11
5.350000
 21
0.350000
 31
0.000000
  0
LINE
  8
22
 10
5.350000
 20
0.350000
 30
0.000000
 11
5.350000
 21
0.550000
 31
0.000000
  0
INSERT
  8
17
  2
OFFSETP100
 10
5.400000
 20
0.650000
 30
0.000000
 41
0.050000
 42
0.050000
 43
1.000000
 50
90.000000
  0
INSERT
  8
17
  2
OFFSETP100
 10
5.400000
 20
0.650000
 30
0.000000
 41
0.050000
 42
0.050000
 43
1.000000
 50
90.000000
  0
INSERT
  8
17
  2
OFFSETP100
 10
5.400000
 20
0.250000
 30
0.000000
 41
0.050000
 42
0.050000
 43
1.000000
 50
270.000000
  0
INSERT
  8
17
  2
OFFSETP100
 10
5.400000
 20
0.250000
 30
0.000000
 41
0.050000
 42
0.050000
 43
1.000000
 50
270.000000
  0
POINT
  8
23
 10
2.950000
 20
1.250000
 30
0.000000
  0
INSERT
  8
17
  2
OFFSETP100
 10
2.950000
 20
1.250000
 30
0.000000
 41
0.055000
 42
0.055000
 43
1.000000
 50
0.000000
  0
INSERT
  8
17
  2
OFFSETP100
 10
2.950000
 20
1.250000
 30
0.000000
 41
0.055000
 42
0.055000
 43
1.000000
 50
0.000000
  0
INSERT
  8
17
  2
OFFSETP100
 10
2.950000
 20
1.350000
 30
0.000000
 41
0.055000
 42
0.055000
 43
1.000000
 50
0.000000
  0
INSERT
  8
17
  2
OFFSETP100
 10
2.950000
 20
1.350000
 30
0.000000
 41
0.055000
 42
0.055000
 43
1.000000
 50
0.000000
  0
INSERT
  8
17
  2
OFFSETP100
 10
2.950000
 20
1.450000
 30
0.000000
 41
0.055000
 42
0.055000
 43
1.000000
 50
0.000000
  0
INSERT
  8
17
  2
OFFSETP100
 10
2.950000
 20
1.450000
 30
0.000000
 41
0.055000
 42
0.055000
 43
1.000000
 50
0.000000
  0
INSERT
  8
17
  2
LONGP100
 10
2.850000
 20
1.450000
 30
0.000000
 41
0.055000
 42
0.055000
 43
1.000000
 50
180.000000
  0
INSERT
  8
17
  2
LONGP100
 10
2.850000
 20
1.450000
 30
0.000000
 41
0.055000
 42
0.055000
 43
1.000000
 50
180.000000
  0
INSERT
  8
17
  2
LONGP100
 10
2.850000
 20
1.350000
 30
0.000000
 41
0.055000
 42
0.055000
 43
1.000000
 50
0.000000
  0
INSERT
  8
17
  2
LONGP100
 10
2.850000
 20
1.350000
 30
0.000000
 41
0.055000
 42
0.055000
 43
1.000000
 50
0.000000
  0
INSERT
  8
17
  2
LONGP100
 10
2.850000
 20
1.250000
 30
0.000000
 41
0.055000
 42
0.055000
 43
1.000000
 50
0.000000
  0
INSERT
  8
17
  2
LONGP100
 10
2.850000
 20
1.250000
 30
0.000000
 41
0.055000
 42
0.055000
 43
1.000000
 50
0.000000
  0
INSERT
  8
17
  2
OFFSETP100
 10
2.750000
 20
1.250000
 30
0.000000
 41
0.055000
 42
0.055000
 43
1.000000
 50
180.000000
  0
INSERT
  8
17
  2
OFFSETP100
 10
2.750000
 20
1.250000
 30
0.000000
 41
0.055000
 42
0.055000
 43
1.000000
 50
180.000000
  0
INSERT
  8
17
  2
OFFSETP100
 10
2.750000
 20
1.350000
 30
0.000000
 41
0.055000
 42
0.055000
 43
1.000000
 50
180.000000
  0
INSERT
  8
17
  2
OFFSETP100
 10
2.750000
 20
1.350000
 30
0.000000
 41
0.055000
 42
0.055000
 43
1.000000
 50
180.000000
  0
INSERT
  8
17
  2
OFFSETP100
 10
2.750000
 20
1.450000
 30
0.000000
 41
0.055000
 42
0.055000
 43
1.000000
 50
180.000000
  0
INSERT
  8
17
  2
OFFSETP100
 10
2.750000
 20
1.450000
 30
0.000000
 41
0.055000
 42
0.055000
 43
1.000000
 50
180.000000
  0
POINT
  8
24
 10
5.200000
 20
0.450000
 30
0.000000
  0
LINE
  8
22
 10
5.150000
 20
0.550000
 30
0.000000
 11
5.200000
 21
0.550000
 31
0.000000
  0
LINE
  8
22
 10
5.200000
 20
0.550000
 30
0.000000
 11
5.250000
 21
0.550000
 31
0.000000
  0
LINE
  8
22
 10
5.250000
 20
0.550000
 30
0.000000
 11
5.250000
 21
0.350000
 31
0.000000
  0
LINE
  8
22
 10
5.250000
 20
0.350000
 30
0.000000
 11
5.200000
 21
0.350000
 31
0.000000
  0
LINE
  8
22
 10
5.200000
 20
0.350000
 30
0.000000
 11
5.150000
 21
0.350000
 31
0.000000
  0
LINE
  8
22
 10
5.150000
 20
0.350000
 30
0.000000
 11
5.150000
 21
0.550000
 31
0.000000
  0
INSERT
  8
17
  2
OFFSETP100
 10
5.200000
 20
0.650000
 30
0.000000
 41
0.050000
 42
0.050000
 43
1.000000
 50
90.000000
  0
INSERT
  8
17
  2
OFFSETP100
 10
5.200000
 20
0.650000
 30
0.000000
 41
0.050000
 42
0.050000
 43
1.000000
 50
90.000000
  0
INSERT
  8
17
  2
OFFSETP100
 10
5.200000
 20
0.250000
 30
0.000000
 41
0.050000
 42
0.050000
 43
1.000000
 50
270.000000
  0
INSERT
  8
17
  2
OFFSETP100
 10
5.200000
 20
0.250000
 30
0.000000
 41
0.050000
 42
0.050000
 43
1.000000
 50
270.000000
  0
TEXT
  7
ISOCP
  8
22
 10
5.100000
 20
0.550000
 30
0.000000
 40
0.050000
  1
470?
 50
270.000000
 71
2
 72
2
 73
3
 11
5.100000
 21
0.550000
 31
0.000000
  0
POINT
  8
24
 10
1.400000
 20
0.450000
 30
0.000000
  0
LINE
  8
22
 10
1.450000
 20
0.350000
 30
0.000000
 11
1.400000
 21
0.350000
 31
0.000000
  0
LINE
  8
22
 10
1.400000
 20
0.350000
 30
0.000000
 11
1.350000
 21
0.350000
 31
0.000000
  0
LINE
  8
22
 10
1.350000
 20
0.350000
 30
0.000000
 11
1.350000
 21
0.550000
 31
0.000000
  0
LINE
  8
22
 10
1.350000
 20
0.550000
 30
0.000000
 11
1.400000
 21
0.550000
 31
0.000000
  0
LINE
  8
22
 10
1.400000
 20
0.550000
 30
0.000000
 11
1.450000
 21
0.550000
 31
0.000000
  0
LINE
  8
22
 10
1.450000
 20
0.550000
 30
0.000000
 11
1.450000
 21
0.350000
 31
0.000000
  0
INSERT
  8
17
  2
OFFSETP100
 10
1.400000
 20
0.250000
 30
0.000000
 41
0.050000
 42
0.050000
 43
1.000000
 50
270.000000
  0
INSERT
  8
17
  2
OFFSETP100
 10
1.400000
 20
0.250000
 30
0.000000
 41
0.050000
 42
0.050000
 43
1.000000
 50
270.000000
  0
INSERT
  8
17
  2
OFFSETP100
 10
1.400000
 20
0.650000
 30
0.000000
 41
0.050000
 42
0.050000
 43
1.000000
 50
90.000000
  0
INSERT
  8
17
  2
OFFSETP100
 10
1.400000
 20
0.650000
 30
0.000000
 41
0.050000
 42
0.050000
 43
1.000000
 50
90.000000
  0
POINT
  8
24
 10
1.500000
 20
0.450000
 30
0.000000
  0
LINE
  8
22
 10
1.550000
 20
0.350000
 30
0.000000
 11
1.500000
 21
0.350000
 31
0.000000
  0
LINE
  8
22
 10
1.500000
 20
0.350000
 30
0.000000
 11
1.450000
 21
0.350000
 31
0.000000
  0
LINE
  8
22
 10
1.450000
 20
0.350000
 30
0.000000
 11
1.450000
 21
0.550000
 31
0.000000
  0
LINE
  8
22
 10
1.450000
 20
0.550000
 30
0.000000
 11
1.500000
 21
0.550000
 31
0.000000
  0
LINE
  8
22
 10
1.500000
 20
0.550000
 30
0.000000
 11
1.550000
 21
0.550000
 31
0.000000
  0
LINE
  8
22
 10
1.550000
 20
0.550000
 30
0.000000
 11
1.550000
 21
0.350000
 31
0.000000
  0
INSERT
  8
17
  2
OFFSETP100
 10
1.500000
 20
0.250000
 30
0.000000
 41
0.050000
 42
0.050000
 43
1.000000
 50
270.000000
  0
INSERT
  8
17
  2
OFFSETP100
 10
1.500000
 20
0.250000
 30
0.000000
 41
0.050000
 42
0.050000
 43
1.000000
 50
270.000000
  0
INSERT
  8
17
  2
OFFSETP100
 10
1.500000
 20
0.650000
 30
0.000000
 41
0.050000
 42
0.050000
 43
1.000000
 50
90.000000
  0
INSERT
  8
17
  2
OFFSETP100
 10
1.500000
 20
0.650000
 30
0.000000
 41
0.050000
 42
0.050000
 43
1.000000
 50
90.000000
  0
POINT
  8
24
 10
1.600000
 20
0.450000
 30
0.000000
  0
LINE
  8
22
 10
1.650000
 20
0.350000
 30
0.000000
 11
1.600000
 21
0.350000
 31
0.000000
  0
LINE
  8
22
 10
1.600000
 20
0.350000
 30
0.000000
 11
1.550000
 21
0.350000
 31
0.000000
  0
LINE
  8
22
 10
1.550000
 20
0.350000
 30
0.000000
 11
1.550000
 21
0.550000
 31
0.000000
  0
LINE
  8
22
 10
1.550000
 20
0.550000
 30
0.000000
 11
1.600000
 21
0.550000
 31
0.000000
  0
LINE
  8
22
 10
1.600000
 20
0.550000
 30
0.000000
 11
1.650000
 21
0.550000
 31
0.000000
  0
LINE
  8
22
 10
1.650000
 20
0.550000
 30
0.000000
 11
1.650000
 21
0.350000
 31
0.000000
  0
INSERT
  8
17
  2
OFFSETP100
 10
1.600000
 20
0.250000
 30
0.000000
 41
0.050000
 42
0.050000
 43
1.000000
 50
270.000000
  0
INSERT
  8
17
  2
OFFSETP100
 10
1.600000
 20
0.250000
 30
0.000000
 41
0.050000
 42
0.050000
 43
1.000000
 50
270.000000
  0
INSERT
  8
17
  2
OFFSETP100
 10
1.600000
 20
0.650000
 30
0.000000
 41
0.050000
 42
0.050000
 43
1.000000
 50
90.000000
  0
INSERT
  8
17
  2
OFFSETP100
 10
1.600000
 20
0.650000
 30
0.000000
 41
0.050000
 42
0.050000
 43
1.000000
 50
90.000000
  0
POINT
  8
24
 10
1.300000
 20
0.450000
 30
0.000000
  0
LINE
  8
22
 10
1.350000
 20
0.350000
 30
0.000000
 11
1.300000
 21
0.350000
 31
0.000000
  0
LINE
  8
22
 10
1.300000
 20
0.350000
 30
0.000000
 11
1.250000
 21
0.350000
 31
0.000000
  0
LINE
  8
22
 10
1.250000
 20
0.350000
 30
0.000000
 11
1.250000
 21
0.550000
 31
0.000000
  0
LINE
  8
22
 10
1.250000
 20
0.550000
 30
0.000000
 11
1.300000
 21
0.550000
 31
0.000000
  0
LINE
  8
22
 10
1.300000
 20
0.550000
 30
0.000000
 11
1.350000
 21
0.550000
 31
0.000000
  0
LINE
  8
22
 10
1.350000
 20
0.550000
 30
0.000000
 11
1.350000
 21
0.350000
 31
0.000000
  0
INSERT
  8
17
  2
OFFSETP100
 10
1.300000
 20
0.250000
 30
0.000000
 41
0.050000
 42
0.050000
 43
1.000000
 50
270.000000
  0
INSERT
  8
17
  2
OFFSETP100
 10
1.300000
 20
0.250000
 30
0.000000
 41
0.050000
 42
0.050000
 43
1.000000
 50
270.000000
  0
INSERT
  8
17
  2
OFFSETP100
 10
1.300000
 20
0.650000
 30
0.000000
 41
0.050000
 42
0.050000
 43
1.000000
 50
90.000000
  0
INSERT
  8
17
  2
OFFSETP100
 10
1.300000
 20
0.650000
 30
0.000000
 41
0.050000
 42
0.050000
 43
1.000000
 50
90.000000
  0
TEXT
  7
ISOCP
  8
22
 10
1.150000
 20
0.350000
 30
0.000000
 40
0.050000
  1
470?
 50
270.000000
 71
2
  0
POINT
  8
24
 10
5.300000
 20
0.450000
 30
0.000000
  0
LINE
  8
22
 10
5.250000
 20
0.550000
 30
0.000000
 11
5.300000
 21
0.550000
 31
0.000000
  0
LINE
  8
22
 10
5.300000
 20
0.550000
 30
0.000000
 11
5.350000
 21
0.550000
 31
0.000000
  0
LINE
  8
22
 10
5.350000
 20
0.550000
 30
0.000000
 11
5.350000
 21
0.350000
 31
0.000000
  0
LINE
  8
22
 10
5.350000
 20
0.350000
 30
0.000000
 11
5.300000
 21
0.350000
 31
0.000000
  0
LINE
  8
22
 10
5.300000
 20
0.350000
 30
0.000000
 11
5.250000
 21
0.350000
 31
0.000000
  0
LINE
  8
22
 10
5.250000
 20
0.350000
 30
0.000000
 11
5.250000
 21
0.550000
 31
0.000000
  0
INSERT
  8
17
  2
OFFSETP100
 10
5.300000
 20
0.650000
 30
0.000000
 41
0.050000
 42
0.050000
 43
1.000000
 50
90.000000
  0
INSERT
  8
17
  2
OFFSETP100
 10
5.300000
 20
0.650000
 30
0.000000
 41
0.050000
 42
0.050000
 43
1.000000
 50
90.000000
  0
INSERT
  8
17
  2
OFFSETP100
 10
5.300000
 20
0.250000
 30
0.000000
 41
0.050000
 42
0.050000
 43
1.000000
 50
270.000000
  0
INSERT
  8
17
  2
OFFSETP100
 10
5.300000
 20
0.250000
 30
0.000000
 41
0.050000
 42
0.050000
 43
1.000000
 50
270.000000
  0
POINT
  8
24
 10
1.700000
 20
0.450000
 30
0.000000
  0
LINE
  8
22
 10
1.750000
 20
0.350000
 30
0.000000
 11
1.700000
 21
0.350000
 31
0.000000
  0
LINE
  8
22
 10
1.700000
 20
0.350000
 30
0.000000
 11
1.650000
 21
0.350000
 31
0.000000
  0
LINE
  8
22
 10
1.650000
 20
0.350000
 30
0.000000
 11
1.650000
 21
0.550000
 31
0.000000
  0
LINE
  8
22
 10
1.650000
 20
0.550000
 30
0.000000
 11
1.700000
 21
0.550000
 31
0.000000
  0
LINE
  8
22
 10
1.700000
 20
0.550000
 30
0.000000
 11
1.750000
 21
0.550000
 31
0.000000
  0
LINE
  8
22
 10
1.750000
 20
0.550000
 30
0.000000
 11
1.750000
 21
0.350000
 31
0.000000
  0
INSERT
  8
17
  2
OFFSETP100
 10
1.700000
 20
0.250000
 30
0.000000
 41
0.050000
 42
0.050000
 43
1.000000
 50
270.000000
  0
INSERT
  8
17
  2
OFFSETP100
 10
1.700000
 20
0.250000
 30
0.000000
 41
0.050000
 42
0.050000
 43
1.000000
 50
270.000000
  0
INSERT
  8
17
  2
OFFSETP100
 10
1.700000
 20
0.650000
 30
0.000000
 41
0.050000
 42
0.050000
 43
1.000000
 50
90.000000
  0
INSERT
  8
17
  2
OFFSETP100
 10
1.700000
 20
0.650000
 30
0.000000
 41
0.050000
 42
0.050000
 43
1.000000
 50
90.000000
  0
POINT
  8
24
 10
2.400000
 20
0.450000
 30
0.000000
  0
LINE
  8
22
 10
2.450000
 20
0.350000
 30
0.000000
 11
2.400000
 21
0.350000
 31
0.000000
  0
LINE
  8
22
 10
2.400000
 20
0.350000
 30
0.000000
 11
2.350000
 21
0.350000
 31
0.000000
  0
LINE
  8
22
 10
2.350000
 20
0.350000
 30
0.000000
 11
2.350000
 21
0.550000
 31
0.000000
  0
LINE
  8
22
 10
2.350000
 20
0.550000
 30
0.000000
 11
2.400000
 21
0.550000
 31
0.000000
  0
LINE
  8
22
 10
2.400000
 20
0.550000
 30
0.000000
 11
2.450000
 21
0.550000
 31
0.000000
  0
LINE
  8
22
 10
2.450000
 20
0.550000
 30
0.000000
 11
2.450000
 21
0.350000
 31
0.000000
  0
INSERT
  8
17
  2
OFFSETP100
 10
2.400000
 20
0.250000
 30
0.000000
 41
0.050000
 42
0.050000
 43
1.000000
 50
270.000000
  0
INSERT
  8
17
  2
OFFSETP100
 10
2.400000
 20
0.250000
 30
0.000000
 41
0.050000
 42
0.050000
 43
1.000000
 50
270.000000
  0
INSERT
  8
17
  2
OFFSETP100
 10
2.400000
 20
0.650000
 30
0.000000
 41
0.050000
 42
0.050000
 43
1.000000
 50
90.000000
  0
INSERT
  8
17
  2
OFFSETP100
 10
2.400000
 20
0.650000
 30
0.000000
 41
0.050000
 42
0.050000
 43
1.000000
 50
90.000000
  0
POINT
  8
24
 10
2.300000
 20
0.450000
 30
0.000000
  0
LINE
  8
22
 10
2.350000
 20
0.350000
 30
0.000000
 11
2.300000
 21
0.350000
 31
0.000000
  0
LINE
  8
22
 10
2.300000
 20
0.350000
 30
0.000000
 11
2.250000
 21
0.350000
 31
0.000000
  0
LINE
  8
22
 10
2.250000
 20
0.350000
 30
0.000000
 11
2.250000
 21
0.550000
 31
0.000000
  0
LINE
  8
22
 10
2.250000
 20
0.550000
 30
0.000000
 11
2.300000
 21
0.550000
 31
0.000000
  0
LINE
  8
22
 10
2.300000
 20
0.550000
 30
0.000000
 11
2.350000
 21
0.550000
 31
0.000000
  0
LINE
  8
22
 10
2.350000
 20
0.550000
 30
0.000000
 11
2.350000
 21
0.350000
 31
0.000000
  0
INSERT
  8
17
  2
OFFSETP100
 10
2.300000
 20
0.250000
 30
0.000000
 41
0.050000
 42
0.050000
 43
1.000000
 50
270.000000
  0
INSERT
  8
17
  2
OFFSETP100
 10
2.300000
 20
0.250000
 30
0.000000
 41
0.050000
 42
0.050000
 43
1.000000
 50
270.000000
  0
INSERT
  8
17
  2
OFFSETP100
 10
2.300000
 20
0.650000
 30
0.000000
 41
0.050000
 42
0.050000
 43
1.000000
 50
90.000000
  0
INSERT
  8
17
  2
OFFSETP100
 10
2.300000
 20
0.650000
 30
0.000000
 41
0.050000
 42
0.050000
 43
1.000000
 50
90.000000
  0
POINT
  8
24
 10
2.200000
 20
0.450000
 30
0.000000
  0
LINE
  8
22
 10
2.250000
 20
0.350000
 30
0.000000
 11
2.200000
 21
0.350000
 31
0.000000
  0
LINE
  8
22
 10
2.200000
 20
0.350000
 30
0.000000
 11
2.150000
 21
0.350000
 31
0.000000
  0
LINE
  8
22
 10
2.150000
 20
0.350000
 30
0.000000
 11
2.150000
 21
0.550000
 31
0.000000
  0
LINE
  8
22
 10
2.150000
 20
0.550000
 30
0.000000
 11
2.200000
 21
0.550000
 31
0.000000
  0
LINE
  8
22
 10
2.200000
 20
0.550000
 30
0.000000
 11
2.250000
 21
0.550000
 31
0.000000
  0
LINE
  8
22
 10
2.250000
 20
0.550000
 30
0.000000
 11
2.250000
 21
0.350000
 31
0.000000
  0
INSERT
  8
17
  2
OFFSETP100
 10
2.200000
 20
0.250000
 30
0.000000
 41
0.050000
 42
0.050000
 43
1.000000
 50
270.000000
  0
INSERT
  8
17
  2
OFFSETP100
 10
2.200000
 20
0.250000
 30
0.000000
 41
0.050000
 42
0.050000
 43
1.000000
 50
270.000000
  0
INSERT
  8
17
  2
OFFSETP100
 10
2.200000
 20
0.650000
 30
0.000000
 41
0.050000
 42
0.050000
 43
1.000000
 50
90.000000
  0
INSERT
  8
17
  2
OFFSETP100
 10
2.200000
 20
0.650000
 30
0.000000
 41
0.050000
 42
0.050000
 43
1.000000
 50
90.000000
  0
POINT
  8
24
 10
1.500000
 20
1.000000
 30
0.000000
  0
LINE
  8
22
 10
1.400000
 20
0.950000
 30
0.000000
 11
1.400000
 21
1.000000
 31
0.000000
  0
LINE
  8
22
 10
1.400000
 20
1.000000
 30
0.000000
 11
1.400000
 21
1.050000
 31
0.000000
  0
LINE
  8
22
 10
1.400000
 20
1.050000
 30
0.000000
 11
1.600000
 21
1.050000
 31
0.000000
  0
LINE
  8
22
 10
1.600000
 20
1.050000
 30
0.000000
 11
1.600000
 21
1.000000
 31
0.000000
  0
LINE
  8
22
 10
1.600000
 20
1.000000
 30
0.000000
 11
1.600000
 21
0.950000
 31
0.000000
  0
LINE
  8
22
 10
1.600000
 20
0.950000
 30
0.000000
 11
1.400000
 21
0.950000
 31
0.000000
  0
INSERT
  8
17
  2
OFFSETP100
 10
1.300000
 20
1.000000
 30
0.000000
 41
0.050000
 42
0.050000
 43
1.000000
 50
180.000000
  0
INSERT
  8
17
  2
OFFSETP100
 10
1.300000
 20
1.000000
 30
0.000000
 41
0.050000
 42
0.050000
 43
1.000000
 50
180.000000
  0
INSERT
  8
17
  2
OFFSETP100
 10
1.700000
 20
1.000000
 30
0.000000
 41
0.050000
 42
0.050000
 43
1.000000
 50
0.000000
  0
INSERT
  8
17
  2
OFFSETP100
 10
1.700000
 20
1.000000
 30
0.000000
 41
0.050000
 42
0.050000
 43
1.000000
 50
0.000000
  0
POINT
  8
24
 10
3.000000
 20
0.400000
 30
0.000000
  0
LINE
  8
22
 10
2.900000
 20
0.350000
 30
0.000000
 11
2.900000
 21
0.400000
 31
0.000000
  0
LINE
  8
22
 10
2.900000
 20
0.400000
 30
0.000000
 11
2.900000
 21
0.450000
 31
0.000000
  0
LINE
  8
22
 10
2.900000
 20
0.450000
 30
0.000000
 11
3.100000
 21
0.450000
 31
0.000000
  0
LINE
  8
22
 10
3.100000
 20
0.450000
 30
0.000000
 11
3.100000
 21
0.400000
 31
0.000000
  0
LINE
  8
22
 10
3.100000
 20
0.400000
 30
0.000000
 11
3.100000
 21
0.350000
 31
0.000000
  0
LINE
  8
22
 10
3.100000
 20
0.350000
 30
0.000000
 11
2.900000
 21
0.350000
 31
0.000000
  0
INSERT
  8
17
  2
OFFSETP100
 10
2.800000
 20
0.400000
 30
0.000000
 41
0.050000
 42
0.050000
 43
1.000000
 50
180.000000
  0
INSERT
  8
17
  2
OFFSETP100
 10
2.800000
 20
0.400000
 30
0.000000
 41
0.050000
 42
0.050000
 43
1.000000
 50
180.000000
  0
INSERT
  8
17
  2
OFFSETP100
 10
3.200000
 20
0.400000
 30
0.000000
 41
0.050000
 42
0.050000
 43
1.000000
 50
0.000000
  0
INSERT
  8
17
  2
OFFSETP100
 10
3.200000
 20
0.400000
 30
0.000000
 41
0.050000
 42
0.050000
 43
1.000000
 50
0.000000
  0
TEXT
  7
ISOCP
  8
22
 10
3.100000
 20
0.250000
 30
0.000000
 40
0.050000
  1
3.9k
 71
2
  0
POINT
  8
23
 10
1.950000
 20
0.350000
 30
0.000000
  0
ARC
  8
21
 10
1.950000
 20
0.453937
 30
0.000000
 40
0.146989
 50
225.000000
 51
315.000000
  0
ARC
  8
21
 10
1.950000
 20
0.246063
 30
0.000000
 40
0.146989
 50
45.000000
 51
135.000000
  0
INSERT
  8
17
  2
OFFSETP100
 10
1.850000
 20
0.350000
 30
0.000000
 41
0.050000
 42
0.050000
 43
1.000000
 50
180.000000
  0
INSERT
  8
17
  2
OFFSETP100
 10
1.850000
 20
0.350000
 30
0.000000
 41
0.050000
 42
0.050000
 43
1.000000
 50
180.000000
  0
INSERT
  8
17
  2
OFFSETP100
 10
2.050000
 20
0.350000
 30
0.000000
 41
0.050000
 42
0.050000
 43
1.000000
 50
0.000000
  0
INSERT
  8
17
  2
OFFSETP100
 10
2.050000
 20
0.350000
 30
0.000000
 41
0.050000
 42
0.050000
 43
1.000000
 50
0.000000
  0
TEXT
  7
ISOCP
  8
22
 10
2.000000
 20
0.200000
 30
0.000000
 40
0.050000
  1
103
 71
2
  0
POINT
  8
23
 10
1.950000
 20
0.450000
 30
0.000000
  0
ARC
  8
21
 10
1.950000
 20
0.553937
 30
0.000000
 40
0.146989
 50
225.000000
 51
315.000000
  0
ARC
  8
21
 10
1.950000
 20
0.346063
 30
0.000000
 40
0.146989
 50
45.000000
 51
135.000000
  0
INSERT
  8
17
  2
OFFSETP100
 10
1.850000
 20
0.450000
 30
0.000000
 41
0.050000
 42
0.050000
 43
1.000000
 50
180.000000
  0
INSERT
  8
17
  2
OFFSETP100
 10
1.850000
 20
0.450000
 30
0.000000
 41
0.050000
 42
0.050000
 43
1.000000
 50
180.000000
  0
INSERT
  8
17
  2
OFFSETP100
 10
2.050000
 20
0.450000
 30
0.000000
 41
0.050000
 42
0.050000
 43
1.000000
 50
0.000000
  0
INSERT
  8
17
  2
OFFSETP100
 10
2.050000
 20
0.450000
 30
0.000000
 41
0.050000
 42
0.050000
 43
1.000000
 50
0.000000
  0
POINT
  8
23
 10
1.950000
 20
0.550000
 30
0.000000
  0
ARC
  8
21
 10
1.950000
 20
0.653937
 30
0.000000
 40
0.146989
 50
225.000000
 51
315.000000
  0
ARC
  8
21
 10
1.950000
 20
0.446063
 30
0.000000
 40
0.146989
 50
45.000000
 51
135.000000
  0
INSERT
  8
17
  2
OFFSETP100
 10
1.850000
 20
0.550000
 30
0.000000
 41
0.050000
 42
0.050000
 43
1.000000
 50
180.000000
  0
INSERT
  8
17
  2
OFFSETP100
 10
1.850000
 20
0.550000
 30
0.000000
 41
0.050000
 42
0.050000
 43
1.000000
 50
180.000000
  0
INSERT
  8
17
  2
OFFSETP100
 10
2.050000
 20
0.550000
 30
0.000000
 41
0.050000
 42
0.050000
 43
1.000000
 50
0.000000
  0
INSERT
  8
17
  2
OFFSETP100
 10
2.050000
 20
0.550000
 30
0.000000
 41
0.050000
 42
0.050000
 43
1.000000
 50
0.000000
  0
POINT
  8
24
 10
6.550000
 20
0.700000
 30
0.000000
  0
LINE
  8
22
 10
6.600000
 20
0.600000
 30
0.000000
 11
6.550000
 21
0.600000
 31
0.000000
  0
LINE
  8
22
 10
6.550000
 20
0.600000
 30
0.000000
 11
6.500000
 21
0.600000
 31
0.000000
  0
LINE
  8
22
 10
6.500000
 20
0.600000
 30
0.000000
 11
6.500000
 21
0.800000
 31
0.000000
  0
LINE
  8
22
 10
6.500000
 20
0.800000
 30
0.000000
 11
6.550000
 21
0.800000
 31
0.000000
  0
LINE
  8
22
 10
6.550000
 20
0.800000
 30
0.000000
 11
6.600000
 21
0.800000
 31
0.000000
  0
LINE
  8
22
 10
6.600000
 20
0.800000
 30
0.000000
 11
6.600000
 21
0.600000
 31
0.000000
  0
INSERT
  8
17
  2
OFFSETP100
 10
6.550000
 20
0.500000
 30
0.000000
 41
0.050000
 42
0.050000
 43
1.000000
 50
270.000000
  0
INSERT
  8
17
  2
OFFSETP100
 10
6.550000
 20
0.500000
 30
0.000000
 41
0.050000
 42
0.050000
 43
1.000000
 50
270.000000
  0
INSERT
  8
17
  2
OFFSETP100
 10
6.550000
 20
0.900000
 30
0.000000
 41
0.050000
 42
0.050000
 43
1.000000
 50
90.000000
  0
INSERT
  8
17
  2
OFFSETP100
 10
6.550000
 20
0.900000
 30
0.000000
 41
0.050000
 42
0.050000
 43
1.000000
 50
90.000000
  0
TEXT
  7
ISOCP
  8
22
 10
6.650000
 20
0.600000
 30
0.000000
 40
0.050000
  1
470M
 50
270.000000
 71
2
  0
POINT
  8
23
 10
1.950000
 20
0.650000
 30
0.000000
  0
ARC
  8
21
 10
1.950000
 20
0.753937
 30
0.000000
 40
0.146989
 50
225.000000
 51
315.000000
  0
ARC
  8
21
 10
1.950000
 20
0.546063
 30
0.000000
 40
0.146989
 50
45.000000
 51
135.000000
  0
INSERT
  8
17
  2
OFFSETP100
 10
1.850000
 20
0.650000
 30
0.000000
 41
0.050000
 42
0.050000
 43
1.000000
 50
180.000000
  0
INSERT
  8
17
  2
OFFSETP100
 10
1.850000
 20
0.650000
 30
0.000000
 41
0.050000
 42
0.050000
 43
1.000000
 50
180.000000
  0
INSERT
  8
17
  2
OFFSETP100
 10
2.050000
 20
0.650000
 30
0.000000
 41
0.050000
 42
0.050000
 43
1.000000
 50
0.000000
  0
INSERT
  8
17
  2
OFFSETP100
 10
2.050000
 20
0.650000
 30
0.000000
 41
0.050000
 42
0.050000
 43
1.000000
 50
0.000000
  0
POINT
  8
24
 10
5.400000
 20
1.200000
 30
0.000000
  0
LINE
  8
22
 10
5.500000
 20
1.250000
 30
0.000000
 11
5.500000
 21
1.200000
 31
0.000000
  0
LINE
  8
22
 10
5.500000
 20
1.200000
 30
0.000000
 11
5.500000
 21
1.150000
 31
0.000000
  0
LINE
  8
22
 10
5.500000
 20
1.150000
 30
0.000000
 11
5.300000
 21
1.150000
 31
0.000000
  0
LINE
  8
22
 10
5.300000
 20
1.150000
 30
0.000000
 11
5.300000
 21
1.200000
 31
0.000000
  0
LINE
  8
22
 10
5.300000
 20
1.200000
 30
0.000000
 11
5.300000
 21
1.250000
 31
0.000000
  0
LINE
  8
22
 10
5.300000
 20
1.250000
 30
0.000000
 11
5.500000
 21
1.250000
 31
0.000000
  0
INSERT
  8
17
  2
OFFSETP100
 10
5.600000
 20
1.200000
 30
0.000000
 41
0.050000
 42
0.050000
 43
1.000000
 50
0.000000
  0
INSERT
  8
17
  2
OFFSETP100
 10
5.600000
 20
1.200000
 30
0.000000
 41
0.050000
 42
0.050000
 43
1.000000
 50
0.000000
  0
INSERT
  8
17
  2
OFFSETP100
 10
5.200000
 20
1.200000
 30
0.000000
 41
0.050000
 42
0.050000
 43
1.000000
 50
180.000000
  0
INSERT
  8
17
  2
OFFSETP100
 10
5.200000
 20
1.200000
 30
0.000000
 41
0.050000
 42
0.050000
 43
1.000000
 50
180.000000
  0
TEXT
  7
ISOCP
  8
22
 10
5.450000
 20
1.300000
 30
0.000000
 40
0.050000
  1
4.7k
 71
2
  0
POINT
  8
24
 10
5.400000
 20
1.100000
 30
0.000000
  0
LINE
  8
22
 10
5.500000
 20
1.150000
 30
0.000000
 11
5.500000
 21
1.100000
 31
0.000000
  0
LINE
  8
22
 10
5.500000
 20
1.100000
 30
0.000000
 11
5.500000
 21
1.050000
 31
0.000000
  0
LINE
  8
22
 10
5.500000
 20
1.050000
 30
0.000000
 11
5.300000
 21
1.050000
 31
0.000000
  0
LINE
  8
22
 10
5.300000
 20
1.050000
 30
0.000000
 11
5.300000
 21
1.100000
 31
0.000000
  0
LINE
  8
22
 10
5.300000
 20
1.100000
 30
0.000000
 11
5.300000
 21
1.150000
 31
0.000000
  0
LINE
  8
22
 10
5.300000
 20
1.150000
 30
0.000000
 11
5.500000
 21
1.150000
 31
0.000000
  0
INSERT
  8
17
  2
OFFSETP100
 10
5.600000
 20
1.100000
 30
0.000000
 41
0.050000
 42
0.050000
 43
1.000000
 50
0.000000
  0
INSERT
  8
17
  2
OFFSETP100
 10
5.600000
 20
1.100000
 30
0.000000
 41
0.050000
 42
0.050000
 43
1.000000
 50
0.000000
  0
INSERT
  8
17
  2
OFFSETP100
 10
5.200000
 20
1.100000
 30
0.000000
 41
0.050000
 42
0.050000
 43
1.000000
 50
180.000000
  0
INSERT
  8
17
  2
OFFSETP100
 10
5.200000
 20
1.100000
 30
0.000000
 41
0.050000
 42
0.050000
 43
1.000000
 50
180.000000
  0
POINT
  8
24
 10
5.400000
 20
1.000000
 30
0.000000
  0
LINE
  8
22
 10
5.500000
 20
1.050000
 30
0.000000
 11
5.500000
 21
1.000000
 31
0.000000
  0
LINE
  8
22
 10
5.500000
 20
1.000000
 30
0.000000
 11
5.500000
 21
0.950000
 31
0.000000
  0
LINE
  8
22
 10
5.500000
 20
0.950000
 30
0.000000
 11
5.300000
 21
0.950000
 31
0.000000
  0
LINE
  8
22
 10
5.300000
 20
0.950000
 30
0.000000
 11
5.300000
 21
1.000000
 31
0.000000
  0
LINE
  8
22
 10
5.300000
 20
1.000000
 30
0.000000
 11
5.300000
 21
1.050000
 31
0.000000
  0
LINE
  8
22
 10
5.300000
 20
1.050000
 30
0.000000
 11
5.500000
 21
1.050000
 31
0.000000
  0
INSERT
  8
17
  2
OFFSETP100
 10
5.600000
 20
1.000000
 30
0.000000
 41
0.050000
 42
0.050000
 43
1.000000
 50
0.000000
  0
INSERT
  8
17
  2
OFFSETP100
 10
5.600000
 20
1.000000
 30
0.000000
 41
0.050000
 42
0.050000
 43
1.000000
 50
0.000000
  0
INSERT
  8
17
  2
OFFSETP100
 10
5.200000
 20
1.000000
 30
0.000000
 41
0.050000
 42
0.050000
 43
1.000000
 50
180.000000
  0
INSERT
  8
17
  2
OFFSETP100
 10
5.200000
 20
1.000000
 30
0.000000
 41
0.050000
 42
0.050000
 43
1.000000
 50
180.000000
  0
POINT
  8
24
 10
5.400000
 20
0.900000
 30
0.000000
  0
LINE
  8
22
 10
5.500000
 20
0.950000
 30
0.000000
 11
5.500000
 21
0.900000
 31
0.000000
  0
LINE
  8
22
 10
5.500000
 20
0.900000
 30
0.000000
 11
5.500000
 21
0.850000
 31
0.000000
  0
LINE
  8
22
 10
5.500000
 20
0.850000
 30
0.000000
 11
5.300000
 21
0.850000
 31
0.000000
  0
LINE
  8
22
 10
5.300000
 20
0.850000
 30
0.000000
 11
5.300000
 21
0.900000
 31
0.000000
  0
LINE
  8
22
 10
5.300000
 20
0.900000
 30
0.000000
 11
5.300000
 21
0.950000
 31
0.000000
  0
LINE
  8
22
 10
5.300000
 20
0.950000
 30
0.000000
 11
5.500000
 21
0.950000
 31
0.000000
  0
INSERT
  8
17
  2
OFFSETP100
 10
5.600000
 20
0.900000
 30
0.000000
 41
0.050000
 42
0.050000
 43
1.000000
 50
0.000000
  0
INSERT
  8
17
  2
OFFSETP100
 10
5.600000
 20
0.900000
 30
0.000000
 41
0.050000
 42
0.050000
 43
1.000000
 50
0.000000
  0
INSERT
  8
17
  2
OFFSETP100
 10
5.200000
 20
0.900000
 30
0.000000
 41
0.050000
 42
0.050000
 43
1.000000
 50
180.000000
  0
INSERT
  8
17
  2
OFFSETP100
 10
5.200000
 20
0.900000
 30
0.000000
 41
0.050000
 42
0.050000
 43
1.000000
 50
180.000000
  0
POINT
  8
24
 10
5.400000
 20
0.800000
 30
0.000000
  0
LINE
  8
22
 10
5.500000
 20
0.850000
 30
0.000000
 11
5.500000
 21
0.800000
 31
0.000000
  0
LINE
  8
22
 10
5.500000
 20
0.800000
 30
0.000000
 11
5.500000
 21
0.750000
 31
0.000000
  0
LINE
  8
22
 10
5.500000
 20
0.750000
 30
0.000000
 11
5.300000
 21
0.750000
 31
0.000000
  0
LINE
  8
22
 10
5.300000
 20
0.750000
 30
0.000000
 11
5.300000
 21
0.800000
 31
0.000000
  0
LINE
  8
22
 10
5.300000
 20
0.800000
 30
0.000000
 11
5.300000
 21
0.850000
 31
0.000000
  0
LINE
  8
22
 10
5.300000
 20
0.850000
 30
0.000000
 11
5.500000
 21
0.850000
 31
0.000000
  0
INSERT
  8
17
  2
OFFSETP100
 10
5.600000
 20
0.800000
 30
0.000000
 41
0.050000
 42
0.050000
 43
1.000000
 50
0.000000
  0
INSERT
  8
17
  2
OFFSETP100
 10
5.600000
 20
0.800000
 30
0.000000
 41
0.050000
 42
0.050000
 43
1.000000
 50
0.000000
  0
INSERT
  8
17
  2
OFFSETP100
 10
5.200000
 20
0.800000
 30
0.000000
 41
0.050000
 42
0.050000
 43
1.000000
 50
180.000000
  0
INSERT
  8
17
  2
OFFSETP100
 10
5.200000
 20
0.800000
 30
0.000000
 41
0.050000
 42
0.050000
 43
1.000000
 50
180.000000
  0
POINT
  8
24
 10
6.550000
 20
1.300000
 30
0.000000
  0
LINE
  8
22
 10
6.600000
 20
1.200000
 30
0.000000
 11
6.550000
 21
1.200000
 31
0.000000
  0
LINE
  8
22
 10
6.550000
 20
1.200000
 30
0.000000
 11
6.500000
 21
1.200000
 31
0.000000
  0
LINE
  8
22
 10
6.500000
 20
1.200000
 30
0.000000
 11
6.500000
 21
1.400000
 31
0.000000
  0
LINE
  8
22
 10
6.500000
 20
1.400000
 30
0.000000
 11
6.550000
 21
1.400000
 31
0.000000
  0
LINE
  8
22
 10
6.550000
 20
1.400000
 30
0.000000
 11
6.600000
 21
1.400000
 31
0.000000
  0
LINE
  8
22
 10
6.600000
 20
1.400000
 30
0.000000
 11
6.600000
 21
1.200000
 31
0.000000
  0
INSERT
  8
17
  2
OFFSETP100
 10
6.550000
 20
1.100000
 30
0.000000
 41
0.050000
 42
0.050000
 43
1.000000
 50
270.000000
  0
INSERT
  8
17
  2
OFFSETP100
 10
6.550000
 20
1.100000
 30
0.000000
 41
0.050000
 42
0.050000
 43
1.000000
 50
270.000000
  0
INSERT
  8
17
  2
OFFSETP100
 10
6.550000
 20
1.500000
 30
0.000000
 41
0.050000
 42
0.050000
 43
1.000000
 50
90.000000
  0
INSERT
  8
17
  2
OFFSETP100
 10
6.550000
 20
1.500000
 30
0.000000
 41
0.050000
 42
0.050000
 43
1.000000
 50
90.000000
  0
TEXT
  7
ISOCP
  8
22
 10
6.650000
 20
1.200000
 30
0.000000
 40
0.050000
  1
470M
 50
270.000000
 71
2
  0
POINT
  8
24
 10
1.500000
 20
1.200000
 30
0.000000
  0
LINE
  8
22
 10
1.400000
 20
1.150000
 30
0.000000
 11
1.400000
 21
1.200000
 31
0.000000
  0
LINE
  8
22
 10
1.400000
 20
1.200000
 30
0.000000
 11
1.400000
 21
1.250000
 31
0.000000
  0
LINE
  8
22
 10
1.400000
 20
1.250000
 30
0.000000
 11
1.600000
 21
1.250000
 31
0.000000
  0
LINE
  8
22
 10
1.600000
 20
1.250000
 30
0.000000
 11
1.600000
 21
1.200000
 31
0.000000
  0
LINE
  8
22
 10
1.600000
 20
1.200000
 30
0.000000
 11
1.600000
 21
1.150000
 31
0.000000
  0
LINE
  8
22
 10
1.600000
 20
1.150000
 30
0.000000
 11
1.400000
 21
1.150000
 31
0.000000
  0
INSERT
  8
17
  2
OFFSETP100
 10
1.300000
 20
1.200000
 30
0.000000
 41
0.050000
 42
0.050000
 43
1.000000
 50
180.000000
  0
INSERT
  8
17
  2
OFFSETP100
 10
1.300000
 20
1.200000
 30
0.000000
 41
0.050000
 42
0.050000
 43
1.000000
 50
180.000000
  0
INSERT
  8
17
  2
OFFSETP100
 10
1.700000
 20
1.200000
 30
0.000000
 41
0.050000
 42
0.050000
 43
1.000000
 50
0.000000
  0
INSERT
  8
17
  2
OFFSETP100
 10
1.700000
 20
1.200000
 30
0.000000
 41
0.050000
 42
0.050000
 43
1.000000
 50
0.000000
  0
TEXT
  7
ISOCP
  8
22
 10
1.450000
 20
1.350000
 30
0.000000
 40
0.050000
  1
4.7k
 71
2
 72
2
 73
3
 11
1.450000
 21
1.350000
 31
0.000000
  0
POINT
  8
24
 10
1.500000
 20
1.100000
 30
0.000000
  0
LINE
  8
22
 10
1.400000
 20
1.050000
 30
0.000000
 11
1.400000
 21
1.100000
 31
0.000000
  0
LINE
  8
22
 10
1.400000
 20
1.100000
 30
0.000000
 11
1.400000
 21
1.150000
 31
0.000000
  0
LINE
  8
22
 10
1.400000
 20
1.150000
 30
0.000000
 11
1.600000
 21
1.150000
 31
0.000000
  0
LINE
  8
22
 10
1.600000
 20
1.150000
 30
0.000000
 11
1.600000
 21
1.100000
 31
0.000000
  0
LINE
  8
22
 10
1.600000
 20
1.100000
 30
0.000000
 11
1.600000
 21
1.050000
 31
0.000000
  0
LINE
  8
22
 10
1.600000
 20
1.050000
 30
0.000000
 11
1.400000
 21
1.050000
 31
0.000000
  0
INSERT
  8
17
  2
OFFSETP100
 10
1.300000
 20
1.100000
 30
0.000000
 41
0.050000
 42
0.050000
 43
1.000000
 50
180.000000
  0
INSERT
  8
17
  2
OFFSETP100
 10
1.300000
 20
1.100000
 30
0.000000
 41
0.050000
 42
0.050000
 43
1.000000
 50
180.000000
  0
INSERT
  8
17
  2
OFFSETP100
 10
1.700000
 20
1.100000
 30
0.000000
 41
0.050000
 42
0.050000
 43
1.000000
 50
0.000000
  0
INSERT
  8
17
  2
OFFSETP100
 10
1.700000
 20
1.100000
 30
0.000000
 41
0.050000
 42
0.050000
 43
1.000000
 50
0.000000
  0
POINT
  8
23
 10
4.500000
 20
0.650000
 30
0.000000
  0
ARC
  8
21
 10
4.500000
 20
0.546063
 30
0.000000
 40
0.146989
 50
45.000000
 51
135.000000
  0
ARC
  8
21
 10
4.500000
 20
0.753937
 30
0.000000
 40
0.146989
 50
225.000000
 51
315.000000
  0
INSERT
  8
17
  2
OFFSETP100
 10
4.600000
 20
0.650000
 30
0.000000
 41
0.050000
 42
0.050000
 43
1.000000
 50
0.000000
  0
INSERT
  8
17
  2
OFFSETP100
 10
4.600000
 20
0.650000
 30
0.000000
 41
0.050000
 42
0.050000
 43
1.000000
 50
0.000000
  0
INSERT
  8
17
  2
OFFSETP100
 10
4.400000
 20
0.650000
 30
0.000000
 41
0.050000
 42
0.050000
 43
1.000000
 50
180.000000
  0
INSERT
  8
17
  2
OFFSETP100
 10
4.400000
 20
0.650000
 30
0.000000
 41
0.050000
 42
0.050000
 43
1.000000
 50
180.000000
  0
POINT
  8
24
 10
1.500000
 20
0.900000
 30
0.000000
  0
LINE
  8
22
 10
1.400000
 20
0.850000
 30
0.000000
 11
1.400000
 21
0.900000
 31
0.000000
  0
LINE
  8
22
 10
1.400000
 20
0.900000
 30
0.000000
 11
1.400000
 21
0.950000
 31
0.000000
  0
LINE
  8
22
 10
1.400000
 20
0.950000
 30
0.000000
 11
1.600000
 21
0.950000
 31
0.000000
  0
LINE
  8
22
 10
1.600000
 20
0.950000
 30
0.000000
 11
1.600000
 21
0.900000
 31
0.000000
  0
LINE
  8
22
 10
1.600000
 20
0.900000
 30
0.000000
 11
1.600000
 21
0.850000
 31
0.000000
  0
LINE
  8
22
 10
1.600000
 20
0.850000
 30
0.000000
 11
1.400000
 21
0.850000
 31
0.000000
  0
INSERT
  8
17
  2
OFFSETP100
 10
1.300000
 20
0.900000
 30
0.000000
 41
0.050000
 42
0.050000
 43
1.000000
 50
180.000000
  0
INSERT
  8
17
  2
OFFSETP100
 10
1.300000
 20
0.900000
 30
0.000000
 41
0.050000
 42
0.050000
 43
1.000000
 50
180.000000
  0
INSERT
  8
17
  2
OFFSETP100
 10
1.700000
 20
0.900000
 30
0.000000
 41
0.050000
 42
0.050000
 43
1.000000
 50
0.000000
  0
INSERT
  8
17
  2
OFFSETP100
 10
1.700000
 20
0.900000
 30
0.000000
 41
0.050000
 42
0.050000
 43
1.000000
 50
0.000000
  0
POINT
  8
24
 10
1.500000
 20
0.800000
 30
0.000000
  0
LINE
  8
22
 10
1.400000
 20
0.750000
 30
0.000000
 11
1.400000
 21
0.800000
 31
0.000000
  0
LINE
  8
22
 10
1.400000
 20
0.800000
 30
0.000000
 11
1.400000
 21
0.850000
 31
0.000000
  0
LINE
  8
22
 10
1.400000
 20
0.850000
 30
0.000000
 11
1.600000
 21
0.850000
 31
0.000000
  0
LINE
  8
22
 10
1.600000
 20
0.850000
 30
0.000000
 11
1.600000
 21
0.800000
 31
0.000000
  0
LINE
  8
22
 10
1.600000
 20
0.800000
 30
0.000000
 11
1.600000
 21
0.750000
 31
0.000000
  0
LINE
  8
22
 10
1.600000
 20
0.750000
 30
0.000000
 11
1.400000
 21
0.750000
 31
0.000000
  0
INSERT
  8
17
  2
OFFSETP100
 10
1.300000
 20
0.800000
 30
0.000000
 41
0.050000
 42
0.050000
 43
1.000000
 50
180.000000
  0
INSERT
  8
17
  2
OFFSETP100
 10
1.300000
 20
0.800000
 30
0.000000
 41
0.050000
 42
0.050000
 43
1.000000
 50
180.000000
  0
INSERT
  8
17
  2
OFFSETP100
 10
1.700000
 20
0.800000
 30
0.000000
 41
0.050000
 42
0.050000
 43
1.000000
 50
0.000000
  0
INSERT
  8
17
  2
OFFSETP100
 10
1.700000
 20
0.800000
 30
0.000000
 41
0.050000
 42
0.050000
 43
1.000000
 50
0.000000
  0
POINT
  8
24
 10
0.650000
 20
1.050000
 30
0.000000
  0
LINE
  8
22
 10
0.550000
 20
1.000000
 30
0.000000
 11
0.550000
 21
1.050000
 31
0.000000
  0
LINE
  8
22
 10
0.550000
 20
1.050000
 30
0.000000
 11
0.550000
 21
1.100000
 31
0.000000
  0
LINE
  8
22
 10
0.550000
 20
1.100000
 30
0.000000
 11
0.750000
 21
1.100000
 31
0.000000
  0
LINE
  8
22
 10
0.750000
 20
1.100000
 30
0.000000
 11
0.750000
 21
1.050000
 31
0.000000
  0
LINE
  8
22
 10
0.750000
 20
1.050000
 30
0.000000
 11
0.750000
 21
1.000000
 31
0.000000
  0
LINE
  8
22
 10
0.750000
 20
1.000000
 30
0.000000
 11
0.550000
 21
1.000000
 31
0.000000
  0
INSERT
  8
17
  2
OFFSETP100
 10
0.450000
 20
1.050000
 30
0.000000
 41
0.050000
 42
0.050000
 43
1.000000
 50
180.000000
  0
INSERT
  8
17
  2
OFFSETP100
 10
0.450000
 20
1.050000
 30
0.000000
 41
0.050000
 42
0.050000
 43
1.000000
 50
180.000000
  0
INSERT
  8
17
  2
OFFSETP100
 10
0.850000
 20
1.050000
 30
0.000000
 41
0.050000
 42
0.050000
 43
1.000000
 50
0.000000
  0
INSERT
  8
17
  2
OFFSETP100
 10
0.850000
 20
1.050000
 30
0.000000
 41
0.050000
 42
0.050000
 43
1.000000
 50
0.000000
  0
TEXT
  7
ISOCP
  8
22
 10
0.750000
 20
1.150000
 30
0.000000
 40
0.050000
  1
470M
 71
2
  0
POINT
  8
24
 10
0.450000
 20
0.700000
 30
0.000000
  0
LINE
  8
22
 10
0.400000
 20
0.800000
 30
0.000000
 11
0.450000
 21
0.800000
 31
0.000000
  0
LINE
  8
22
 10
0.450000
 20
0.800000
 30
0.000000
 11
0.500000
 21
0.800000
 31
0.000000
  0
LINE
  8
22
 10
0.500000
 20
0.800000
 30
0.000000
 11
0.500000
 21
0.600000
 31
0.000000
  0
LINE
  8
22
 10
0.500000
 20
0.600000
 30
0.000000
 11
0.450000
 21
0.600000
 31
0.000000
  0
LINE
  8
22
 10
0.450000
 20
0.600000
 30
0.000000
 11
0.400000
 21
0.600000
 31
0.000000
  0
LINE
  8
22
 10
0.400000
 20
0.600000
 30
0.000000
 11
0.400000
 21
0.800000
 31
0.000000
  0
INSERT
  8
17
  2
OFFSETP100
 10
0.450000
 20
0.900000
 30
0.000000
 41
0.050000
 42
0.050000
 43
1.000000
 50
90.000000
  0
INSERT
  8
17
  2
OFFSETP100
 10
0.450000
 20
0.900000
 30
0.000000
 41
0.050000
 42
0.050000
 43
1.000000
 50
90.000000
  0
INSERT
  8
17
  2
OFFSETP100
 10
0.450000
 20
0.500000
 30
0.000000
 41
0.050000
 42
0.050000
 43
1.000000
 50
270.000000
  0
INSERT
  8
17
  2
OFFSETP100
 10
0.450000
 20
0.500000
 30
0.000000
 41
0.050000
 42
0.050000
 43
1.000000
 50
270.000000
  0
TEXT
  7
ISOCP
  8
22
 10
0.300000
 20
0.600000
 30
0.000000
 40
0.050000
  1
470M
 50
270.000000
 71
2
  0
POINT
  8
23
 10
4.500000
 20
0.550000
 30
0.000000
  0
ARC
  8
21
 10
4.500000
 20
0.446063
 30
0.000000
 40
0.146989
 50
45.000000
 51
135.000000
  0
ARC
  8
21
 10
4.500000
 20
0.653937
 30
0.000000
 40
0.146989
 50
225.000000
 51
315.000000
  0
INSERT
  8
17
  2
OFFSETP100
 10
4.600000
 20
0.550000
 30
0.000000
 41
0.050000
 42
0.050000
 43
1.000000
 50
0.000000
  0
INSERT
  8
17
  2
OFFSETP100
 10
4.600000
 20
0.550000
 30
0.000000
 41
0.050000
 42
0.050000
 43
1.000000
 50
0.000000
  0
INSERT
  8
17
  2
OFFSETP100
 10
4.400000
 20
0.550000
 30
0.000000
 41
0.050000
 42
0.050000
 43
1.000000
 50
180.000000
  0
INSERT
  8
17
  2
OFFSETP100
 10
4.400000
 20
0.550000
 30
0.000000
 41
0.050000
 42
0.050000
 43
1.000000
 50
180.000000
  0
POINT
  8
23
 10
4.500000
 20
0.450000
 30
0.000000
  0
ARC
  8
21
 10
4.500000
 20
0.346063
 30
0.000000
 40
0.146989
 50
45.000000
 51
135.000000
  0
ARC
  8
21
 10
4.500000
 20
0.553937
 30
0.000000
 40
0.146989
 50
225.000000
 51
315.000000
  0
INSERT
  8
17
  2
OFFSETP100
 10
4.600000
 20
0.450000
 30
0.000000
 41
0.050000
 42
0.050000
 43
1.000000
 50
0.000000
  0
INSERT
  8
17
  2
OFFSETP100
 10
4.600000
 20
0.450000
 30
0.000000
 41
0.050000
 42
0.050000
 43
1.000000
 50
0.000000
  0
INSERT
  8
17
  2
OFFSETP100
 10
4.400000
 20
0.450000
 30
0.000000
 41
0.050000
 42
0.050000
 43
1.000000
 50
180.000000
  0
INSERT
  8
17
  2
OFFSETP100
 10
4.400000
 20
0.450000
 30
0.000000
 41
0.050000
 42
0.050000
 43
1.000000
 50
180.000000
  0
POINT
  8
23
 10
4.500000
 20
0.350000
 30
0.000000
  0
ARC
  8
21
 10
4.500000
 20
0.246063
 30
0.000000
 40
0.146989
 50
45.000000
 51
135.000000
  0
ARC
  8
21
 10
4.500000
 20
0.453937
 30
0.000000
 40
0.146989
 50
225.000000
 51
315.000000
  0
INSERT
  8
17
  2
OFFSETP100
 10
4.600000
 20
0.350000
 30
0.000000
 41
0.050000
 42
0.050000
 43
1.000000
 50
0.000000
  0
INSERT
  8
17
  2
OFFSETP100
 10
4.600000
 20
0.350000
 30
0.000000
 41
0.050000
 42
0.050000
 43
1.000000
 50
0.000000
  0
INSERT
  8
17
  2
OFFSETP100
 10
4.400000
 20
0.350000
 30
0.000000
 41
0.050000
 42
0.050000
 43
1.000000
 50
180.000000
  0
INSERT
  8
17
  2
OFFSETP100
 10
4.400000
 20
0.350000
 30
0.000000
 41
0.050000
 42
0.050000
 43
1.000000
 50
180.000000
  0
TEXT
  7
ISOCP
  8
22
 10
4.450000
 20
0.250000
 30
0.000000
 40
0.050000
  1
103
 71
2
 72
2
 73
3
 11
4.450000
 21
0.250000
 31
0.000000
  0
LINE
  8
1
 10
5.500000
 20
0.950000
 30
0.000000
 11
5.500000
 21
0.775000
 31
0.000000
  0
LINE
  8
1
 10
5.500000
 20
0.775000
 30
0.000000
 11
5.600000
 21
0.675000
 31
0.000000
  0
LINE
  8
1
 10
5.600000
 20
0.675000
 30
0.000000
 11
5.600000
 21
0.650000
 31
0.000000
  0
LINE
  8
1
 10
5.200000
 20
1.200000
 30
0.000000
 11
5.250000
 21
1.200000
 31
0.000000
  0
LINE
  8
1
 10
5.250000
 20
1.200000
 30
0.000000
 11
5.500000
 21
0.950000
 31
0.000000
  0
LINE
  8
1
 10
5.000000
 20
1.200000
 30
0.000000
 11
5.200000
 21
1.200000
 31
0.000000
  0
LINE
  8
1
 10
5.000000
 20
1.200000
 30
0.000000
 11
4.950000
 21
1.150000
 31
0.000000
  0
LINE
  8
1
 10
4.950000
 20
1.150000
 30
0.000000
 11
4.950000
 21
1.050000
 31
0.000000
  0
LINE
  8
1
 10
4.950000
 20
1.050000
 30
0.000000
 11
4.750000
 21
1.050000
 31
0.000000
  0
LINE
  8
1
 10
4.750000
 20
1.050000
 30
0.000000
 11
4.650000
 21
0.950000
 31
0.000000
  0
LINE
  8
1
 10
4.650000
 20
0.950000
 30
0.000000
 11
4.650000
 21
0.650000
 31
0.000000
  0
LINE
  8
1
 10
4.650000
 20
0.650000
 30
0.000000
 11
4.600000
 21
0.650000
 31
0.000000
  0
LINE
  8
1
 10
5.450000
 20
0.900000
 30
0.000000
 11
5.450000
 21
0.750000
 31
0.000000
  0
LINE
  8
1
 10
5.450000
 20
0.750000
 30
0.000000
 11
5.500000
 21
0.700000
 31
0.000000
  0
LINE
  8
1
 10
5.500000
 20
0.700000
 30
0.000000
 11
5.500000
 21
0.650000
 31
0.000000
  0
LINE
  8
1
 10
5.450000
 20
0.900000
 30
0.000000
 11
5.250000
 21
1.100000
 31
0.000000
  0
LINE
  8
1
 10
5.250000
 20
1.100000
 30
0.000000
 11
5.200000
 21
1.100000
 31
0.000000
  0
LINE
  8
1
 10
5.000000
 20
1.100000
 30
0.000000
 11
5.200000
 21
1.100000
 31
0.000000
  0
LINE
  8
1
 10
5.400000
 20
0.850000
 30
0.000000
 11
5.400000
 21
0.650000
 31
0.000000
  0
LINE
  8
1
 10
5.200000
 20
1.000000
 30
0.000000
 11
5.250000
 21
1.000000
 31
0.000000
  0
LINE
  8
1
 10
5.250000
 20
1.000000
 30
0.000000
 11
5.400000
 21
0.850000
 31
0.000000
  0
LINE
  8
1
 10
5.000000
 20
1.000000
 30
0.000000
 11
5.200000
 21
1.000000
 31
0.000000
  0
LINE
  8
1
 10
5.000000
 20
1.000000
 30
0.000000
 11
4.975000
 21
1.000000
 31
0.000000
  0
LINE
  8
1
 10
4.975000
 20
1.000000
 30
0.000000
 11
4.925000
 21
0.950000
 31
0.000000
  0
LINE
  8
1
 10
4.925000
 20
0.950000
 30
0.000000
 11
4.800000
 21
0.950000
 31
0.000000
  0
LINE
  8
1
 10
4.800000
 20
0.950000
 30
0.000000
 11
4.700000
 21
0.850000
 31
0.000000
  0
LINE
  8
1
 10
4.700000
 20
0.850000
 30
0.000000
 11
4.700000
 21
0.600000
 31
0.000000
  0
LINE
  8
1
 10
4.700000
 20
0.600000
 30
0.000000
 11
4.650000
 21
0.550000
 31
0.000000
  0
LINE
  8
1
 10
4.650000
 20
0.550000
 30
0.000000
 11
4.600000
 21
0.550000
 31
0.000000
  0
LINE
  8
1
 10
5.200000
 20
0.800000
 30
0.000000
 11
5.200000
 21
0.650000
 31
0.000000
  0
LINE
  8
1
 10
5.000000
 20
0.800000
 30
0.000000
 11
5.200000
 21
0.800000
 31
0.000000
  0
LINE
  8
1
 10
5.000000
 20
0.800000
 30
0.000000
 11
5.000000
 21
0.700000
 31
0.000000
  0
LINE
  8
1
 10
5.000000
 20
0.700000
 30
0.000000
 11
4.650000
 21
0.350000
 31
0.000000
  0
LINE
  8
1
 10
4.650000
 20
0.350000
 30
0.000000
 11
4.600000
 21
0.350000
 31
0.000000
  0
LINE
  8
1
 10
6.250000
 20
1.250000
 30
0.000000
 11
5.550000
 21
1.250000
 31
0.000000
  0
LINE
  8
1
 10
5.550000
 20
1.250000
 30
0.000000
 11
5.550000
 21
1.150000
 31
0.000000
  0
LINE
  8
1
 10
5.550000
 20
1.150000
 30
0.000000
 11
5.800000
 21
1.150000
 31
0.000000
  0
LINE
  8
1
 10
5.800000
 20
1.150000
 30
0.000000
 11
5.800000
 21
0.950000
 31
0.000000
  0
LINE
  8
1
 10
5.800000
 20
0.950000
 30
0.000000
 11
5.550000
 21
0.950000
 31
0.000000
  0
LINE
  8
1
 10
5.550000
 20
0.950000
 30
0.000000
 11
5.550000
 21
0.850000
 31
0.000000
  0
LINE
  8
1
 10
5.550000
 20
0.850000
 30
0.000000
 11
5.600000
 21
0.800000
 31
0.000000
  0
LINE
  8
1
 10
6.250000
 20
1.250000
 30
0.000000
 11
6.250000
 21
1.450000
 31
0.000000
  0
LINE
  8
1
 10
5.300000
 20
0.850000
 30
0.000000
 11
5.300000
 21
0.650000
 31
0.000000
  0
LINE
  8
1
 10
5.300000
 20
0.850000
 30
0.000000
 11
5.250000
 21
0.900000
 31
0.000000
  0
LINE
  8
1
 10
5.250000
 20
0.900000
 30
0.000000
 11
5.200000
 21
0.900000
 31
0.000000
  0
LINE
  8
1
 10
5.000000
 20
0.900000
 30
0.000000
 11
5.200000
 21
0.900000
 31
0.000000
  0
LINE
  8
1
 10
5.000000
 20
0.900000
 30
0.000000
 11
4.975000
 21
0.900000
 31
0.000000
  0
LINE
  8
1
 10
4.975000
 20
0.900000
 30
0.000000
 11
4.925000
 21
0.850000
 31
0.000000
  0
LINE
  8
1
 10
4.925000
 20
0.850000
 30
0.000000
 11
4.825000
 21
0.850000
 31
0.000000
  0
LINE
  8
1
 10
4.825000
 20
0.850000
 30
0.000000
 11
4.800000
 21
0.825000
 31
0.000000
  0
LINE
  8
1
 10
4.800000
 20
0.825000
 30
0.000000
 11
4.800000
 21
0.550000
 31
0.000000
  0
LINE
  8
1
 10
4.800000
 20
0.550000
 30
0.000000
 11
4.700000
 21
0.450000
 31
0.000000
  0
LINE
  8
1
 10
4.700000
 20
0.450000
 30
0.000000
 11
4.600000
 21
0.450000
 31
0.000000
  0
LINE
  8
1
 10
2.050000
 20
0.350000
 30
0.000000
 11
2.050000
 21
0.450000
 31
0.000000
  0
LINE
  8
1
 10
2.050000
 20
0.450000
 30
0.000000
 11
2.050000
 21
0.550000
 31
0.000000
  0
LINE
  8
1
 10
2.050000
 20
0.550000
 30
0.000000
 11
2.050000
 21
0.650000
 31
0.000000
  0
LINE
  8
1
 10
0.400000
 20
1.600000
 30
0.000000
 11
0.300000
 21
1.600000
 31
0.000000
  0
LINE
  8
1
 10
0.300000
 20
1.600000
 30
0.000000
 11
0.250000
 21
1.550000
 31
0.000000
  0
LINE
  8
1
 10
0.250000
 20
1.550000
 30
0.000000
 11
0.250000
 21
1.350000
 31
0.000000
  0
LINE
  8
1
 10
0.250000
 20
1.350000
 30
0.000000
 11
0.450000
 21
1.150000
 31
0.000000
  0
LINE
  8
1
 10
0.450000
 20
1.150000
 30
0.000000
 11
0.450000
 21
1.050000
 31
0.000000
  0
LINE
  8
1
 10
0.450000
 20
1.050000
 30
0.000000
 11
0.450000
 21
0.950000
 31
0.000000
  0
LINE
  8
1
 10
0.450000
 20
0.950000
 30
0.000000
 11
0.450000
 21
0.900000
 31
0.000000
  0
LINE
  8
1
 10
0.450000
 20
0.900000
 30
0.000000
 11
0.350000
 21
0.900000
 31
0.000000
  0
LINE
  8
1
 10
0.350000
 20
0.900000
 30
0.000000
 11
0.150000
 21
0.700000
 31
0.000000
  0
LINE
  8
1
 10
0.150000
 20
0.700000
 30
0.000000
 11
0.150000
 21
0.350000
 31
0.000000
  0
LINE
  8
1
 10
0.150000
 20
0.350000
 30
0.000000
 11
0.350000
 21
0.150000
 31
0.000000
  0
LINE
  8
1
 10
0.350000
 20
0.150000
 30
0.000000
 11
1.050000
 21
0.150000
 31
0.000000
  0
LINE
  8
1
 10
1.050000
 20
0.150000
 30
0.000000
 11
1.100000
 21
0.200000
 31
0.000000
  0
LINE
  8
1
 10
1.100000
 20
0.200000
 30
0.000000
 11
1.100000
 21
0.300000
 31
0.000000
  0
LINE
  8
1
 10
1.100000
 20
0.300000
 30
0.000000
 11
1.050000
 21
0.350000
 31
0.000000
  0
LINE
  8
1
 10
1.050000
 20
0.350000
 30
0.000000
 11
0.950000
 21
0.350000
 31
0.000000
  0
LINE
  8
1
 10
1.800000
 20
1.550000
 30
0.000000
 11
1.700000
 21
1.550000
 31
0.000000
  0
LINE
  8
1
 10
1.700000
 20
1.550000
 30
0.000000
 11
1.650000
 21
1.500000
 31
0.000000
  0
LINE
  8
1
 10
1.650000
 20
1.500000
 30
0.000000
 11
1.350000
 21
1.500000
 31
0.000000
  0
LINE
  8
1
 10
1.350000
 20
1.500000
 30
0.000000
 11
1.050000
 21
1.200000
 31
0.000000
  0
LINE
  8
1
 10
1.050000
 20
1.200000
 30
0.000000
 11
1.050000
 21
1.000000
 31
0.000000
  0
LINE
  8
1
 10
1.050000
 20
1.000000
 30
0.000000
 11
1.000000
 21
0.950000
 31
0.000000
  0
LINE
  8
1
 10
1.000000
 20
0.950000
 30
0.000000
 11
0.450000
 21
0.950000
 31
0.000000
  0
LINE
  8
1
 10
4.400000
 20
0.650000
 30
0.000000
 11
4.400000
 21
0.550000
 31
0.000000
  0
LINE
  8
1
 10
4.400000
 20
0.550000
 30
0.000000
 11
4.400000
 21
0.450000
 31
0.000000
  0
LINE
  8
1
 10
4.400000
 20
0.450000
 30
0.000000
 11
4.400000
 21
0.350000
 31
0.000000
  0
LINE
  8
1
 10
4.100000
 20
0.600000
 30
0.000000
 11
4.300000
 21
0.600000
 31
0.000000
  0
LINE
  8
1
 10
4.300000
 20
0.600000
 30
0.000000
 11
4.350000
 21
0.650000
 31
0.000000
  0
LINE
  8
1
 10
4.350000
 20
0.650000
 30
0.000000
 11
4.400000
 21
0.650000
 31
0.000000
  0
LINE
  8
1
 10
2.950000
 20
1.450000
 30
0.000000
 11
2.850000
 21
1.450000
 31
0.000000
  0
LINE
  8
1
 10
2.850000
 20
1.450000
 30
0.000000
 11
2.750000
 21
1.450000
 31
0.000000
  0
LINE
  8
1
 10
2.950000
 20
1.450000
 30
0.000000
 11
3.050000
 21
1.450000
 31
0.000000
  0
LINE
  8
1
 10
3.050000
 20
1.450000
 30
0.000000
 11
3.200000
 21
1.300000
 31
0.000000
  0
LINE
  8
1
 10
3.200000
 20
1.300000
 30
0.000000
 11
3.200000
 21
0.900000
 31
0.000000
  0
LINE
  8
1
 10
6.550000
 20
0.900000
 30
0.000000
 11
6.550000
 21
1.100000
 31
0.000000
  0
LINE
  8
1
 10
6.550000
 20
1.100000
 30
0.000000
 11
6.550000
 21
1.300000
 31
0.000000
  0
LINE
  8
1
 10
6.550000
 20
1.300000
 30
0.000000
 11
6.300000
 21
1.550000
 31
0.000000
  0
LINE
  8
1
 10
6.300000
 20
1.550000
 30
0.000000
 11
6.250000
 21
1.550000
 31
0.000000
  0
LINE
  8
1
 10
6.550000
 20
0.900000
 30
0.000000
 11
6.550000
 21
0.650000
 31
0.000000
  0
LINE
  8
1
 10
6.550000
 20
0.650000
 30
0.000000
 11
6.650000
 21
0.550000
 31
0.000000
  0
LINE
  8
1
 10
6.650000
 20
0.550000
 30
0.000000
 11
6.650000
 21
0.450000
 31
0.000000
  0
LINE
  8
1
 10
6.650000
 20
0.450000
 30
0.000000
 11
6.550000
 21
0.350000
 31
0.000000
  0
LINE
  8
1
 10
6.550000
 20
0.350000
 30
0.000000
 11
6.250000
 21
0.350000
 31
0.000000
  0
LINE
  8
1
 10
4.900000
 20
0.900000
 30
0.000000
 11
4.800000
 21
0.900000
 31
0.000000
  0
LINE
  8
1
 10
4.800000
 20
0.900000
 30
0.000000
 11
4.750000
 21
0.850000
 31
0.000000
  0
LINE
  8
1
 10
4.750000
 20
0.850000
 30
0.000000
 11
4.750000
 21
0.550000
 31
0.000000
  0
LINE
  8
1
 10
4.750000
 20
0.550000
 30
0.000000
 11
4.700000
 21
0.500000
 31
0.000000
  0
LINE
  8
1
 10
4.700000
 20
0.500000
 30
0.000000
 11
4.550000
 21
0.500000
 31
0.000000
  0
LINE
  8
1
 10
4.550000
 20
0.500000
 30
0.000000
 11
4.400000
 21
0.650000
 31
0.000000
  0
LINE
  8
1
 10
4.900000
 20
0.900000
 30
0.000000
 11
4.925000
 21
0.900000
 31
0.000000
  0
LINE
  8
1
 10
4.925000
 20
0.900000
 30
0.000000
 11
4.975000
 21
0.950000
 31
0.000000
  0
LINE
  8
1
 10
4.975000
 20
0.950000
 30
0.000000
 11
5.250000
 21
0.950000
 31
0.000000
  0
LINE
  8
1
 10
5.250000
 20
0.950000
 30
0.000000
 11
5.350000
 21
0.850000
 31
0.000000
  0
LINE
  8
1
 10
5.350000
 20
0.850000
 30
0.000000
 11
5.350000
 21
0.600000
 31
0.000000
  0
LINE
  8
1
 10
5.350000
 20
0.600000
 30
0.000000
 11
5.650000
 21
0.600000
 31
0.000000
  0
LINE
  8
1
 10
5.650000
 20
0.600000
 30
0.000000
 11
5.650000
 21
0.750000
 31
0.000000
  0
LINE
  8
1
 10
5.650000
 20
0.750000
 30
0.000000
 11
5.575000
 21
0.750000
 31
0.000000
  0
LINE
  8
1
 10
5.575000
 20
0.750000
 30
0.000000
 11
5.525000
 21
0.800000
 31
0.000000
  0
LINE
  8
1
 10
5.525000
 20
0.800000
 30
0.000000
 11
5.525000
 21
0.975000
 31
0.000000
  0
LINE
  8
1
 10
5.525000
 20
0.975000
 30
0.000000
 11
5.450000
 21
1.050000
 31
0.000000
  0
LINE
  8
1
 10
5.450000
 20
1.050000
 30
0.000000
 11
5.450000
 21
1.250000
 31
0.000000
  0
LINE
  8
1
 10
5.450000
 20
1.250000
 30
0.000000
 11
5.700000
 21
1.500000
 31
0.000000
  0
LINE
  8
1
 10
5.700000
 20
1.500000
 30
0.000000
 11
6.200000
 21
1.500000
 31
0.000000
  0
LINE
  8
1
 10
6.200000
 20
1.500000
 30
0.000000
 11
6.250000
 21
1.550000
 31
0.000000
  0
LINE
  8
16
 10
1.800000
 20
1.550000
 30
0.000000
 11
1.950000
 21
1.550000
 31
0.000000
  0
LINE
  8
16
 10
1.950000
 20
1.550000
 30
0.000000
 11
2.150000
 21
1.550000
 31
0.000000
  0
LINE
  8
16
 10
2.150000
 20
1.550000
 30
0.000000
 11
2.250000
 21
1.450000
 31
0.000000
  0
LINE
  8
16
 10
2.250000
 20
1.450000
 30
0.000000
 11
2.750000
 21
1.450000
 31
0.000000
  0
LINE
  8
16
 10
2.050000
 20
0.650000
 30
0.000000
 11
1.950000
 21
0.750000
 31
0.000000
  0
LINE
  8
16
 10
1.950000
 20
0.750000
 30
0.000000
 11
1.950000
 21
1.550000
 31
0.000000
  0
LINE
  8
1
 10
3.600000
 20
0.400000
 30
0.000000
 11
3.500000
 21
0.400000
 31
0.000000
  0
LINE
  8
1
 10
3.500000
 20
0.400000
 30
0.000000
 11
3.400000
 21
0.500000
 31
0.000000
  0
LINE
  8
1
 10
3.400000
 20
0.500000
 30
0.000000
 11
3.400000
 21
0.600000
 31
0.000000
  0
LINE
  8
1
 10
4.100000
 20
0.600000
 30
0.000000
 11
4.100000
 21
0.350000
 31
0.000000
  0
LINE
  8
16
 10
4.100000
 20
0.350000
 30
0.000000
 11
3.650000
 21
0.350000
 31
0.000000
  0
LINE
  8
16
 10
3.650000
 20
0.350000
 30
0.000000
 11
3.600000
 21
0.400000
 31
0.000000
  0
LINE
  8
16
 10
3.400000
 20
0.600000
 30
0.000000
 11
3.400000
 21
0.500000
 31
0.000000
  0
LINE
  8
16
 10
3.400000
 20
0.500000
 30
0.000000
 11
2.950000
 21
0.500000
 31
0.000000
  0
LINE
  8
16
 10
2.950000
 20
0.500000
 30
0.000000
 11
2.950000
 21
0.700000
 31
0.000000
  0
LINE
  8
16
 10
2.950000
 20
0.700000
 30
0.000000
 11
3.200000
 21
0.900000
 31
0.000000
  0
LINE
  8
16
 10
3.200000
 20
0.950000
 30
0.000000
 11
3.200000
 21
0.900000
 31
0.000000
  0
INSERT
  8
18
  2
SQUAREV
 10
4.100000
 20
0.350000
 30
0.000000
 41
0.039622
 42
0.039622
 43
1.000000
 50
0.000000
  0
INSERT
  8
18
  2
SQUAREV
 10
4.100000
 20
0.350000
 30
0.000000
 41
0.039622
 42
0.039622
 43
1.000000
 50
0.000000
  0
LINE
  8
1
 10
2.750000
 20
1.250000
 30
0.000000
 11
2.850000
 21
1.250000
 31
0.000000
  0
LINE
  8
1
 10
2.850000
 20
1.250000
 30
0.000000
 11
2.950000
 21
1.250000
 31
0.000000
  0
LINE
  8
1
 10
3.300000
 20
0.900000
 30
0.000000
 11
3.300000
 21
1.250000
 31
0.000000
  0
LINE
  8
1
 10
3.300000
 20
1.250000
 30
0.000000
 11
3.050000
 21
1.500000
 31
0.000000
  0
LINE
  8
1
 10
3.050000
 20
1.500000
 30
0.000000
 11
2.600000
 21
1.500000
 31
0.000000
  0
LINE
  8
1
 10
2.600000
 20
1.500000
 30
0.000000
 11
2.600000
 21
1.250000
 31
0.000000
  0
LINE
  8
1
 10
2.600000
 20
1.250000
 30
0.000000
 11
2.750000
 21
1.250000
 31
0.000000
  0
LINE
  8
1
 10
0.650000
 20
0.350000
 30
0.000000
 11
0.750000
 21
0.350000
 31
0.000000
  0
LINE
  8
1
 10
0.750000
 20
0.350000
 30
0.000000
 11
0.850000
 21
0.450000
 31
0.000000
  0
LINE
  8
1
 10
0.850000
 20
0.450000
 30
0.000000
 11
0.950000
 21
0.450000
 31
0.000000
  0
LINE
  8
1
 10
1.500000
 20
1.550000
 30
0.000000
 11
1.600000
 21
1.550000
 31
0.000000
  0
LINE
  8
1
 10
1.600000
 20
1.550000
 30
0.000000
 11
1.700000
 21
1.650000
 31
0.000000
  0
LINE
  8
1
 10
1.700000
 20
1.650000
 30
0.000000
 11
1.800000
 21
1.650000
 31
0.000000
  0
LINE
  8
1
 10
1.300000
 20
0.250000
 30
0.000000
 11
1.400000
 21
0.250000
 31
0.000000
  0
LINE
  8
1
 10
1.500000
 20
0.250000
 30
0.000000
 11
1.400000
 21
0.250000
 31
0.000000
  0
LINE
  8
1
 10
1.500000
 20
0.250000
 30
0.000000
 11
1.600000
 21
0.250000
 31
0.000000
  0
LINE
  8
1
 10
1.300000
 20
0.250000
 30
0.000000
 11
1.100000
 21
0.450000
 31
0.000000
  0
LINE
  8
1
 10
1.100000
 20
0.450000
 30
0.000000
 11
0.950000
 21
0.450000
 31
0.000000
  0
LINE
  8
1
 10
5.200000
 20
0.250000
 30
0.000000
 11
5.300000
 21
0.250000
 31
0.000000
  0
LINE
  8
1
 10
5.400000
 20
0.250000
 30
0.000000
 11
5.300000
 21
0.250000
 31
0.000000
  0
LINE
  8
1
 10
5.400000
 20
0.250000
 30
0.000000
 11
5.500000
 21
0.250000
 31
0.000000
  0
LINE
  8
1
 10
5.500000
 20
0.250000
 30
0.000000
 11
5.600000
 21
0.250000
 31
0.000000
  0
LINE
  8
1
 10
6.250000
 20
1.650000
 30
0.000000
 11
6.150000
 21
1.650000
 31
0.000000
  0
LINE
  8
1
 10
6.050000
 20
1.550000
 30
0.000000
 11
5.950000
 21
1.550000
 31
0.000000
  0
LINE
  8
1
 10
6.250000
 20
0.450000
 30
0.000000
 11
6.200000
 21
0.450000
 31
0.000000
  0
LINE
  8
1
 10
6.200000
 20
0.450000
 30
0.000000
 11
6.200000
 21
0.300000
 31
0.000000
  0
LINE
  8
1
 10
6.200000
 20
0.300000
 30
0.000000
 11
6.350000
 21
0.300000
 31
0.000000
  0
LINE
  8
1
 10
6.350000
 20
0.300000
 30
0.000000
 11
6.400000
 21
0.250000
 31
0.000000
  0
LINE
  8
1
 10
6.400000
 20
0.250000
 30
0.000000
 11
6.400000
 21
0.150000
 31
0.000000
  0
LINE
  8
1
 10
6.400000
 20
0.150000
 30
0.000000
 11
5.700000
 21
0.150000
 31
0.000000
  0
LINE
  8
1
 10
5.700000
 20
0.150000
 30
0.000000
 11
5.600000
 21
0.250000
 31
0.000000
  0
LINE
  8
1
 10
5.950000
 20
0.350000
 30
0.000000
 11
5.700000
 21
0.350000
 31
0.000000
  0
LINE
  8
1
 10
5.700000
 20
0.350000
 30
0.000000
 11
5.600000
 21
0.250000
 31
0.000000
  0
LINE
  8
1
 10
6.050000
 20
1.550000
 30
0.000000
 11
6.150000
 21
1.650000
 31
0.000000
  0
LINE
  8
1
 10
6.250000
 20
1.650000
 30
0.000000
 11
6.300000
 21
1.650000
 31
0.000000
  0
LINE
  8
1
 10
6.300000
 20
1.650000
 30
0.000000
 11
6.700000
 21
1.250000
 31
0.000000
  0
LINE
  8
1
 10
6.700000
 20
1.250000
 30
0.000000
 11
6.700000
 21
0.450000
 31
0.000000
  0
LINE
  8
1
 10
6.700000
 20
0.450000
 30
0.000000
 11
6.400000
 21
0.150000
 31
0.000000
  0
LINE
  8
1
 10
6.000000
 20
0.600000
 30
0.000000
 11
6.000000
 21
0.400000
 31
0.000000
  0
LINE
  8
1
 10
6.000000
 20
0.400000
 30
0.000000
 11
5.950000
 21
0.350000
 31
0.000000
  0
LINE
  8
1
 10
1.500000
 20
1.550000
 30
0.000000
 11
1.300000
 21
1.550000
 31
0.000000
  0
LINE
  8
1
 10
1.300000
 20
1.550000
 30
0.000000
 11
1.000000
 21
1.250000
 31
0.000000
  0
LINE
  8
1
 10
1.000000
 20
1.250000
 30
0.000000
 11
1.000000
 21
1.050000
 31
0.000000
  0
LINE
  8
1
 10
1.000000
 20
1.050000
 30
0.000000
 11
0.950000
 21
1.000000
 31
0.000000
  0
LINE
  8
1
 10
0.950000
 20
1.000000
 30
0.000000
 11
0.700000
 21
1.000000
 31
0.000000
  0
LINE
  8
1
 10
0.700000
 20
1.000000
 30
0.000000
 11
0.300000
 21
1.400000
 31
0.000000
  0
LINE
  8
1
 10
0.450000
 20
1.550000
 30
0.000000
 11
0.350000
 21
1.550000
 31
0.000000
  0
LINE
  8
1
 10
0.350000
 20
1.550000
 30
0.000000
 11
0.300000
 21
1.500000
 31
0.000000
  0
LINE
  8
1
 10
0.300000
 20
1.500000
 30
0.000000
 11
0.300000
 21
1.400000
 31
0.000000
  0
LINE
  8
16
 10
2.600000
 20
1.500000
 30
0.000000
 11
2.300000
 21
1.500000
 31
0.000000
  0
LINE
  8
1
 10
3.150000
 20
0.150000
 30
0.000000
 11
4.800000
 21
0.150000
 31
0.000000
  0
LINE
  8
1
 10
4.800000
 20
0.150000
 30
0.000000
 11
4.900000
 21
0.250000
 31
0.000000
  0
LINE
  8
1
 10
4.900000
 20
0.250000
 30
0.000000
 11
5.200000
 21
0.250000
 31
0.000000
  0
LINE
  8
1
 10
3.300000
 20
0.900000
 30
0.000000
 11
3.250000
 21
0.850000
 31
0.000000
  0
LINE
  8
16
 10
3.250000
 20
0.850000
 30
0.000000
 11
3.000000
 21
0.650000
 31
0.000000
  0
LINE
  8
16
 10
3.000000
 20
0.650000
 30
0.000000
 11
3.000000
 21
0.600000
 31
0.000000
  0
LINE
  8
1
 10
0.500000
 20
1.600000
 30
0.000000
 11
0.500000
 21
1.700000
 31
0.000000
  0
LINE
  8
1
 10
0.500000
 20
1.700000
 30
0.000000
 11
0.300000
 21
1.700000
 31
0.000000
  0
LINE
  8
1
 10
0.300000
 20
1.700000
 30
0.000000
 11
0.200000
 21
1.600000
 31
0.000000
  0
LINE
  8
1
 10
0.200000
 20
1.600000
 30
0.000000
 11
0.200000
 21
0.850000
 31
0.000000
  0
LINE
  8
1
 10
0.200000
 20
0.850000
 30
0.000000
 11
0.100000
 21
0.750000
 31
0.000000
  0
LINE
  8
1
 10
0.100000
 20
0.750000
 30
0.000000
 11
0.100000
 21
0.300000
 31
0.000000
  0
LINE
  8
1
 10
0.100000
 20
0.300000
 30
0.000000
 11
0.300000
 21
0.100000
 31
0.000000
  0
LINE
  8
1
 10
0.300000
 20
0.100000
 30
0.000000
 11
1.150000
 21
0.100000
 31
0.000000
  0
LINE
  8
1
 10
1.150000
 20
0.100000
 30
0.000000
 11
1.300000
 21
0.250000
 31
0.000000
  0
LINE
  8
1
 10
0.450000
 20
1.550000
 30
0.000000
 11
0.500000
 21
1.600000
 31
0.000000
  0
LINE
  8
1
 10
4.900000
 20
0.800000
 30
0.000000
 11
4.925000
 21
0.800000
 31
0.000000
  0
LINE
  8
1
 10
4.925000
 20
0.800000
 30
0.000000
 11
4.975000
 21
0.850000
 31
0.000000
  0
LINE
  8
1
 10
4.975000
 20
0.850000
 30
0.000000
 11
5.225000
 21
0.850000
 31
0.000000
  0
LINE
  8
1
 10
5.225000
 20
0.850000
 30
0.000000
 11
5.250000
 21
0.825000
 31
0.000000
  0
LINE
  8
1
 10
5.250000
 20
0.825000
 30
0.000000
 11
5.250000
 21
0.550000
 31
0.000000
  0
LINE
  8
1
 10
5.250000
 20
0.550000
 30
0.000000
 11
5.750000
 21
0.550000
 31
0.000000
  0
LINE
  8
1
 10
5.750000
 20
0.550000
 30
0.000000
 11
5.800000
 21
0.600000
 31
0.000000
  0
LINE
  8
1
 10
5.800000
 20
0.600000
 30
0.000000
 11
6.000000
 21
0.600000
 31
0.000000
  0
LINE
  8
16
 10
2.300000
 20
1.500000
 30
0.000000
 11
2.150000
 21
1.650000
 31
0.000000
  0
LINE
  8
16
 10
2.150000
 20
1.650000
 30
0.000000
 11
1.800000
 21
1.650000
 31
0.000000
  0
LINE
  8
1
 10
2.200000
 20
0.250000
 30
0.000000
 11
2.300000
 21
0.250000
 31
0.000000
  0
LINE
  8
1
 10
2.300000
 20
0.250000
 30
0.000000
 11
2.400000
 21
0.250000
 31
0.000000
  0
LINE
  8
1
 10
2.400000
 20
0.250000
 30
0.000000
 11
2.500000
 21
0.250000
 31
0.000000
  0
LINE
  8
1
 10
2.750000
 20
0.400000
 30
0.000000
 11
2.600000
 21
0.250000
 31
0.000000
  0
LINE
  8
1
 10
2.600000
 20
0.250000
 30
0.000000
 11
2.500000
 21
0.250000
 31
0.000000
  0
LINE
  8
1
 10
2.750000
 20
0.400000
 30
0.000000
 11
2.800000
 21
0.400000
 31
0.000000
  0
LINE
  8
1
 10
2.800000
 20
0.400000
 30
0.000000
 11
2.900000
 21
0.400000
 31
0.000000
  0
LINE
  8
1
 10
2.900000
 20
0.400000
 30
0.000000
 11
3.150000
 21
0.150000
 31
0.000000
  0
LINE
  8
1
 10
1.600000
 20
0.250000
 30
0.000000
 11
1.700000
 21
0.250000
 31
0.000000
  0
LINE
  8
1
 10
1.700000
 20
0.250000
 30
0.000000
 11
1.750000
 21
0.150000
 31
0.000000
  0
LINE
  8
1
 10
1.750000
 20
0.150000
 30
0.000000
 11
2.150000
 21
0.150000
 31
0.000000
  0
LINE
  8
1
 10
2.150000
 20
0.150000
 30
0.000000
 11
2.200000
 21
0.250000
 31
0.000000
  0
INSERT
  8
18
  2
SQUAREV
 10
2.600000
 20
1.500000
 30
0.000000
 41
0.039622
 42
0.039622
 43
1.000000
 50
0.000000
  0
INSERT
  8
18
  2
SQUAREV
 10
2.600000
 20
1.500000
 30
0.000000
 41
0.039622
 42
0.039622
 43
1.000000
 50
0.000000
  0
INSERT
  8
18
  2
SQUAREV
 10
3.250000
 20
0.850000
 30
0.000000
 41
0.039622
 42
0.039622
 43
1.000000
 50
0.000000
  0
INSERT
  8
18
  2
SQUAREV
 10
3.250000
 20
0.850000
 30
0.000000
 41
0.039622
 42
0.039622
 43
1.000000
 50
0.000000
  0
LINE
  8
1
 10
1.500000
 20
1.000000
 30
0.000000
 11
1.500000
 21
0.900000
 31
0.000000
  0
LINE
  8
1
 10
1.500000
 20
0.900000
 30
0.000000
 11
1.300000
 21
0.700000
 31
0.000000
  0
LINE
  8
1
 10
1.300000
 20
0.700000
 30
0.000000
 11
1.300000
 21
0.650000
 31
0.000000
  0
LINE
  8
1
 10
1.700000
 20
1.200000
 30
0.000000
 11
1.500000
 21
1.000000
 31
0.000000
  0
LINE
  8
1
 10
1.900000
 20
1.200000
 30
0.000000
 11
1.700000
 21
1.200000
 31
0.000000
  0
LINE
  8
1
 10
1.300000
 20
0.650000
 30
0.000000
 11
1.550000
 21
0.400000
 31
0.000000
  0
LINE
  8
1
 10
1.550000
 20
0.400000
 30
0.000000
 11
1.800000
 21
0.400000
 31
0.000000
  0
LINE
  8
1
 10
1.800000
 20
0.400000
 30
0.000000
 11
1.850000
 21
0.350000
 31
0.000000
  0
LINE
  8
1
 10
1.550000
 20
0.950000
 30
0.000000
 11
1.550000
 21
0.850000
 31
0.000000
  0
LINE
  8
1
 10
1.550000
 20
0.850000
 30
0.000000
 11
1.400000
 21
0.700000
 31
0.000000
  0
LINE
  8
1
 10
1.400000
 20
0.700000
 30
0.000000
 11
1.400000
 21
0.650000
 31
0.000000
  0
LINE
  8
1
 10
1.700000
 20
1.100000
 30
0.000000
 11
1.550000
 21
0.950000
 31
0.000000
  0
LINE
  8
1
 10
1.900000
 20
1.100000
 30
0.000000
 11
1.700000
 21
1.100000
 31
0.000000
  0
LINE
  8
1
 10
1.400000
 20
0.650000
 30
0.000000
 11
1.600000
 21
0.450000
 31
0.000000
  0
LINE
  8
1
 10
1.600000
 20
0.450000
 30
0.000000
 11
1.850000
 21
0.450000
 31
0.000000
  0
LINE
  8
1
 10
1.400000
 20
1.000000
 30
0.000000
 11
1.700000
 21
1.300000
 31
0.000000
  0
LINE
  8
1
 10
1.700000
 20
1.300000
 30
0.000000
 11
1.900000
 21
1.300000
 31
0.000000
  0
LINE
  8
1
 10
1.900000
 20
1.300000
 30
0.000000
 11
1.950000
 21
1.250000
 31
0.000000
  0
LINE
  8
1
 10
1.950000
 20
1.250000
 30
0.000000
 11
1.950000
 21
0.750000
 31
0.000000
  0
LINE
  8
1
 10
1.950000
 20
0.750000
 30
0.000000
 11
2.000000
 21
0.700000
 31
0.000000
  0
LINE
  8
1
 10
2.000000
 20
0.700000
 30
0.000000
 11
2.150000
 21
0.700000
 31
0.000000
  0
LINE
  8
1
 10
2.150000
 20
0.700000
 30
0.000000
 11
2.150000
 21
0.600000
 31
0.000000
  0
LINE
  8
16
 10
3.450000
 20
0.450000
 30
0.000000
 11
2.550000
 21
0.450000
 31
0.000000
  0
LINE
  8
1
 10
2.550000
 20
0.450000
 30
0.000000
 11
2.300000
 21
0.450000
 31
0.000000
  0
LINE
  8
1
 10
2.300000
 20
0.450000
 30
0.000000
 11
2.150000
 21
0.600000
 31
0.000000
  0
LINE
  8
16
 10
3.450000
 20
0.450000
 30
0.000000
 11
3.500000
 21
0.500000
 31
0.000000
  0
LINE
  8
16
 10
3.500000
 20
0.500000
 30
0.000000
 11
3.500000
 21
0.600000
 31
0.000000
  0
LINE
  8
1
 10
1.300000
 20
1.000000
 30
0.000000
 11
1.400000
 21
1.000000
 31
0.000000
  0
INSERT
  8
18
  2
SQUAREV
 10
2.550000
 20
0.450000
 30
0.000000
 41
0.039622
 42
0.039622
 43
1.000000
 50
0.000000
  0
INSERT
  8
18
  2
SQUAREV
 10
2.550000
 20
0.450000
 30
0.000000
 41
0.039622
 42
0.039622
 43
1.000000
 50
0.000000
  0
LINE
  8
1
 10
1.650000
 20
0.850000
 30
0.000000
 11
1.650000
 21
0.750000
 31
0.000000
  0
LINE
  8
1
 10
1.650000
 20
0.750000
 30
0.000000
 11
1.600000
 21
0.700000
 31
0.000000
  0
LINE
  8
1
 10
1.600000
 20
0.700000
 30
0.000000
 11
1.600000
 21
0.650000
 31
0.000000
  0
LINE
  8
1
 10
1.650000
 20
0.850000
 30
0.000000
 11
1.700000
 21
0.900000
 31
0.000000
  0
LINE
  8
1
 10
1.900000
 20
0.900000
 30
0.000000
 11
1.700000
 21
0.900000
 31
0.000000
  0
LINE
  8
1
 10
1.600000
 20
0.650000
 30
0.000000
 11
1.700000
 21
0.550000
 31
0.000000
  0
LINE
  8
1
 10
1.700000
 20
0.550000
 30
0.000000
 11
1.850000
 21
0.550000
 31
0.000000
  0
LINE
  8
1
 10
1.700000
 20
0.650000
 30
0.000000
 11
1.700000
 21
0.800000
 31
0.000000
  0
LINE
  8
1
 10
1.900000
 20
0.800000
 30
0.000000
 11
1.700000
 21
0.800000
 31
0.000000
  0
LINE
  8
1
 10
1.700000
 20
0.650000
 30
0.000000
 11
1.850000
 21
0.650000
 31
0.000000
  0
LINE
  8
1
 10
0.450000
 20
0.800000
 30
0.000000
 11
0.250000
 21
0.600000
 31
0.000000
  0
LINE
  8
1
 10
0.250000
 20
0.600000
 30
0.000000
 11
0.250000
 21
0.450000
 31
0.000000
  0
LINE
  8
1
 10
0.250000
 20
0.450000
 30
0.000000
 11
0.400000
 21
0.300000
 31
0.000000
  0
LINE
  8
1
 10
0.400000
 20
0.300000
 30
0.000000
 11
0.850000
 21
0.300000
 31
0.000000
  0
LINE
  8
1
 10
0.850000
 20
0.300000
 30
0.000000
 11
0.900000
 21
0.250000
 31
0.000000
  0
LINE
  8
1
 10
0.900000
 20
0.250000
 30
0.000000
 11
0.950000
 21
0.250000
 31
0.000000
  0
LINE
  8
1
 10
1.300000
 20
0.800000
 30
0.000000
 11
0.450000
 21
0.800000
 31
0.000000
  0
LINE
  8
1
 10
5.600000
 20
0.900000
 30
0.000000
 11
5.850000
 21
0.900000
 31
0.000000
  0
LINE
  8
1
 10
5.850000
 20
0.900000
 30
0.000000
 11
6.050000
 21
0.700000
 31
0.000000
  0
LINE
  8
1
 10
6.050000
 20
0.700000
 30
0.000000
 11
6.050000
 21
0.350000
 31
0.000000
  0
LINE
  8
1
 10
6.050000
 20
0.350000
 30
0.000000
 11
6.000000
 21
0.300000
 31
0.000000
  0
LINE
  8
1
 10
6.000000
 20
0.300000
 30
0.000000
 11
5.850000
 21
0.300000
 31
0.000000
  0
LINE
  8
1
 10
5.850000
 20
0.300000
 30
0.000000
 11
5.850000
 21
0.200000
 31
0.000000
  0
LINE
  8
1
 10
5.850000
 20
0.200000
 30
0.000000
 11
6.150000
 21
0.200000
 31
0.000000
  0
LINE
  8
1
 10
6.150000
 20
0.200000
 30
0.000000
 11
6.200000
 21
0.250000
 31
0.000000
  0
LINE
  8
1
 10
6.200000
 20
0.250000
 30
0.000000
 11
6.250000
 21
0.250000
 31
0.000000
  0
LINE
  8
1
 10
2.200000
 20
1.050000
 30
0.000000
 11
2.200000
 21
1.650000
 31
0.000000
  0
LINE
  8
1
 10
2.200000
 20
1.650000
 30
0.000000
 11
2.350000
 21
1.800000
 31
0.000000
  0
LINE
  8
1
 10
2.350000
 20
1.800000
 30
0.000000
 11
3.300000
 21
1.800000
 31
0.000000
  0
LINE
  8
1
 10
3.300000
 20
1.800000
 30
0.000000
 11
4.100000
 21
1.000000
 31
0.000000
  0
LINE
  8
1
 10
4.100000
 20
1.000000
 30
0.000000
 11
4.100000
 21
0.900000
 31
0.000000
  0
LINE
  8
1
 10
2.200000
 20
1.050000
 30
0.000000
 11
2.500000
 21
0.750000
 31
0.000000
  0
LINE
  8
1
 10
2.000000
 20
1.100000
 30
0.000000
 11
2.150000
 21
1.100000
 31
0.000000
  0
LINE
  8
1
 10
2.150000
 20
1.100000
 30
0.000000
 11
2.200000
 21
1.050000
 31
0.000000
  0
LINE
  8
1
 10
2.500000
 20
0.750000
 30
0.000000
 11
2.500000
 21
0.650000
 31
0.000000
  0
LINE
  8
1
 10
5.600000
 20
1.000000
 30
0.000000
 11
5.550000
 21
1.000000
 31
0.000000
  0
LINE
  8
1
 10
5.550000
 20
1.000000
 30
0.000000
 11
5.500000
 21
1.050000
 31
0.000000
  0
LINE
  8
1
 10
5.500000
 20
1.050000
 30
0.000000
 11
5.500000
 21
1.250000
 31
0.000000
  0
LINE
  8
1
 10
5.500000
 20
1.250000
 30
0.000000
 11
5.700000
 21
1.450000
 31
0.000000
  0
LINE
  8
1
 10
5.700000
 20
1.450000
 30
0.000000
 11
5.950000
 21
1.450000
 31
0.000000
  0
LINE
  8
1
 10
3.850000
 20
0.650000
 30
0.000000
 11
3.950000
 21
0.650000
 31
0.000000
  0
LINE
  8
1
 10
3.950000
 20
0.650000
 30
0.000000
 11
3.950000
 21
0.200000
 31
0.000000
  0
LINE
  8
1
 10
3.950000
 20
0.200000
 30
0.000000
 11
4.750000
 21
0.200000
 31
0.000000
  0
LINE
  8
1
 10
4.750000
 20
0.200000
 30
0.000000
 11
4.950000
 21
0.400000
 31
0.000000
  0
LINE
  8
1
 10
4.950000
 20
0.400000
 30
0.000000
 11
5.550000
 21
0.400000
 31
0.000000
  0
LINE
  8
1
 10
3.100000
 20
0.600000
 30
0.000000
 11
3.100000
 21
0.400000
 31
0.000000
  0
LINE
  8
1
 10
3.100000
 20
0.400000
 30
0.000000
 11
3.250000
 21
0.250000
 31
0.000000
  0
LINE
  8
1
 10
3.250000
 20
0.250000
 30
0.000000
 11
3.850000
 21
0.250000
 31
0.000000
  0
LINE
  8
1
 10
3.850000
 20
0.250000
 30
0.000000
 11
3.850000
 21
0.650000
 31
0.000000
  0
LINE
  8
1
 10
5.600000
 20
1.100000
 30
0.000000
 11
5.750000
 21
1.100000
 31
0.000000
  0
LINE
  8
16
 10
5.750000
 20
1.100000
 30
0.000000
 11
5.750000
 21
0.600000
 31
0.000000
  0
LINE
  8
16
 10
5.750000
 20
0.600000
 30
0.000000
 11
5.550000
 21
0.400000
 31
0.000000
  0
INSERT
  8
18
  2
SQUAREV
 10
5.750000
 20
1.100000
 30
0.000000
 41
0.039622
 42
0.039622
 43
1.000000
 50
0.000000
  0
INSERT
  8
18
  2
SQUAREV
 10
5.750000
 20
1.100000
 30
0.000000
 41
0.039622
 42
0.039622
 43
1.000000
 50
0.000000
  0
INSERT
  8
18
  2
SQUAREV
 10
5.550000
 20
0.400000
 30
0.000000
 41
0.039622
 42
0.039622
 43
1.000000
 50
0.000000
  0
INSERT
  8
18
  2
SQUAREV
 10
5.550000
 20
0.400000
 30
0.000000
 41
0.039622
 42
0.039622
 43
1.000000
 50
0.000000
  0
LINE
  8
1
 10
5.950000
 20
0.250000
 30
0.000000
 11
6.000000
 21
0.250000
 31
0.000000
  0
LINE
  8
1
 10
6.000000
 20
0.250000
 30
0.000000
 11
6.100000
 21
0.350000
 31
0.000000
  0
LINE
  8
1
 10
6.100000
 20
0.350000
 30
0.000000
 11
6.100000
 21
0.950000
 31
0.000000
  0
LINE
  8
1
 10
6.100000
 20
0.950000
 30
0.000000
 11
5.850000
 21
1.200000
 31
0.000000
  0
LINE
  8
1
 10
5.850000
 20
1.200000
 30
0.000000
 11
5.600000
 21
1.200000
 31
0.000000
  0
LINE
  8
1
 10
1.450000
 20
1.200000
 30
0.000000
 11
1.700000
 21
1.450000
 31
0.000000
  0
LINE
  8
1
 10
1.700000
 20
1.450000
 30
0.000000
 11
1.800000
 21
1.450000
 31
0.000000
  0
LINE
  8
1
 10
1.300000
 20
1.200000
 30
0.000000
 11
1.450000
 21
1.200000
 31
0.000000
  0
LINE
  8
1
 10
1.600000
 20
0.900000
 30
0.000000
 11
1.600000
 21
0.800000
 31
0.000000
  0
LINE
  8
1
 10
1.600000
 20
0.800000
 30
0.000000
 11
1.500000
 21
0.700000
 31
0.000000
  0
LINE
  8
1
 10
1.500000
 20
0.700000
 30
0.000000
 11
1.500000
 21
0.650000
 31
0.000000
  0
LINE
  8
1
 10
1.900000
 20
1.000000
 30
0.000000
 11
1.700000
 21
1.000000
 31
0.000000
  0
LINE
  8
1
 10
1.700000
 20
1.000000
 30
0.000000
 11
1.600000
 21
0.900000
 31
0.000000
  0
LINE
  8
1
 10
6.250000
 20
0.550000
 30
0.000000
 11
6.500000
 21
0.550000
 31
0.000000
  0
LINE
  8
1
 10
6.550000
 20
0.500000
 30
0.000000
 11
6.500000
 21
0.550000
 31
0.000000
  0
LINE
  8
1
 10
1.350000
 20
0.850000
 30
0.000000
 11
0.400000
 21
0.850000
 31
0.000000
  0
LINE
  8
1
 10
0.400000
 20
0.850000
 30
0.000000
 11
0.200000
 21
0.650000
 31
0.000000
  0
LINE
  8
1
 10
0.200000
 20
0.650000
 30
0.000000
 11
0.200000
 21
0.400000
 31
0.000000
  0
LINE
  8
1
 10
0.200000
 20
0.400000
 30
0.000000
 11
0.350000
 21
0.250000
 31
0.000000
  0
LINE
  8
1
 10
0.650000
 20
0.250000
 30
0.000000
 11
0.350000
 21
0.250000
 31
0.000000
  0
LINE
  8
1
 10
1.350000
 20
0.850000
 30
0.000000
 11
1.350000
 21
0.950000
 31
0.000000
  0
LINE
  8
1
 10
1.350000
 20
0.950000
 30
0.000000
 11
1.200000
 21
0.950000
 31
0.000000
  0
LINE
  8
1
 10
1.200000
 20
0.950000
 30
0.000000
 11
1.200000
 21
1.100000
 31
0.000000
  0
LINE
  8
1
 10
1.300000
 20
1.100000
 30
0.000000
 11
1.200000
 21
1.100000
 31
0.000000
  0
LINE
  8
1
 10
5.950000
 20
0.450000
 30
0.000000
 11
4.900000
 21
0.450000
 31
0.000000
  0
LINE
  8
1
 10
4.900000
 20
0.450000
 30
0.000000
 11
4.700000
 21
0.250000
 31
0.000000
  0
LINE
  8
1
 10
4.700000
 20
0.250000
 30
0.000000
 11
4.050000
 21
0.250000
 31
0.000000
  0
LINE
  8
1
 10
3.600000
 20
0.900000
 30
0.000000
 11
3.600000
 21
0.700000
 31
0.000000
  0
LINE
  8
1
 10
3.600000
 20
0.700000
 30
0.000000
 11
4.050000
 21
0.700000
 31
0.000000
  0
LINE
  8
1
 10
4.050000
 20
0.700000
 30
0.000000
 11
4.050000
 21
0.250000
 31
0.000000
  0
LINE
  8
1
 10
0.050000
 20
1.950000
 30
0.000000
 11
6.750000
 21
1.950000
 31
0.000000
  0
LINE
  8
1
 10
6.750000
 20
1.950000
 30
0.000000
 11
6.750000
 21
0.050000
 31
0.000000
  0
LINE
  8
1
 10
6.750000
 20
0.050000
 30
0.000000
 11
0.050000
 21
0.050000
 31
0.000000
  0
LINE
  8
1
 10
0.050000
 20
0.050000
 30
0.000000
 11
0.050000
 21
1.950000
 31
0.000000
  0
LINE
  8
1
 10
5.950000
 20
0.550000
 30
0.000000
 11
5.850000
 21
0.550000
 31
0.000000
  0
LINE
  8
1
 10
5.850000
 20
0.550000
 30
0.000000
 11
5.800000
 21
0.500000
 31
0.000000
  0
LINE
  8
1
 10
5.800000
 20
0.500000
 30
0.000000
 11
4.900000
 21
0.500000
 31
0.000000
  0
LINE
  8
16
 10
4.900000
 20
0.500000
 30
0.000000
 11
4.700000
 21
0.300000
 31
0.000000
  0
LINE
  8
16
 10
4.700000
 20
0.300000
 30
0.000000
 11
3.800000
 21
0.300000
 31
0.000000
  0
LINE
  8
1
 10
3.800000
 20
0.300000
 30
0.000000
 11
3.800000
 21
0.600000
 31
0.000000
  0
INSERT
  8
18
  2
SQUAREV
 10
4.900000
 20
0.500000
 30
0.000000
 41
0.039622
 42
0.039622
 43
1.000000
 50
0.000000
  0
INSERT
  8
18
  2
SQUAREV
 10
4.900000
 20
0.500000
 30
0.000000
 41
0.039622
 42
0.039622
 43
1.000000
 50
0.000000
  0
INSERT
  8
18
  2
SQUAREV
 10
3.800000
 20
0.300000
 30
0.000000
 41
0.039622
 42
0.039622
 43
1.000000
 50
0.000000
  0
INSERT
  8
18
  2
SQUAREV
 10
3.800000
 20
0.300000
 30
0.000000
 41
0.039622
 42
0.039622
 43
1.000000
 50
0.000000
  0
LINE
  8
16
 10
0.050000
 20
1.950000
 30
0.000000
 11
6.750000
 21
1.950000
 31
0.000000
  0
LINE
  8
16
 10
6.750000
 20
1.950000
 30
0.000000
 11
6.750000
 21
0.050000
 31
0.000000
  0
LINE
  8
16
 10
6.750000
 20
0.050000
 30
0.000000
 11
0.050000
 21
0.050000
 31
0.000000
  0
LINE
  8
16
 10
0.050000
 20
0.050000
 30
0.000000
 11
0.050000
 21
1.950000
 31
0.000000
  0
LINE
  8
1
 10
2.750000
 20
1.350000
 30
0.000000
 11
2.800000
 21
1.300000
 31
0.000000
  0
LINE
  8
1
 10
2.800000
 20
1.300000
 30
0.000000
 11
3.050000
 21
1.300000
 31
0.000000
  0
LINE
  8
1
 10
3.050000
 20
1.300000
 30
0.000000
 11
3.050000
 21
1.200000
 31
0.000000
  0
LINE
  8
1
 10
3.050000
 20
1.200000
 30
0.000000
 11
2.850000
 21
1.000000
 31
0.000000
  0
LINE
  8
1
 10
2.850000
 20
1.000000
 30
0.000000
 11
2.850000
 21
0.850000
 31
0.000000
  0
LINE
  8
1
 10
2.850000
 20
0.850000
 30
0.000000
 11
3.050000
 21
0.850000
 31
0.000000
  0
LINE
  8
1
 10
3.050000
 20
0.850000
 30
0.000000
 11
3.100000
 21
0.900000
 31
0.000000
  0
LINE
  8
1
 10
1.800000
 20
1.750000
 30
0.000000
 11
1.700000
 21
1.750000
 31
0.000000
  0
LINE
  8
1
 10
1.700000
 20
1.750000
 30
0.000000
 11
1.550000
 21
1.600000
 31
0.000000
  0
LINE
  8
1
 10
1.550000
 20
1.600000
 30
0.000000
 11
1.250000
 21
1.600000
 31
0.000000
  0
LINE
  8
1
 10
1.250000
 20
1.600000
 30
0.000000
 11
0.950000
 21
1.300000
 31
0.000000
  0
LINE
  8
1
 10
0.950000
 20
1.300000
 30
0.000000
 11
0.950000
 21
1.100000
 31
0.000000
  0
LINE
  8
1
 10
0.950000
 20
1.100000
 30
0.000000
 11
0.900000
 21
1.050000
 31
0.000000
  0
LINE
  8
1
 10
0.900000
 20
1.050000
 30
0.000000
 11
0.850000
 21
1.050000
 31
0.000000
  0
LINE
  8
1
 10
6.550000
 20
1.600000
 30
0.000000
 11
6.400000
 21
1.750000
 31
0.000000
  0
LINE
  8
1
 10
6.400000
 20
1.750000
 30
0.000000
 11
6.250000
 21
1.750000
 31
0.000000
  0
LINE
  8
1
 10
6.550000
 20
1.600000
 30
0.000000
 11
6.550000
 21
1.500000
 31
0.000000
  0
LINE
  8
1
 10
2.450000
 20
0.600000
 30
0.000000
 11
2.550000
 21
0.600000
 31
0.000000
  0
LINE
  8
1
 10
2.550000
 20
0.600000
 30
0.000000
 11
2.550000
 21
0.800000
 31
0.000000
  0
LINE
  8
1
 10
2.550000
 20
0.800000
 30
0.000000
 11
2.250000
 21
1.100000
 31
0.000000
  0
LINE
  8
1
 10
2.250000
 20
1.100000
 30
0.000000
 11
2.250000
 21
1.600000
 31
0.000000
  0
LINE
  8
1
 10
2.250000
 20
1.600000
 30
0.000000
 11
2.400000
 21
1.750000
 31
0.000000
  0
LINE
  8
1
 10
2.400000
 20
1.750000
 30
0.000000
 11
3.250000
 21
1.750000
 31
0.000000
  0
LINE
  8
1
 10
3.250000
 20
1.750000
 30
0.000000
 11
4.000000
 21
1.000000
 31
0.000000
  0
LINE
  8
1
 10
4.000000
 20
1.000000
 30
0.000000
 11
4.000000
 21
0.900000
 31
0.000000
  0
LINE
  8
1
 10
2.000000
 20
1.000000
 30
0.000000
 11
2.150000
 21
1.000000
 31
0.000000
  0
LINE
  8
1
 10
2.150000
 20
1.000000
 30
0.000000
 11
2.400000
 21
0.750000
 31
0.000000
  0
LINE
  8
1
 10
2.450000
 20
0.600000
 30
0.000000
 11
2.400000
 21
0.650000
 31
0.000000
  0
LINE
  8
1
 10
2.400000
 20
0.650000
 30
0.000000
 11
2.400000
 21
0.750000
 31
0.000000
  0
LINE
  8
1
 10
5.950000
 20
1.650000
 30
0.000000
 11
5.600000
 21
1.650000
 31
0.000000
  0
LINE
  8
1
 10
5.600000
 20
1.650000
 30
0.000000
 11
5.450000
 21
1.500000
 31
0.000000
  0
LINE
  8
1
 10
5.450000
 20
1.500000
 30
0.000000
 11
4.900000
 21
1.500000
 31
0.000000
  0
LINE
  8
1
 10
4.900000
 20
1.500000
 30
0.000000
 11
4.200000
 21
0.800000
 31
0.000000
  0
LINE
  8
1
 10
4.200000
 20
0.800000
 30
0.000000
 11
3.700000
 21
0.800000
 31
0.000000
  0
LINE
  8
1
 10
3.700000
 20
0.800000
 30
0.000000
 11
3.700000
 21
0.900000
 31
0.000000
  0
LINE
  8
1
 10
5.950000
 20
1.750000
 30
0.000000
 11
6.000000
 21
1.700000
 31
0.000000
  0
LINE
  8
1
 10
6.000000
 20
1.700000
 30
0.000000
 11
6.000000
 21
1.600000
 31
0.000000
  0
LINE
  8
1
 10
6.000000
 20
1.600000
 30
0.000000
 11
5.650000
 21
1.600000
 31
0.000000
  0
LINE
  8
1
 10
5.650000
 20
1.600000
 30
0.000000
 11
5.450000
 21
1.400000
 31
0.000000
  0
LINE
  8
1
 10
5.450000
 20
1.400000
 30
0.000000
 11
4.900000
 21
1.400000
 31
0.000000
  0
LINE
  8
1
 10
4.900000
 20
1.400000
 30
0.000000
 11
4.750000
 21
1.250000
 31
0.000000
  0
LINE
  8
16
 10
4.700000
 20
0.400000
 30
0.000000
 11
3.750000
 21
0.400000
 31
0.000000
  0
LINE
  8
1
 10
3.750000
 20
0.400000
 30
0.000000
 11
3.700000
 21
0.450000
 31
0.000000
  0
LINE
  8
1
 10
3.700000
 20
0.450000
 30
0.000000
 11
3.700000
 21
0.600000
 31
0.000000
  0
LINE
  8
16
 10
4.700000
 20
0.400000
 30
0.000000
 11
4.750000
 21
0.450000
 31
0.000000
  0
LINE
  8
16
 10
4.750000
 20
0.450000
 30
0.000000
 11
4.750000
 21
1.250000
 31
0.000000
  0
INSERT
  8
18
  2
SQUAREV
 10
4.750000
 20
1.250000
 30
0.000000
 41
0.039622
 42
0.039622
 43
1.000000
 50
0.000000
  0
INSERT
  8
18
  2
SQUAREV
 10
4.750000
 20
1.250000
 30
0.000000
 41
0.039622
 42
0.039622
 43
1.000000
 50
0.000000
  0
INSERT
  8
18
  2
SQUAREV
 10
3.750000
 20
0.400000
 30
0.000000
 41
0.039622
 42
0.039622
 43
1.000000
 50
0.000000
  0
INSERT
  8
18
  2
SQUAREV
 10
3.750000
 20
0.400000
 30
0.000000
 41
0.039622
 42
0.039622
 43
1.000000
 50
0.000000
  0
LINE
  8
16
 10
3.700000
 20
0.450000
 30
0.000000
 11
3.650000
 21
0.500000
 31
0.000000
  0
LINE
  8
16
 10
3.650000
 20
0.500000
 30
0.000000
 11
3.650000
 21
0.650000
 31
0.000000
  0
LINE
  8
16
 10
3.650000
 20
0.650000
 30
0.000000
 11
3.600000
 21
0.700000
 31
0.000000
  0
LINE
  8
16
 10
3.600000
 20
0.700000
 30
0.000000
 11
3.400000
 21
0.700000
 31
0.000000
  0
LINE
  8
16
 10
3.400000
 20
0.700000
 30
0.000000
 11
3.350000
 21
0.750000
 31
0.000000
  0
LINE
  8
16
 10
3.350000
 20
0.750000
 30
0.000000
 11
3.350000
 21
1.300000
 31
0.000000
  0
LINE
  8
16
 10
3.350000
 20
1.300000
 30
0.000000
 11
3.050000
 21
1.600000
 31
0.000000
  0
LINE
  8
16
 10
3.050000
 20
1.600000
 30
0.000000
 11
2.400000
 21
1.600000
 31
0.000000
  0
LINE
  8
16
 10
2.400000
 20
1.600000
 30
0.000000
 11
2.150000
 21
1.850000
 31
0.000000
  0
LINE
  8
16
 10
2.150000
 20
1.850000
 30
0.000000
 11
1.600000
 21
1.850000
 31
0.000000
  0
LINE
  8
16
 10
3.700000
 20
0.450000
 30
0.000000
 11
4.000000
 21
0.450000
 31
0.000000
  0
LINE
  8
16
 10
4.000000
 20
0.450000
 30
0.000000
 11
4.000000
 21
0.600000
 31
0.000000
  0
LINE
  8
16
 10
1.500000
 20
1.750000
 30
0.000000
 11
1.600000
 21
1.850000
 31
0.000000
  0
LINE
  8
1
 10
2.800000
 20
0.750000
 30
0.000000
 11
3.300000
 21
0.750000
 31
0.000000
  0
LINE
  8
1
 10
3.300000
 20
0.750000
 30
0.000000
 11
3.400000
 21
0.850000
 31
0.000000
  0
LINE
  8
1
 10
3.400000
 20
0.850000
 30
0.000000
 11
3.400000
 21
0.900000
 31
0.000000
  0
LINE
  8
1
 10
2.800000
 20
0.750000
 30
0.000000
 11
2.750000
 21
0.800000
 31
0.000000
  0
LINE
  8
1
 10
2.750000
 20
0.800000
 30
0.000000
 11
2.750000
 21
1.000000
 31
0.000000
  0
LINE
  8
1
 10
2.750000
 20
1.000000
 30
0.000000
 11
2.550000
 21
1.200000
 31
0.000000
  0
LINE
  8
1
 10
2.550000
 20
1.200000
 30
0.000000
 11
2.550000
 21
1.550000
 31
0.000000
  0
LINE
  8
16
 10
2.550000
 20
1.550000
 30
0.000000
 11
2.350000
 21
1.550000
 31
0.000000
  0
LINE
  8
16
 10
2.350000
 20
1.550000
 30
0.000000
 11
2.100000
 21
1.800000
 31
0.000000
  0
LINE
  8
16
 10
2.100000
 20
1.800000
 30
0.000000
 11
1.650000
 21
1.800000
 31
0.000000
  0
LINE
  8
16
 10
1.650000
 20
1.800000
 30
0.000000
 11
1.500000
 21
1.650000
 31
0.000000
  0
INSERT
  8
18
  2
SQUAREV
 10
2.550000
 20
1.550000
 30
0.000000
 41
0.039622
 42
0.039622
 43
1.000000
 50
0.000000
  0
INSERT
  8
18
  2
SQUAREV
 10
2.550000
 20
1.550000
 30
0.000000
 41
0.039622
 42
0.039622
 43
1.000000
 50
0.000000
  0
LINE
  8
1
 10
0.650000
 20
0.550000
 30
0.000000
 11
0.800000
 21
0.550000
 31
0.000000
  0
LINE
  8
1
 10
0.800000
 20
0.550000
 30
0.000000
 11
0.850000
 21
0.500000
 31
0.000000
  0
LINE
  8
1
 10
0.850000
 20
0.500000
 30
0.000000
 11
1.150000
 21
0.500000
 31
0.000000
  0
LINE
  8
1
 10
1.150000
 20
0.500000
 30
0.000000
 11
1.350000
 21
0.300000
 31
0.000000
  0
LINE
  8
1
 10
3.900000
 20
0.600000
 30
0.000000
 11
3.900000
 21
0.200000
 31
0.000000
  0
LINE
  8
1
 10
2.950000
 20
0.450000
 30
0.000000
 11
2.700000
 21
0.450000
 31
0.000000
  0
LINE
  8
1
 10
2.700000
 20
0.450000
 30
0.000000
 11
2.550000
 21
0.300000
 31
0.000000
  0
LINE
  8
1
 10
2.550000
 20
0.300000
 30
0.000000
 11
2.175000
 21
0.300000
 31
0.000000
  0
LINE
  8
1
 10
2.175000
 20
0.300000
 30
0.000000
 11
2.125000
 21
0.200000
 31
0.000000
  0
LINE
  8
1
 10
2.125000
 20
0.200000
 30
0.000000
 11
1.775000
 21
0.200000
 31
0.000000
  0
LINE
  8
1
 10
1.775000
 20
0.200000
 30
0.000000
 11
1.725000
 21
0.300000
 31
0.000000
  0
LINE
  8
1
 10
1.725000
 20
0.300000
 30
0.000000
 11
1.350000
 21
0.300000
 31
0.000000
  0
LINE
  8
1
 10
2.950000
 20
0.450000
 30
0.000000
 11
3.200000
 21
0.200000
 31
0.000000
  0
LINE
  8
1
 10
3.200000
 20
0.200000
 30
0.000000
 11
3.900000
 21
0.200000
 31
0.000000
  0
LINE
  8
1
 10
0.950000
 20
0.550000
 30
0.000000
 11
0.900000
 21
0.550000
 31
0.000000
  0
LINE
  8
1
 10
0.900000
 20
0.550000
 30
0.000000
 11
0.800000
 21
0.650000
 31
0.000000
  0
LINE
  8
1
 10
0.800000
 20
0.650000
 30
0.000000
 11
0.600000
 21
0.650000
 31
0.000000
  0
LINE
  8
1
 10
0.600000
 20
0.650000
 30
0.000000
 11
0.450000
 21
0.500000
 31
0.000000
  0
LINE
  8
1
 10
2.850000
 20
1.350000
 30
0.000000
 11
2.900000
 21
1.400000
 31
0.000000
  0
LINE
  8
1
 10
2.900000
 20
1.400000
 30
0.000000
 11
3.050000
 21
1.400000
 31
0.000000
  0
LINE
  8
1
 10
3.050000
 20
1.400000
 30
0.000000
 11
3.150000
 21
1.300000
 31
0.000000
  0
LINE
  8
1
 10
3.150000
 20
1.300000
 30
0.000000
 11
3.150000
 21
1.200000
 31
0.000000
  0
LINE
  8
1
 10
3.150000
 20
1.200000
 30
0.000000
 11
3.000000
 21
1.050000
 31
0.000000
  0
LINE
  8
1
 10
3.000000
 20
1.050000
 30
0.000000
 11
3.000000
 21
0.900000
 31
0.000000
  0
LINE
  8
1
 10
1.400000
 20
0.350000
 30
0.000000
 11
1.750000
 21
0.350000
 31
0.000000
  0
LINE
  8
1
 10
1.750000
 20
0.350000
 30
0.000000
 11
1.800000
 21
0.250000
 31
0.000000
  0
LINE
  8
1
 10
1.800000
 20
0.250000
 30
0.000000
 11
2.100000
 21
0.250000
 31
0.000000
  0
LINE
  8
1
 10
2.100000
 20
0.250000
 30
0.000000
 11
2.150000
 21
0.350000
 31
0.000000
  0
LINE
  8
1
 10
2.150000
 20
0.350000
 30
0.000000
 11
2.550000
 21
0.350000
 31
0.000000
  0
LINE
  8
1
 10
2.550000
 20
0.350000
 30
0.000000
 11
2.700000
 21
0.500000
 31
0.000000
  0
LINE
  8
1
 10
2.700000
 20
0.500000
 30
0.000000
 11
2.700000
 21
0.700000
 31
0.000000
  0
LINE
  8
1
 10
2.700000
 20
0.700000
 30
0.000000
 11
3.300000
 21
0.700000
 31
0.000000
  0
LINE
  8
1
 10
3.300000
 20
0.700000
 30
0.000000
 11
3.500000
 21
0.900000
 31
0.000000
  0
LINE
  8
1
 10
1.400000
 20
0.350000
 30
0.000000
 11
1.000000
 21
0.750000
 31
0.000000
  0
LINE
  8
1
 10
1.000000
 20
0.750000
 30
0.000000
 11
0.500000
 21
0.750000
 31
0.000000
  0
LINE
  8
1
 10
0.500000
 20
0.750000
 30
0.000000
 11
0.300000
 21
0.550000
 31
0.000000
  0
LINE
  8
1
 10
0.300000
 20
0.550000
 30
0.000000
 11
0.300000
 21
0.500000
 31
0.000000
  0
LINE
  8
1
 10
0.300000
 20
0.500000
 30
0.000000
 11
0.400000
 21
0.400000
 31
0.000000
  0
LINE
  8
1
 10
0.400000
 20
0.400000
 30
0.000000
 11
0.500000
 21
0.400000
 31
0.000000
  0
LINE
  8
1
 10
0.500000
 20
0.400000
 30
0.000000
 11
0.550000
 21
0.450000
 31
0.000000
  0
LINE
  8
1
 10
0.550000
 20
0.450000
 30
0.000000
 11
0.650000
 21
0.450000
 31
0.000000
  0
LINE
  8
1
 10
2.950000
 20
1.350000
 30
0.000000
 11
3.050000
 21
1.350000
 31
0.000000
  0
LINE
  8
1
 10
3.050000
 20
1.350000
 30
0.000000
 11
3.100000
 21
1.300000
 31
0.000000
  0
LINE
  8
1
 10
3.100000
 20
1.300000
 30
0.000000
 11
3.100000
 21
1.200000
 31
0.000000
  0
LINE
  8
1
 10
3.100000
 20
1.200000
 30
0.000000
 11
2.900000
 21
1.000000
 31
0.000000
  0
LINE
  8
1
 10
2.900000
 20
1.000000
 30
0.000000
 11
2.900000
 21
0.900000
 31
0.000000
  0
LINE
  8
1
 10
3.300000
 20
0.600000
 30
0.000000
 11
3.300000
 21
0.400000
 31
0.000000
  0
LINE
  8
1
 10
3.300000
 20
0.400000
 30
0.000000
 11
3.200000
 21
0.400000
 31
0.000000
  0
LINE
  8
1
 10
3.300000
 20
0.400000
 30
0.000000
 11
3.400000
 21
0.400000
 31
0.000000
  0
LINE
  8
1
 10
4.250000
 20
0.750000
 30
0.000000
 11
3.650000
 21
0.750000
 31
0.000000
  0
LINE
  8
1
 10
3.650000
 20
0.750000
 30
0.000000
 11
3.650000
 21
1.000000
 31
0.000000
  0
LINE
  8
1
 10
3.650000
 20
1.000000
 30
0.000000
 11
3.350000
 21
1.000000
 31
0.000000
  0
LINE
  8
1
 10
3.350000
 20
1.000000
 30
0.000000
 11
3.350000
 21
0.850000
 31
0.000000
  0
LINE
  8
1
 10
3.350000
 20
0.850000
 30
0.000000
 11
3.300000
 21
0.800000
 31
0.000000
  0
LINE
  8
1
 10
3.300000
 20
0.800000
 30
0.000000
 11
2.850000
 21
0.800000
 31
0.000000
  0
LINE
  8
1
 10
2.850000
 20
0.800000
 30
0.000000
 11
2.800000
 21
0.850000
 31
0.000000
  0
LINE
  8
1
 10
2.800000
 20
0.850000
 30
0.000000
 11
2.800000
 21
0.900000
 31
0.000000
  0
LINE
  8
1
 10
0.950000
 20
1.850000
 30
0.000000
 11
3.350000
 21
1.850000
 31
0.000000
  0
LINE
  8
1
 10
3.350000
 20
1.850000
 30
0.000000
 11
4.200000
 21
1.000000
 31
0.000000
  0
LINE
  8
1
 10
4.200000
 20
1.000000
 30
0.000000
 11
4.200000
 21
0.900000
 31
0.000000
  0
LINE
  8
1
 10
4.200000
 20
0.900000
 30
0.000000
 11
4.150000
 21
0.850000
 31
0.000000
  0
LINE
  8
1
 10
4.150000
 20
0.850000
 30
0.000000
 11
3.750000
 21
0.850000
 31
0.000000
  0
LINE
  8
1
 10
3.750000
 20
0.850000
 30
0.000000
 11
3.750000
 21
1.000000
 31
0.000000
  0
LINE
  8
1
 10
3.750000
 20
1.000000
 30
0.000000
 11
3.650000
 21
1.000000
 31
0.000000
  0
LINE
  8
1
 10
0.950000
 20
1.850000
 30
0.000000
 11
0.800000
 21
1.700000
 31
0.000000
  0
LINE
  8
1
 10
0.800000
 20
1.700000
 30
0.000000
 11
0.800000
 21
1.600000
 31
0.000000
  0
LINE
  8
1
 10
4.250000
 20
0.750000
 30
0.000000
 11
4.700000
 21
1.200000
 31
0.000000
  0
LINE
  8
1
 10
4.700000
 20
1.200000
 30
0.000000
 11
4.900000
 21
1.200000
 31
0.000000
  0
LINE
  8
16
 10
4.450000
 20
0.850000
 30
0.000000
 11
4.250000
 21
0.650000
 31
0.000000
  0
LINE
  8
16
 10
4.250000
 20
0.650000
 30
0.000000
 11
3.750000
 21
0.650000
 31
0.000000
  0
LINE
  8
1
 10
2.850000
 20
0.650000
 30
0.000000
 11
2.800000
 21
0.600000
 31
0.000000
  0
LINE
  8
1
 10
3.750000
 20
0.650000
 30
0.000000
 11
2.850000
 21
0.650000
 31
0.000000
  0
LINE
  8
1
 10
0.700000
 20
1.600000
 30
0.000000
 11
0.700000
 21
1.700000
 31
0.000000
  0
LINE
  8
1
 10
0.700000
 20
1.700000
 30
0.000000
 11
0.900000
 21
1.900000
 31
0.000000
  0
LINE
  8
1
 10
0.900000
 20
1.900000
 30
0.000000
 11
3.400000
 21
1.900000
 31
0.000000
  0
LINE
  8
1
 10
3.400000
 20
1.900000
 30
0.000000
 11
4.250000
 21
1.050000
 31
0.000000
  0
LINE
  8
16
 10
4.250000
 20
1.050000
 30
0.000000
 11
4.450000
 21
0.850000
 31
0.000000
  0
LINE
  8
1
 10
4.450000
 20
0.850000
 30
0.000000
 11
4.700000
 21
1.100000
 31
0.000000
  0
LINE
  8
1
 10
4.700000
 20
1.100000
 30
0.000000
 11
4.900000
 21
1.100000
 31
0.000000
  0
INSERT
  8
18
  2
SQUAREV
 10
3.750000
 20
0.650000
 30
0.000000
 41
0.039622
 42
0.039622
 43
1.000000
 50
0.000000
  0
INSERT
  8
18
  2
SQUAREV
 10
3.750000
 20
0.650000
 30
0.000000
 41
0.039622
 42
0.039622
 43
1.000000
 50
0.000000
  0
INSERT
  8
18
  2
SQUAREV
 10
4.250000
 20
1.050000
 30
0.000000
 41
0.039622
 42
0.039622
 43
1.000000
 50
0.000000
  0
INSERT
  8
18
  2
SQUAREV
 10
4.250000
 20
1.050000
 30
0.000000
 41
0.039622
 42
0.039622
 43
1.000000
 50
0.000000
  0
INSERT
  8
18
  2
SQUAREV
 10
4.450000
 20
0.850000
 30
0.000000
 41
0.039622
 42
0.039622
 43
1.000000
 50
0.000000
  0
INSERT
  8
18
  2
SQUAREV
 10
4.450000
 20
0.850000
 30
0.000000
 41
0.039622
 42
0.039622
 43
1.000000
 50
0.000000
  0
LINE
  8
16
 10
3.400000
 20
0.300000
 30
0.000000
 11
1.400000
 21
0.300000
 31
0.000000
  0
LINE
  8
16
 10
1.400000
 20
0.300000
 30
0.000000
 11
0.300000
 21
1.400000
 31
0.000000
  0
LINE
  8
16
 10
0.300000
 20
1.400000
 30
0.000000
 11
0.300000
 21
1.500000
 31
0.000000
  0
LINE
  8
16
 10
0.300000
 20
1.500000
 30
0.000000
 11
0.350000
 21
1.550000
 31
0.000000
  0
LINE
  8
16
 10
0.350000
 20
1.550000
 30
0.000000
 11
0.450000
 21
1.550000
 31
0.000000
  0
LINE
  8
16
 10
0.450000
 20
1.550000
 30
0.000000
 11
0.500000
 21
1.500000
 31
0.000000
  0
LINE
  8
16
 10
3.400000
 20
0.300000
 30
0.000000
 11
3.600000
 21
0.500000
 31
0.000000
  0
LINE
  8
16
 10
3.600000
 20
0.500000
 30
0.000000
 11
3.600000
 21
0.600000
 31
0.000000
  0
LINE
  8
1
 10
3.900000
 20
0.900000
 30
0.000000
 11
3.900000
 21
1.000000
 31
0.000000
  0
LINE
  8
1
 10
3.900000
 20
1.000000
 30
0.000000
 11
3.200000
 21
1.700000
 31
0.000000
  0
LINE
  8
1
 10
3.200000
 20
1.700000
 30
0.000000
 11
2.450000
 21
1.700000
 31
0.000000
  0
LINE
  8
1
 10
2.450000
 20
1.700000
 30
0.000000
 11
2.300000
 21
1.550000
 31
0.000000
  0
LINE
  8
1
 10
2.300000
 20
1.550000
 30
0.000000
 11
2.300000
 21
1.150000
 31
0.000000
  0
LINE
  8
1
 10
2.300000
 20
1.150000
 30
0.000000
 11
2.600000
 21
0.850000
 31
0.000000
  0
LINE
  8
1
 10
2.600000
 20
0.850000
 30
0.000000
 11
2.600000
 21
0.550000
 31
0.000000
  0
LINE
  8
1
 10
2.600000
 20
0.550000
 30
0.000000
 11
2.400000
 21
0.550000
 31
0.000000
  0
LINE
  8
1
 10
2.000000
 20
0.900000
 30
0.000000
 11
2.150000
 21
0.900000
 31
0.000000
  0
LINE
  8
1
 10
2.150000
 20
0.900000
 30
0.000000
 11
2.300000
 21
0.750000
 31
0.000000
  0
LINE
  8
1
 10
2.400000
 20
0.550000
 30
0.000000
 11
2.300000
 21
0.650000
 31
0.000000
  0
LINE
  8
1
 10
2.300000
 20
0.650000
 30
0.000000
 11
2.300000
 21
0.750000
 31
0.000000
  0
LINE
  8
16
 10
1.300000
 20
0.500000
 30
0.000000
 11
2.850000
 21
0.500000
 31
0.000000
  0
LINE
  8
16
 10
2.850000
 20
0.500000
 30
0.000000
 11
2.900000
 21
0.550000
 31
0.000000
  0
LINE
  8
16
 10
2.900000
 20
0.550000
 30
0.000000
 11
2.900000
 21
0.600000
 31
0.000000
  0
LINE
  8
16
 10
0.400000
 20
1.500000
 30
0.000000
 11
0.400000
 21
1.400000
 31
0.000000
  0
LINE
  8
16
 10
0.400000
 20
1.400000
 30
0.000000
 11
1.300000
 21
0.500000
 31
0.000000
  0
LINE
  8
1
 10
3.800000
 20
0.900000
 30
0.000000
 11
3.800000
 21
1.000000
 31
0.000000
  0
LINE
  8
1
 10
3.800000
 20
1.000000
 30
0.000000
 11
3.150000
 21
1.650000
 31
0.000000
  0
LINE
  8
1
 10
3.150000
 20
1.650000
 30
0.000000
 11
2.500000
 21
1.650000
 31
0.000000
  0
LINE
  8
1
 10
2.500000
 20
1.650000
 30
0.000000
 11
2.350000
 21
1.500000
 31
0.000000
  0
LINE
  8
1
 10
2.350000
 20
1.500000
 30
0.000000
 11
2.350000
 21
1.200000
 31
0.000000
  0
LINE
  8
1
 10
2.350000
 20
1.200000
 30
0.000000
 11
2.650000
 21
0.900000
 31
0.000000
  0
LINE
  8
1
 10
2.650000
 20
0.900000
 30
0.000000
 11
2.650000
 21
0.500000
 31
0.000000
  0
LINE
  8
1
 10
2.650000
 20
0.500000
 30
0.000000
 11
2.350000
 21
0.500000
 31
0.000000
  0
LINE
  8
1
 10
2.000000
 20
0.800000
 30
0.000000
 11
2.150000
 21
0.800000
 31
0.000000
  0
LINE
  8
1
 10
2.150000
 20
0.800000
 30
0.000000
 11
2.200000
 21
0.750000
 31
0.000000
  0
LINE
  8
1
 10
2.200000
 20
0.750000
 30
0.000000
 11
2.200000
 21
0.650000
 31
0.000000
  0
LINE
  8
1
 10
2.200000
 20
0.650000
 30
0.000000
 11
2.350000
 21
0.500000
 31
0.000000
  0
LINE
  8
1
 10
1.100000
 20
0.900000
 30
0.000000
 11
1.100000
 21
1.150000
 31
0.000000
  0
LINE
  8
1
 10
1.100000
 20
1.150000
 30
0.000000
 11
1.400000
 21
1.450000
 31
0.000000
  0
LINE
  8
1
 10
1.400000
 20
1.450000
 30
0.000000
 11
1.500000
 21
1.450000
 31
0.000000
  0
LINE
  8
1
 10
1.300000
 20
0.900000
 30
0.000000
 11
1.100000
 21
0.900000
 31
0.000000
  0
ENDSEC
  0
EOF
